<svg width="13" height="14" viewBox="0 0 13 14" fill="none" xmlns="http://www.w3.org/2000/svg">
<path d="M6.77368 10C4.9939 10 4 8.69615 4 7C4 5.30385 4.9939 4 6.77368 4C8.09117 4 9.02729 4.77308 9.14286 6.01923H8.04494C7.94093 5.38462 7.47865 4.92308 6.8199 4.92308H6.72745C5.61798 4.92308 5.09791 5.90385 5.09791 7C5.09791 8.09615 5.61798 9.07692 6.72745 9.07692H6.8199C7.47865 9.07692 7.94093 8.61538 8.04494 7.98077H9.14286C9.02729 9.22692 8.09117 10 6.77368 10Z" fill="#666666"/>
<rect x="0.5" y="1" width="12" height="12" rx="6" stroke="#666666"/>
</svg>
