<svg width="47" height="44" viewBox="0 0 47 44" fill="none" xmlns="http://www.w3.org/2000/svg">
    <g clip-path="url(#clip0_3938_21732)">
        <path d="M23.0137 21.558C23.0137 27.4456 21.7388 32.7509 19.7023 36.5664C17.6544 40.4032 14.91 42.616 12.0068 42.616C9.10366 42.616 6.35931 40.4032 4.31137 36.5664C2.27485 32.7509 1 27.4456 1 21.558C1 15.6704 2.27485 10.3651 4.31137 6.54963C6.35931 2.71282 9.10366 0.5 12.0068 0.5C14.91 0.5 17.6544 2.71282 19.7023 6.54963C21.7388 10.3651 23.0137 15.6704 23.0137 21.558Z" fill="white" stroke="black"/>
        <path d="M46.0018 21.5585C46.0018 27.4461 44.727 32.7514 42.6905 36.5669C40.6425 40.4037 37.8982 42.6165 34.995 42.6165C32.0918 42.6165 29.3475 40.4037 27.2995 36.5669C25.263 32.7514 23.9882 27.4461 23.9882 21.5585C23.9882 15.6709 25.263 10.3655 27.2995 6.55012C29.3475 2.71331 32.0918 0.500488 34.995 0.500488C37.8982 0.500488 40.6425 2.71331 42.6905 6.55012C44.727 10.3655 46.0018 15.6709 46.0018 21.5585Z" fill="white" stroke="black"/>
        <path d="M37.855 23.8447L35.4023 28.5974C35.2655 28.8584 35.2838 29.1735 35.457 29.4165C36.6241 31.0277 38.1559 31.9999 39.8427 31.9999C43.5173 31.9999 46.4988 27.3282 46.4988 21.5584C46.4988 15.7886 43.5173 11.1169 39.8427 11.1169C36.1682 11.1169 33.1866 15.7886 33.1866 21.5584C33.1866 22.6926 33.3052 23.7907 33.524 24.8079C33.5787 25.0689 33.8705 25.1949 34.1076 25.0779L37.4265 23.4127C37.855 23.1786 38.1012 23.4127 37.8641 23.8447H37.855Z" fill="black"/>
        <path d="M14.8704 23.8442L12.4177 28.5969C12.2809 28.8579 12.2992 29.173 12.4724 29.416C13.6395 31.0272 15.1713 31.9994 16.8581 31.9994C20.5327 31.9994 23.5142 27.3277 23.5142 21.5579C23.5142 15.7881 20.5327 11.1165 16.8581 11.1165C13.1836 11.1165 10.202 15.7881 10.202 21.5579C10.202 22.6921 10.3206 23.7902 10.5394 24.8074C10.5941 25.0684 10.8859 25.1944 11.1229 25.0774L14.4419 23.4122C14.8704 23.1781 15.1166 23.4122 14.8795 23.8442H14.8704Z" fill="black"/>
    </g>
    <defs>
        <clipPath id="clip0_3938_21732">
            <rect width="46" height="43.125" fill="white" transform="translate(0.5)"/>
        </clipPath>
    </defs>
</svg>
