<svg xmlns="http://www.w3.org/2000/svg" width="28" height="24" viewBox="0 0 28 24" fill="none">
<path d="M1.33537 13.3333H14.6954C16.3087 13.3333 17.252 15.14 16.3354 16.4733C14.9887 18.4333 14.152 20.7733 14.0187 23.2933C13.9987 23.6767 14.302 24 14.6854 24H15.9987C16.3654 24 16.6654 23.7 16.6654 23.3333C16.9954 17.9733 21.3054 13.6633 26.6654 13.3333C27.032 13.3333 27.332 13.0333 27.332 12.6667V11.3333C27.332 10.9667 27.032 10.6667 26.6654 10.6667C21.1654 10.6667 16.6654 6.16667 16.6654 0.666667C16.6654 0.3 16.3654 0 15.9987 0H14.6854C14.302 0 13.9987 0.323334 14.0187 0.706667C14.152 3.22667 14.9887 5.56667 16.3354 7.52667C17.2487 8.85667 16.3087 10.6667 14.6954 10.6667H1.33537C0.968702 10.6667 0.668701 10.9667 0.668701 11.3333V12.6667C0.668701 13.0333 0.968702 13.3333 1.33537 13.3333Z" fill="#1C1C1B"/>
</svg>