  <svg xmlns="http://www.w3.org/2000/svg" width="16" height="17" viewBox="0 0 16 17" fill="none">
                                                    <path
                                                        d="M4.79385 12.5C4.79385 12.5 4.67692 12.4631 4.60923 12.3954L4.10462 11.8908C4.10462 11.8908 4 11.7738 4 11.7123C4 11.6754 4.02462 11.6077 4.16615 11.4662L8.26462 7.36769C8.67692 6.98 8.84923 6.57385 8.70769 6.22923C8.59077 5.91538 8.24 5.73692 7.76 5.73692H4.38769C4.14154 5.73692 4.09231 5.63231 4.09231 5.45385V4.77077C4.09231 4.54923 4.19692 4.5 4.35077 4.5H10.0431C11.12 4.5 12 5.38 12 6.45692V12.0692C12 12.3708 11.92 12.4077 11.7292 12.4077H11.0154C10.8185 12.4077 10.7569 12.3954 10.7569 12.0815V8.62308C10.7569 8.09385 10.4431 7.71231 10.0185 7.71231C9.85231 7.71231 9.60615 7.77385 9.35385 8.03846L5.04 12.3462C4.93538 12.4508 4.85538 12.5 4.79385 12.5Z"
                                                        fill="#1C1C1B" />
                                                </svg>