<svg xmlns="http://www.w3.org/2000/svg" width="1335" height="700" viewBox="0 0 1335 700" fill="none">
  <path d="M1.362 195L0.25 193.888V1.51239L1.362 0.400391H133.412L134.524 1.51239V33.7604L133.412 34.8724H53.626C41.95 34.8724 35.834 40.9884 35.834 52.1084V58.5024C35.834 69.6224 41.95 76.0164 53.626 76.0164H121.458L122.57 77.1284V109.376L121.458 110.488H53.626C41.95 110.488 35.834 116.882 35.834 128.28V142.736C35.834 154.134 41.95 160.528 53.626 160.528H133.412L134.524 161.64V193.888L133.412 195H1.362Z" fill="black"/>
  <path d="M187.327 195L186.215 193.888L143.403 51.5524L144.515 50.4404H179.821L180.933 51.5524L205.675 140.79C208.177 149.686 212.069 154.412 219.019 154.412C226.247 154.412 230.139 149.964 232.641 140.79L256.827 51.5524L257.939 50.4404H291.855L292.967 51.5524L250.155 193.888L249.043 195H187.327Z" fill="black"/>
  <path d="M369.821 199.17C325.063 199.17 298.931 164.976 298.931 120.496C298.931 73.7924 328.677 46.2704 367.597 46.2704C406.239 46.2704 433.761 72.9584 433.761 111.878V131.06L432.649 132.172H354.531C344.801 132.172 338.685 136.064 338.685 144.404C338.685 155.802 349.249 168.59 368.987 168.59C385.111 168.59 397.343 159.694 399.845 145.238L400.957 144.126H434.317L435.429 145.238C429.869 178.32 404.571 199.17 369.821 199.17ZM338.685 95.1984C338.685 103.538 344.245 107.43 350.639 107.43H382.331C388.725 107.43 394.285 103.538 394.285 95.1984C394.285 84.3564 384.555 73.2364 367.041 73.2364C348.971 73.2364 338.685 84.3564 338.685 95.1984Z" fill="black"/>
  <path d="M456.463 195.278L455.351 194.166V51.5524L456.463 50.4404H536.527L537.639 51.5524V81.8544L536.527 82.9664H512.619C498.719 82.9664 490.935 90.7504 490.935 104.65V194.166L489.823 195.278H456.463Z" fill="black"/>
  <path d="M563.15 258.94L562.038 257.828V231.696L563.15 230.584H587.614C601.792 230.584 608.742 224.746 611.522 216.128C615.414 203.896 609.02 195 597.9 195H589.56L588.448 193.888L545.08 51.5524L546.192 50.4404H580.942L582.054 51.5524L607.352 140.79C610.132 150.242 613.746 154.412 620.974 154.412C628.202 154.412 631.538 150.52 634.318 140.79L659.338 51.5524L660.45 50.4404H695.2L696.312 51.5524L634.04 257.828L632.928 258.94H563.15Z" fill="black"/>
  <path d="M739.042 195L737.93 193.888V99.3684C737.93 87.9704 731.814 81.5764 720.416 81.5764H704.292L703.18 80.4644V51.5524L704.292 50.4404H736.818L737.93 49.3284V9.8524L739.042 8.7404H772.68L773.792 9.8524V49.3284L774.904 50.4404H809.098L810.21 51.5524V80.4644L809.098 81.5764H791.306C779.908 81.5764 773.792 87.9704 773.792 99.3684V146.35C773.792 158.026 779.908 163.308 791.306 163.308H809.098L810.21 164.42V193.888L809.098 195H739.042Z" fill="black"/>
  <path d="M829.661 195.278L828.549 194.166V1.51239L829.661 0.400391H863.021L864.133 1.51239V49.3284L865.245 50.4404H954.205L955.317 51.5524V194.166L954.205 195.278H920.845L919.733 194.166V106.596C919.733 92.6964 911.949 84.9124 897.771 84.9124H885.817C871.917 84.9124 864.133 92.6964 864.133 106.596V194.166L863.021 195.278H829.661Z" fill="black"/>
  <path d="M984.8 195L983.688 193.888V51.5524L984.8 50.4404H1018.44L1019.55 51.5524V193.888L1018.44 195H984.8ZM983.41 34.0384V1.51239L984.522 0.400391H1018.72L1019.83 1.51239V34.0384L1018.72 35.1504H984.522L983.41 34.0384Z" fill="black"/>
  <path d="M1049.01 195L1047.89 193.888V51.5524L1049.01 50.4404H1173.55L1174.66 51.5524V193.888L1173.55 195H1140.19L1139.08 193.888V104.65C1139.08 90.7504 1131.29 82.9664 1117.12 82.9664H1105.16C1091.26 82.9664 1083.48 90.7504 1083.48 104.65V193.888L1082.37 195H1049.01Z" fill="black"/>
  <path d="M1248.37 258.94C1219.18 258.94 1200.27 239.202 1200.27 213.07V103.816C1200.27 67.9544 1220.57 50.4404 1258.37 50.4404H1333.16L1334.27 51.5524V83.8004L1333.16 84.9124H1332.6C1321.48 84.9124 1316.2 90.1944 1316.2 101.314V107.986C1316.2 134.118 1295.35 149.686 1263.66 149.686H1241.14C1235.3 149.686 1230.57 152.744 1230.57 158.582C1230.57 164.42 1235.3 167.2 1241.14 167.2H1277.56C1308.69 167.2 1326.21 187.494 1326.21 213.07C1326.21 238.924 1308.69 258.94 1277.56 258.94H1248.37ZM1233.91 100.202C1233.91 113.824 1244.75 120.774 1258.37 120.774C1272 120.774 1282.56 113.824 1282.56 100.202C1282.56 86.5804 1272 79.3524 1258.37 79.3524C1244.75 79.3524 1233.91 86.5804 1233.91 100.202ZM1235.02 213.348C1235.02 224.468 1243.92 229.75 1254.76 229.75H1270.88C1281.73 229.75 1290.62 224.19 1290.62 213.07C1290.62 201.95 1281.73 196.668 1270.88 196.668H1254.76C1243.92 196.668 1235.02 201.95 1235.02 213.348Z" fill="black"/>
  <path d="M177.461 445L176.349 443.888V381.338C176.349 372.72 174.681 366.604 170.233 359.376L109.073 251.512L110.185 250.4H148.549L149.939 251.512L181.909 309.614C188.859 322.124 199.145 322.402 206.373 309.614L238.343 251.512L239.733 250.4H280.043L281.155 251.512L217.771 358.82C213.601 366.604 211.933 372.442 211.933 380.782V443.888L210.821 445H177.461Z" fill="black"/>
  <path d="M338.006 449.17C294.916 449.17 263.502 417.478 263.502 372.72C263.502 327.962 294.916 296.27 338.006 296.27C380.818 296.27 412.232 327.962 412.232 372.72C412.232 417.478 380.818 449.17 338.006 449.17ZM300.476 372.72C300.476 396.906 316.6 413.864 338.006 413.864C359.134 413.864 375.536 396.906 375.536 372.72C375.536 348.534 359.134 331.298 338.006 331.298C316.6 331.298 300.476 348.534 300.476 372.72Z" fill="black"/>
  <path d="M434.066 300.44H467.426L468.538 301.552V390.79C468.538 404.69 476.322 412.474 490.222 412.474H502.176C516.354 412.474 524.138 404.69 524.138 390.79V301.552L525.25 300.44H558.61L559.722 301.552V443.888L558.61 445H434.066L432.954 443.888V301.552L434.066 300.44Z" fill="black"/>
  <path d="M640.702 445.278L639.59 444.166V251.512L640.702 250.4H674.062L675.174 251.512V299.328L676.286 300.44H765.246L766.358 301.552V444.166L765.246 445.278H731.886L730.774 444.166V356.596C730.774 342.696 722.99 334.912 708.812 334.912H696.858C682.958 334.912 675.174 342.696 675.174 356.596V444.166L674.062 445.278H640.702Z" fill="black"/>
  <path d="M834.542 445C808.966 445 788.394 428.598 788.394 401.91C788.394 375.5 808.966 359.376 834.542 359.376H862.342L863.454 358.264V345.198C863.454 333.244 854.558 327.406 842.048 327.406C828.148 327.406 820.92 334.912 820.364 344.086L819.252 345.198H785.614L784.502 344.086C784.502 318.51 804.796 296.27 843.438 296.27C872.906 296.27 899.038 308.78 899.038 341.028V393.57C899.038 404.968 905.154 411.362 916.83 411.362H917.664L918.776 412.474V443.888L917.664 445H834.542ZM823.144 401.91C823.144 413.586 832.874 419.98 842.604 419.98H845.662C855.67 419.98 865.4 413.586 865.4 401.91C865.4 390.512 855.67 384.118 845.662 384.118H842.604C832.874 384.118 823.144 390.512 823.144 401.91Z" fill="black"/>
  <path d="M960.139 445L959.027 443.888L916.215 301.552L917.327 300.44H952.633L953.745 301.552L978.487 390.79C980.99 399.686 984.881 404.412 991.831 404.412C999.06 404.412 1002.95 399.964 1005.45 390.79L1029.64 301.552L1030.75 300.44H1064.67L1065.78 301.552L1022.97 443.888L1021.86 445H960.139Z" fill="black"/>
  <path d="M1142.63 449.17C1097.88 449.17 1071.74 414.976 1071.74 370.496C1071.74 323.792 1101.49 296.27 1140.41 296.27C1179.05 296.27 1206.57 322.958 1206.57 361.878V381.06L1205.46 382.172H1127.34C1117.61 382.172 1111.5 386.064 1111.5 394.404C1111.5 405.802 1122.06 418.59 1141.8 418.59C1157.92 418.59 1170.16 409.694 1172.66 395.238L1173.77 394.126H1207.13L1208.24 395.238C1202.68 428.32 1177.38 449.17 1142.63 449.17ZM1111.5 345.198C1111.5 353.538 1117.06 357.43 1123.45 357.43H1155.14C1161.54 357.43 1167.1 353.538 1167.1 345.198C1167.1 334.356 1157.37 323.236 1139.85 323.236C1121.78 323.236 1111.5 334.356 1111.5 345.198Z" fill="black"/>
  <path d="M248.914 695L247.802 693.888V551.552L248.914 550.44H282.552L283.664 551.552V693.888L282.552 695H248.914ZM247.524 534.038V501.512L248.636 500.4H282.83L283.942 501.512V534.038L282.83 535.15H248.636L247.524 534.038Z" fill="black"/>
  <path d="M362.332 699.448C325.08 699.448 305.342 675.818 302.84 650.52L303.952 649.408H337.59L338.702 650.52C339.536 662.474 349.544 671.092 363.444 671.092C375.12 671.092 383.46 666.088 383.46 656.08C383.46 633.562 306.454 641.624 306.454 591.306C306.454 566.008 327.582 545.992 361.498 545.992C389.854 545.992 415.43 561.56 419.044 592.14L417.932 593.252H384.016L382.904 592.14C382.07 581.02 372.618 574.07 360.108 574.07C348.988 574.07 340.648 578.518 340.648 588.804C340.648 612.156 417.932 604.372 417.932 654.134C417.932 678.598 397.916 699.448 362.332 699.448Z" fill="black"/>
  <path d="M494.315 695L493.203 693.888V501.512L494.315 500.4H581.607L582.719 501.512L616.357 644.126C618.859 654.968 623.863 660.25 632.481 660.25H633.593C643.045 660.25 647.771 654.134 647.771 642.736V501.512L648.883 500.4H682.521L683.633 501.512V693.888L682.521 695H595.507L594.395 693.888L561.035 550.996C558.255 540.154 553.529 534.872 544.911 534.872H543.799C534.347 534.872 528.787 541.266 528.787 552.664V693.888L527.675 695H494.315Z" fill="black"/>
  <path d="M779.512 699.17C734.754 699.17 708.622 664.976 708.622 620.496C708.622 573.792 738.368 546.27 777.288 546.27C815.93 546.27 843.452 572.958 843.452 611.878V631.06L842.34 632.172H764.222C754.492 632.172 748.376 636.064 748.376 644.404C748.376 655.802 758.94 668.59 778.678 668.59C794.802 668.59 807.034 659.694 809.536 645.238L810.648 644.126H844.008L845.12 645.238C839.56 678.32 814.262 699.17 779.512 699.17ZM748.376 595.198C748.376 603.538 753.936 607.43 760.33 607.43H792.022C798.416 607.43 803.976 603.538 803.976 595.198C803.976 584.356 794.246 573.236 776.732 573.236C758.662 573.236 748.376 584.356 748.376 595.198Z" fill="black"/>
  <path d="M884.503 695L883.391 693.888L853.367 551.552L854.479 550.44H888.951L890.063 551.552L905.353 632.728C906.743 640.512 910.357 644.404 916.195 644.404C922.033 644.404 926.203 640.234 927.315 632.728L940.659 551.552L941.771 550.44H995.981L997.093 551.552L1010.16 632.728C1011.55 640.234 1015.44 644.404 1021.28 644.404C1027.12 644.404 1030.73 640.512 1032.4 632.728L1047.69 551.552L1048.8 550.44H1082.99L1084.11 551.552L1054.08 693.888L1052.97 695H991.533L990.421 693.888L979.023 617.438C977.911 610.21 974.853 605.762 968.737 605.762C962.899 605.762 959.841 610.21 958.729 617.438L947.053 693.888L945.941 695H884.503Z" fill="black"/>
</svg>