<svg width="54" height="72" viewBox="0 0 54 72" fill="none" xmlns="http://www.w3.org/2000/svg">    <path d="M8.5 12.2124V60.8071C11.8114 60.9067 11.7662 58.4005 14.9781 58.4005C18.19 58.4005 18.1357 60.8162 21.3024 60.8162C24.469 60.8162 24.46 58.4005 27.6267 58.4005C30.7933 58.4005 30.7843 60.8162 33.951 60.8162C37.1176 60.8162 37.1086 58.4005 40.2752 58.4005C43.4419 58.4005 43.4419 60.7529 46.5 60.8071V12.2576C46.5 11.561 45.939 11 45.2424 11H9.71238C9.04286 11 8.5 11.5429 8.5 12.2124Z" fill="#1C1C1B"/>    <path d="M40.6194 24.1232L38.5 22L15.8928 44.6476L18.0123 46.7709L40.6194 24.1232Z" fill="white"/>    <path d="M23.5088 25.772C22.8106 25.5244 22.6416 25.2325 22.995 24.5327L23.9082 22.7369C23.956 22.643 23.8553 22.544 23.7631 22.5918L21.9673 23.505C21.2914 23.8567 20.9534 23.6877 20.728 22.9912L20.1033 21.0743C20.0708 20.9752 19.9292 20.9752 19.8967 21.0743L19.272 22.9912C19.0603 23.7065 18.6523 23.8225 18.0327 23.505L16.2369 22.5918C16.143 22.544 16.044 22.6447 16.0918 22.7369L17.005 24.5327C17.3311 25.154 17.1911 25.5381 16.4912 25.772L14.5743 26.3967C14.4752 26.4292 14.4752 26.5708 14.5743 26.6033L16.4912 27.228C17.1382 27.4551 17.3959 27.7879 17.005 28.4673L16.0918 30.2631C16.044 30.357 16.1447 30.456 16.2369 30.4082L18.0327 29.495C18.6574 29.1792 19.0142 29.2355 19.272 30.0088L19.8967 31.9257C19.9292 32.0248 20.0708 32.0248 20.1033 31.9257L20.728 30.0088C20.9739 29.3021 21.3067 29.1382 21.9673 29.495L23.7631 30.4082C23.857 30.456 23.956 30.3553 23.9082 30.2631L22.995 28.4673C22.6501 27.8392 22.7901 27.4926 23.5088 27.228L25.4257 26.6033C25.5248 26.5708 25.5248 26.4292 25.4257 26.3967L23.5088 25.772Z" fill="white"/>    <path d="M38.5088 43.772C37.8106 43.5244 37.6416 43.2325 37.995 42.5327L38.9082 40.7369C38.956 40.643 38.8553 40.544 38.7631 40.5918L36.9673 41.505C36.2914 41.8567 35.9534 41.6877 35.728 40.9912L35.1033 39.0743C35.0708 38.9752 34.9292 38.9752 34.8967 39.0743L34.272 40.9912C34.0603 41.7065 33.6523 41.8225 33.0327 41.505L31.2369 40.5918C31.143 40.544 31.044 40.6447 31.0918 40.7369L32.005 42.5327C32.3311 43.154 32.1911 43.5381 31.4912 43.772L29.5743 44.3967C29.4752 44.4292 29.4752 44.5708 29.5743 44.6033L31.4912 45.228C32.1382 45.4551 32.3959 45.7879 32.005 46.4673L31.0918 48.2631C31.044 48.357 31.1447 48.456 31.2369 48.4082L33.0327 47.495C33.6574 47.1792 34.0142 47.2355 34.272 48.0088L34.8967 49.9257C34.9292 50.0248 35.0708 50.0248 35.1033 49.9257L35.728 48.0088C35.9739 47.3021 36.3067 47.1382 36.9673 47.495L38.7631 48.4082C38.857 48.456 38.956 48.3553 38.9082 48.2631L37.995 46.4673C37.6501 45.8392 37.7901 45.4926 38.5088 45.228L40.4257 44.6033C40.5248 44.5708 40.5248 44.4292 40.4257 44.3967L38.5088 43.772Z" fill="white"/></svg>