<svg xmlns="http://www.w3.org/2000/svg" width="30" height="30" viewBox="0 0 30 30" fill="none">
  <path d="M22.3552 8.34558L21.6544 7.64485C21.4613 7.45172 21.1468 7.45172 20.9537 7.64485L17.1009 11.4976C15.9397 12.6589 14.0603 12.6589 12.8991 11.4976L9.0463 7.64485C8.85317 7.45172 8.53871 7.45172 8.34558 7.64485L7.64485 8.34558C7.45172 8.53871 7.45172 8.85317 7.64485 9.0463L11.4976 12.8991C12.6589 14.0603 12.6589 15.9397 11.4976 17.1009L7.64485 20.9537C7.45172 21.1468 7.45172 21.4613 7.64485 21.6544L8.34558 22.3552C8.53871 22.5483 8.85317 22.5483 9.0463 22.3552L12.8991 18.5024C14.0603 17.3411 15.9397 17.3411 17.1009 18.5024L20.9537 22.3552C21.1468 22.5483 21.4613 22.5483 21.6544 22.3552L22.3552 21.6544C22.5483 21.4613 22.5483 21.1468 22.3552 20.9537L18.5024 17.1009C17.3411 15.9397 17.3411 14.0603 18.5024 12.8991L22.3552 9.0463C22.5483 8.85317 22.5483 8.53871 22.3552 8.34558Z" fill="#1C1C1B"/>
</svg>