<svg width="24" height="24" viewBox="0 0 24 24" fill="none" xmlns="http://www.w3.org/2000/svg">
    <path d="M11.1875 19.7187L11.1875 11.5774C11.1875 10.5943 10.0866 10.0195 9.27406 10.578C8.07969 11.3987 6.65375 11.9085 5.11813 11.9898C4.88453 12.002 4.6875 11.8171 4.6875 11.5835V10.7832C4.6875 10.5598 4.87031 10.377 5.09375 10.377C8.36 10.1759 10.9864 7.54945 11.1875 4.2832C11.1875 4.05977 11.3703 3.87695 11.5938 3.87695H12.4062C12.6297 3.87695 12.8125 4.05977 12.8125 4.2832C12.8125 7.63477 15.5547 10.377 18.9062 10.377C19.1297 10.377 19.3125 10.5598 19.3125 10.7832V11.5835C19.3125 11.8171 19.1155 12.002 18.8819 11.9898C17.3462 11.9085 15.9203 11.3987 14.7259 10.578C13.9155 10.0215 12.8125 10.5943 12.8125 11.5774L12.8125 19.7187C12.8125 19.9421 12.6297 20.1249 12.4062 20.1249H11.5937C11.3703 20.1249 11.1875 19.9421 11.1875 19.7187Z" fill="white"/>
</svg>
