<svg width="405" height="36" viewBox="0 0 405 36" fill="none" xmlns="http://www.w3.org/2000/svg">
<style>
  .left{
    animation: left 7s infinite linear;
  }
  @keyframes left {
    0%{transform: translateX(0%);}
    100%{transform: translateX(-100%);}
  }
</style>
<rect width="405" height="36" rx="18" fill="#F74927"/>
<mask id="mask0_2076_177" style="mask-type:alpha" maskUnits="userSpaceOnUse" x="0" y="0" width="405" height="36">
<rect width="405" height="36" rx="18" fill="#F74927"/>
</mask>
<g mask="url(#mask0_2076_177)">
<path class="left" fill-rule="evenodd" clip-rule="evenodd" d="M-254.965 12.9V24.27H-249.745C-247.915 24.27 -246.625 22.89 -246.625 20.94C-246.625 19.935 -247.21 18.855 -248.035 18.315C-248.068 18.2929 -248.102 18.27 -248.137 18.2466C-248.244 18.1744 -248.357 18.0979 -248.47 18.03C-247.96 17.475 -247.615 16.68 -247.615 15.99C-247.615 14.175 -248.905 12.9 -250.735 12.9H-254.965ZM-250.165 22.32H-252.685V19.425H-250.165C-249.385 19.425 -248.905 20.01 -248.905 20.94C-248.905 21.795 -249.385 22.32 -250.165 22.32ZM-251.02 17.475H-252.685V14.85H-251.065C-250.33 14.85 -249.88 15.375 -249.88 16.215C-249.88 16.98 -250.315 17.46 -251.02 17.475ZM-238.795 16.725C-238.795 17.97 -239.47 18.6 -240.535 18.6H-242.695V14.85H-240.535C-239.47 14.85 -238.795 15.48 -238.795 16.725ZM-244.975 12.9V24.27H-242.695V20.55H-241.15L-238.704 24.27H-235.975L-238.689 20.145C-236.875 19.125 -236.515 17.985 -236.515 16.635C-236.515 14.355 -237.97 12.9 -240.04 12.9H-244.975ZM-223.687 24.27L-227.782 12.9H-230.542L-234.742 24.27H-232.312L-231.262 21.42H-227.137L-226.117 24.27H-223.687ZM-227.842 19.47H-230.542L-229.162 15.735L-227.842 19.47ZM-212.522 24.27V12.9H-214.802V20.49L-219.617 12.9H-222.197V24.27H-219.917V16.695L-215.102 24.27H-212.522ZM-203.251 18.585C-203.251 20.865 -204.571 22.29 -206.686 22.29L-208.036 22.275V14.895L-206.686 14.88C-204.571 14.88 -203.251 16.305 -203.251 18.585ZM-210.316 12.9V24.27H-206.641C-203.311 24.27 -200.971 21.93 -200.971 18.585C-200.971 15.24 -203.311 12.9 -206.641 12.9H-210.316ZM-187.976 14.85V12.9H-195.731V24.27H-187.976V22.32H-193.451V19.395H-188.771V17.445H-193.451V14.85H-187.976ZM-178.763 24.27H-175.883L-179.783 18.57L-175.883 12.9L-178.763 12.915L-181.208 16.665L-183.698 12.9H-186.578L-182.663 18.57L-186.578 24.27H-183.698L-181.208 20.49L-178.763 24.27ZM-175.398 18.585C-175.398 21.99 -173.088 24.39 -169.788 24.39C-168.048 24.42 -166.833 23.73 -165.828 22.695L-167.388 21.18C-167.823 21.78 -168.603 22.41 -169.803 22.41C-171.843 22.41 -173.118 20.94 -173.118 18.585C-173.118 16.215 -171.843 14.745 -169.803 14.76C-168.783 14.76 -167.808 15.3 -167.283 16.08L-165.828 14.475C-166.833 13.44 -168.228 12.78 -169.788 12.78C-173.088 12.765 -175.398 15.165 -175.398 18.585ZM-161.924 22.32V12.9H-164.204V24.27H-157.109V22.32H-161.924ZM-155.765 19.68C-155.765 22.44 -154.07 24.375 -151.22 24.375C-148.37 24.375 -146.675 22.44 -146.675 19.68V12.9H-148.955V19.65C-148.955 21.24 -149.645 22.245 -151.22 22.245C-152.795 22.245 -153.485 21.24 -153.485 19.65V12.9H-155.765V19.68ZM-141.082 22.47C-141.712 22.47 -142.522 22.185 -143.317 20.715L-145.162 21.765C-144.187 23.385 -142.777 24.405 -141.082 24.405C-138.487 24.405 -136.927 23.025 -136.927 21.045C-136.927 18.9117 -138.752 18.2073 -140.292 17.6129C-141.415 17.1791 -142.387 16.804 -142.387 15.975C-142.387 15.285 -141.877 14.715 -140.842 14.715C-140.347 14.715 -139.627 14.97 -139.102 16.29L-137.107 15.555C-137.872 13.56 -139.567 12.78 -140.842 12.78C-143.107 12.78 -144.652 14.01 -144.652 15.975C-144.652 18.3053 -142.776 18.9653 -141.223 19.5115C-140.127 19.897 -139.192 20.2257 -139.192 21.045C-139.192 21.87 -139.717 22.47 -141.082 22.47ZM-132.787 12.9H-135.067V24.27H-132.787V12.9ZM-127.155 24.27H-124.395L-120.63 12.9H-123.03L-125.805 21.3L-128.82 12.9H-131.25L-127.155 24.27ZM-111.525 14.85V12.9H-119.28V24.27H-111.525V22.32H-117V19.395H-112.32V17.445H-117V14.85H-111.525ZM-98.7081 14.85V12.9H-106.463V24.27H-98.7081V22.32H-104.183V19.395H-99.5031V17.445H-104.183V14.85H-98.7081ZM-89.7113 18.585C-89.7113 20.865 -91.0313 22.29 -93.1463 22.29L-94.4963 22.275V14.895L-93.1463 14.88C-91.0313 14.88 -89.7113 16.305 -89.7113 18.585ZM-96.7763 12.9V24.27H-93.1013C-89.7713 24.27 -87.4313 21.93 -87.4313 18.585C-87.4313 15.24 -89.7713 12.9 -93.1013 12.9H-96.7763ZM-83.4806 12.9H-85.7606V24.27H-83.4806V12.9ZM-73.4158 14.85V12.9H-81.6958V14.85H-78.6658V24.27H-76.3858V14.85H-73.4158ZM-69.3449 12.9H-71.6249V24.27H-69.3449V12.9ZM-58.403 18.585C-58.403 20.94 -59.738 22.41 -61.883 22.41C-64.028 22.41 -65.363 20.94 -65.363 18.585C-65.363 16.23 -64.028 14.76 -61.883 14.76C-59.738 14.76 -58.403 16.23 -58.403 18.585ZM-61.883 12.78C-65.258 12.78 -67.643 15.18 -67.643 18.585C-67.643 21.99 -65.258 24.39 -61.883 24.39C-58.508 24.39 -56.123 21.99 -56.123 18.585C-56.123 15.18 -58.508 12.78 -61.883 12.78ZM-47.3776 24.27H-44.7976V12.9H-47.0776V20.49L-51.8926 12.9H-54.4726V24.27H-52.1926V16.695L-47.3776 24.27ZM-33.4803 15.3615L-34.5001 13L-35.5198 15.3615L-37.7329 14.0504L-37.1698 16.5603L-39.7309 16.8004L-37.8001 18.5L-39.7309 20.1996L-37.1698 20.4397L-37.7329 22.9496L-35.5198 21.6385L-34.5001 24L-33.4803 21.6385L-31.2673 22.9496L-31.8303 20.4397L-29.2693 20.1996L-31.2001 18.5L-29.2693 16.8004L-31.8303 16.5603L-31.2673 14.0504L-33.4803 15.3615ZM-24.9651 12.9H-20.7351C-18.9051 12.9 -17.6151 14.175 -17.6151 15.99C-17.6151 16.68 -17.9601 17.475 -18.4701 18.03C-18.3568 18.0979 -18.2436 18.1744 -18.1368 18.2466L-18.1367 18.2466L-18.136 18.2471C-18.1016 18.2703 -18.0679 18.2931 -18.0351 18.315C-17.2101 18.855 -16.6251 19.935 -16.6251 20.94C-16.6251 22.89 -17.9151 24.27 -19.7451 24.27H-24.9651V12.9ZM-22.6851 22.32H-20.1651C-19.3851 22.32 -18.9051 21.795 -18.9051 20.94C-18.9051 20.01 -19.3851 19.425 -20.1651 19.425H-22.6851V22.32ZM-22.6851 17.475H-21.0201C-20.3151 17.46 -19.8801 16.98 -19.8801 16.215C-19.8801 15.375 -20.3301 14.85 -21.0651 14.85H-22.6851V17.475ZM-10.5345 18.6C-9.46951 18.6 -8.79451 17.97 -8.79451 16.725C-8.79451 15.48 -9.46951 14.85 -10.5345 14.85H-12.6945V18.6H-10.5345ZM-14.9745 24.27V12.9H-10.0395C-7.96951 12.9 -6.51451 14.355 -6.51451 16.635C-6.51451 17.985 -6.87451 19.125 -8.68951 20.145L-5.97451 24.27H-8.7045L-11.1495 20.55H-12.6945V24.27H-14.9745ZM6.31342 24.27H3.88342L2.86342 21.42H-1.26158L-2.31158 24.27H-4.74158L-0.541576 12.9H2.21842L6.31342 24.27ZM-0.541576 19.47H2.15842L0.838424 15.735L-0.541576 19.47ZM17.4778 24.27H14.8978L10.0828 16.695V24.27H7.80276V12.9H10.3828L15.1978 20.49V12.9H17.4778V24.27ZM23.3137 22.29C25.4287 22.29 26.7487 20.865 26.7487 18.585C26.7487 16.305 25.4287 14.88 23.3137 14.88L21.9637 14.895V22.275L23.3137 22.29ZM19.6837 24.27V12.9H23.3587C26.6887 12.9 29.0287 15.24 29.0287 18.585C29.0287 21.93 26.6887 24.27 23.3587 24.27H19.6837ZM42.0243 12.9V14.85H36.5493V17.445H41.2293V19.395H36.5493V22.32H42.0243V24.27H34.2693V12.9H42.0243ZM54.1175 24.27H51.2375L48.7925 20.49L46.3025 24.27H43.4225L47.3375 18.57L43.4225 12.9H46.3025L48.7925 16.665L51.2375 12.915L54.1175 12.9L50.2175 18.57L54.1175 24.27ZM60.2121 24.39C56.9121 24.39 54.6021 21.99 54.6021 18.585C54.6021 15.165 56.9121 12.765 60.2121 12.78C61.7721 12.78 63.1671 13.44 64.1721 14.475L62.7171 16.08C62.1921 15.3 61.2171 14.76 60.1971 14.76C58.1571 14.745 56.8821 16.215 56.8821 18.585C56.8821 20.94 58.1571 22.41 60.1971 22.41C61.3971 22.41 62.1771 21.78 62.6121 21.18L64.1721 22.695C63.1671 23.73 61.9521 24.42 60.2121 24.39ZM68.0763 12.9V22.32H72.8913V24.27H65.7963V12.9H68.0763ZM78.7798 24.375C75.9298 24.375 74.2348 22.44 74.2348 19.68V12.9H76.5148V19.65C76.5148 21.24 77.2048 22.245 78.7798 22.245C80.3548 22.245 81.0448 21.24 81.0448 19.65V12.9H83.3248V19.68C83.3248 22.44 81.6298 24.375 78.7798 24.375ZM86.6828 20.715C87.4778 22.185 88.2878 22.47 88.9178 22.47C90.2828 22.47 90.8078 21.87 90.8078 21.045C90.8078 20.2257 89.8731 19.897 88.7772 19.5115C87.2243 18.9653 85.3478 18.3053 85.3478 15.975C85.3478 14.01 86.8928 12.78 89.1578 12.78C90.4328 12.78 92.1278 13.56 92.8928 15.555L90.8978 16.29C90.3728 14.97 89.6528 14.715 89.1578 14.715C88.1228 14.715 87.6128 15.285 87.6128 15.975C87.6128 16.804 88.5846 17.1791 89.7082 17.6129C91.248 18.2073 93.0728 18.9117 93.0728 21.045C93.0728 23.025 91.5128 24.405 88.9178 24.405C87.2228 24.405 85.8128 23.385 84.8378 21.765L86.6828 20.715ZM94.9327 12.9H97.2127V24.27H94.9327V12.9ZM105.605 24.27H102.845L98.7496 12.9H101.18L104.195 21.3L106.97 12.9H109.37L105.605 24.27ZM118.475 12.9V14.85H113V17.445H117.68V19.395H113V22.32H118.475V24.27H110.72V12.9H118.475ZM131.292 12.9V14.85H125.817V17.445H130.497V19.395H125.817V22.32H131.292V24.27H123.537V12.9H131.292ZM136.854 22.29C138.969 22.29 140.289 20.865 140.289 18.585C140.289 16.305 138.969 14.88 136.854 14.88L135.504 14.895V22.275L136.854 22.29ZM133.224 24.27V12.9H136.899C140.229 12.9 142.569 15.24 142.569 18.585C142.569 21.93 140.229 24.27 136.899 24.27H133.224ZM144.239 12.9H146.519V24.27H144.239V12.9ZM156.584 12.9V14.85H153.614V24.27H151.334V14.85H148.304V12.9H156.584ZM158.375 12.9H160.655V24.27H158.375V12.9ZM168.117 22.41C170.262 22.41 171.597 20.94 171.597 18.585C171.597 16.23 170.262 14.76 168.117 14.76C165.972 14.76 164.637 16.23 164.637 18.585C164.637 20.94 165.972 22.41 168.117 22.41ZM162.357 18.585C162.357 15.18 164.742 12.78 168.117 12.78C171.492 12.78 173.877 15.18 173.877 18.585C173.877 21.99 171.492 24.39 168.117 24.39C164.742 24.39 162.357 21.99 162.357 18.585ZM185.202 24.27H182.622L177.807 16.695V24.27H175.527V12.9H178.107L182.922 20.49V12.9H185.202V24.27ZM196.52 15.3615L195.5 13L194.48 15.3615L192.267 14.0504L192.83 16.5603L190.269 16.8004L192.2 18.5L190.269 20.1996L192.83 20.4397L192.267 22.9496L194.48 21.6385L195.5 24L196.52 21.6385L198.733 22.9496L198.17 20.4397L200.731 20.1996L198.8 18.5L200.731 16.8004L198.17 16.5603L198.733 14.0504L196.52 15.3615ZM205.035 12.9H209.265C211.095 12.9 212.385 14.175 212.385 15.99C212.385 16.68 212.04 17.475 211.53 18.03C211.643 18.0979 211.756 18.1744 211.863 18.2466L211.865 18.248C211.899 18.2709 211.932 18.2934 211.965 18.315C212.79 18.855 213.375 19.935 213.375 20.94C213.375 22.89 212.085 24.27 210.255 24.27H205.035V12.9ZM207.315 22.32H209.835C210.615 22.32 211.095 21.795 211.095 20.94C211.095 20.01 210.615 19.425 209.835 19.425H207.315V22.32ZM207.315 17.475H208.98C209.685 17.46 210.12 16.98 210.12 16.215C210.12 15.375 209.67 14.85 208.935 14.85H207.315V17.475ZM219.465 18.6C220.53 18.6 221.205 17.97 221.205 16.725C221.205 15.48 220.53 14.85 219.465 14.85H217.305V18.6H219.465ZM215.025 24.27V12.9H219.96C222.03 12.9 223.485 14.355 223.485 16.635C223.485 17.985 223.125 19.125 221.311 20.145L224.025 24.27H221.296L218.85 20.55H217.305V24.27H215.025ZM236.313 24.27H233.883L232.863 21.42H228.738L227.688 24.27H225.258L229.458 12.9H232.218L236.313 24.27ZM229.458 19.47H232.158L230.838 15.735L229.458 19.47ZM247.478 24.27H244.898L240.083 16.695V24.27H237.803V12.9H240.383L245.198 20.49V12.9H247.478V24.27ZM253.314 22.29C255.429 22.29 256.749 20.865 256.749 18.585C256.749 16.305 255.429 14.88 253.314 14.88L251.964 14.895V22.275L253.314 22.29ZM249.684 24.27V12.9H253.359C256.689 12.9 259.029 15.24 259.029 18.585C259.029 21.93 256.689 24.27 253.359 24.27H249.684ZM272.024 12.9V14.85H266.549V17.445H271.229V19.395H266.549V22.32H272.024V24.27H264.269V12.9H272.024ZM284.117 24.27H281.237L278.792 20.49L276.302 24.27H273.422L277.337 18.57L273.422 12.9H276.302L278.792 16.665L281.237 12.915L284.117 12.9L280.217 18.57L284.117 24.27ZM290.212 24.39C286.912 24.39 284.602 21.99 284.602 18.585C284.602 15.165 286.912 12.765 290.212 12.78C291.772 12.78 293.167 13.44 294.172 14.475L292.717 16.08C292.192 15.3 291.217 14.76 290.197 14.76C288.157 14.745 286.882 16.215 286.882 18.585C286.882 20.94 288.157 22.41 290.197 22.41C291.397 22.41 292.177 21.78 292.612 21.18L294.172 22.695C293.167 23.73 291.952 24.42 290.212 24.39ZM298.076 12.9V22.32H302.891V24.27H295.796V12.9H298.076ZM308.78 24.375C305.93 24.375 304.235 22.44 304.235 19.68V12.9H306.515V19.65C306.515 21.24 307.205 22.245 308.78 22.245C310.355 22.245 311.045 21.24 311.045 19.65V12.9H313.325V19.68C313.325 22.44 311.63 24.375 308.78 24.375ZM316.683 20.715C317.478 22.185 318.288 22.47 318.918 22.47C320.283 22.47 320.808 21.87 320.808 21.045C320.808 20.2257 319.873 19.897 318.777 19.5115C317.224 18.9653 315.348 18.3053 315.348 15.975C315.348 14.01 316.893 12.78 319.158 12.78C320.433 12.78 322.128 13.56 322.893 15.555L320.898 16.29C320.373 14.97 319.653 14.715 319.158 14.715C318.123 14.715 317.613 15.285 317.613 15.975C317.613 16.804 318.585 17.1791 319.708 17.6129C321.248 18.2073 323.073 18.9117 323.073 21.045C323.073 23.025 321.513 24.405 318.918 24.405C317.223 24.405 315.813 23.385 314.838 21.765L316.683 20.715ZM324.933 12.9H327.213V24.27H324.933V12.9ZM335.605 24.27H332.845L328.75 12.9H331.18L334.195 21.3L336.97 12.9H339.37L335.605 24.27ZM348.475 12.9V14.85H343V17.445H347.68V19.395H343V22.32H348.475V24.27H340.72V12.9H348.475ZM361.292 12.9V14.85H355.817V17.445H360.497V19.395H355.817V22.32H361.292V24.27H353.537V12.9H361.292ZM366.854 22.29C368.969 22.29 370.289 20.865 370.289 18.585C370.289 16.305 368.969 14.88 366.854 14.88L365.504 14.895V22.275L366.854 22.29ZM363.224 24.27V12.9H366.899C370.229 12.9 372.569 15.24 372.569 18.585C372.569 21.93 370.229 24.27 366.899 24.27H363.224ZM374.239 12.9H376.519V24.27H374.239V12.9ZM386.584 12.9V14.85H383.614V24.27H381.334V14.85H378.304V12.9H386.584ZM388.375 12.9H390.655V24.27H388.375V12.9ZM398.117 22.41C400.262 22.41 401.597 20.94 401.597 18.585C401.597 16.23 400.262 14.76 398.117 14.76C395.972 14.76 394.637 16.23 394.637 18.585C394.637 20.94 395.972 22.41 398.117 22.41ZM392.357 18.585C392.357 15.18 394.742 12.78 398.117 12.78C401.492 12.78 403.877 15.18 403.877 18.585C403.877 21.99 401.492 24.39 398.117 24.39C394.742 24.39 392.357 21.99 392.357 18.585ZM415.202 24.27H412.622L407.807 16.695V24.27H405.527V12.9H408.107L412.922 20.49V12.9H415.202V24.27ZM426.52 15.3615L425.5 13L424.48 15.3615L422.267 14.0504L422.83 16.5603L420.269 16.8004L422.2 18.5L420.269 20.1996L422.83 20.4397L422.267 22.9496L424.48 21.6385L425.5 24L426.52 21.6385L428.733 22.9496L428.17 20.4397L430.731 20.1996L428.8 18.5L430.731 16.8004L428.17 16.5603L428.733 14.0504L426.52 15.3615ZM435.035 12.9H439.265C441.095 12.9 442.385 14.175 442.385 15.99C442.385 16.68 442.04 17.475 441.53 18.03C441.643 18.0979 441.756 18.1743 441.863 18.2464C441.898 18.2699 441.932 18.2929 441.965 18.315C442.79 18.855 443.375 19.935 443.375 20.94C443.375 22.89 442.085 24.27 440.255 24.27H435.035V12.9ZM437.315 22.32H439.835C440.615 22.32 441.095 21.795 441.095 20.94C441.095 20.01 440.615 19.425 439.835 19.425H437.315V22.32ZM437.315 17.475H438.98C439.685 17.46 440.12 16.98 440.12 16.215C440.12 15.375 439.67 14.85 438.935 14.85H437.315V17.475ZM449.465 18.6C450.53 18.6 451.206 17.97 451.206 16.725C451.206 15.48 450.53 14.85 449.465 14.85H447.305V18.6H449.465ZM445.025 24.27V12.9H449.96C452.03 12.9 453.486 14.355 453.486 16.635C453.486 17.985 453.125 19.125 451.31 20.145L454.025 24.27H451.296L448.85 20.55H447.305V24.27H445.025ZM466.313 24.27H463.883L462.863 21.42H458.738L457.688 24.27H455.258L459.458 12.9H462.218L466.313 24.27ZM459.458 19.47H462.158L460.838 15.735L459.458 19.47ZM477.478 24.27H474.898L470.083 16.695V24.27H467.803V12.9H470.383L475.198 20.49V12.9H477.478V24.27ZM483.314 22.29C485.429 22.29 486.749 20.865 486.749 18.585C486.749 16.305 485.429 14.88 483.314 14.88L481.964 14.895V22.275L483.314 22.29ZM479.684 24.27V12.9H483.359C486.689 12.9 489.029 15.24 489.029 18.585C489.029 21.93 486.689 24.27 483.359 24.27H479.684ZM502.024 12.9V14.85H496.549V17.445H501.229V19.395H496.549V22.32H502.024V24.27H494.269V12.9H502.024ZM514.117 24.27H511.237L508.792 20.49L506.302 24.27H503.422L507.337 18.57L503.422 12.9H506.302L508.792 16.665L511.237 12.915L514.117 12.9L510.217 18.57L514.117 24.27ZM520.212 24.39C516.912 24.39 514.602 21.99 514.602 18.585C514.602 15.165 516.912 12.765 520.212 12.78C521.772 12.78 523.167 13.44 524.172 14.475L522.717 16.08C522.192 15.3 521.217 14.76 520.197 14.76C518.157 14.745 516.882 16.215 516.882 18.585C516.882 20.94 518.157 22.41 520.197 22.41C521.397 22.41 522.177 21.78 522.612 21.18L524.172 22.695C523.167 23.73 521.952 24.42 520.212 24.39ZM528.076 12.9V22.32H532.891V24.27H525.796V12.9H528.076ZM538.78 24.375C535.93 24.375 534.235 22.44 534.235 19.68V12.9H536.515V19.65C536.515 21.24 537.205 22.245 538.78 22.245C540.355 22.245 541.045 21.24 541.045 19.65V12.9H543.325V19.68C543.325 22.44 541.63 24.375 538.78 24.375ZM546.683 20.715C547.478 22.185 548.288 22.47 548.918 22.47C550.283 22.47 550.808 21.87 550.808 21.045C550.808 20.2257 549.873 19.897 548.777 19.5115C547.224 18.9653 545.348 18.3053 545.348 15.975C545.348 14.01 546.893 12.78 549.158 12.78C550.433 12.78 552.128 13.56 552.893 15.555L550.898 16.29C550.373 14.97 549.653 14.715 549.158 14.715C548.123 14.715 547.613 15.285 547.613 15.975C547.613 16.804 548.585 17.1791 549.708 17.6129C551.248 18.2073 553.073 18.9117 553.073 21.045C553.073 23.025 551.513 24.405 548.918 24.405C547.223 24.405 545.813 23.385 544.838 21.765L546.683 20.715ZM554.933 12.9H557.213V24.27H554.933V12.9ZM565.605 24.27H562.845L558.75 12.9H561.18L564.195 21.3L566.97 12.9H569.37L565.605 24.27ZM578.475 12.9V14.85H573V17.445H577.68V19.395H573V22.32H578.475V24.27H570.72V12.9H578.475ZM591.292 12.9V14.85H585.817V17.445H590.497V19.395H585.817V22.32H591.292V24.27H583.537V12.9H591.292ZM596.854 22.29C598.969 22.29 600.289 20.865 600.289 18.585C600.289 16.305 598.969 14.88 596.854 14.88L595.504 14.895V22.275L596.854 22.29ZM593.224 24.27V12.9H596.899C600.229 12.9 602.569 15.24 602.569 18.585C602.569 21.93 600.229 24.27 596.899 24.27H593.224ZM604.239 12.9H606.519V24.27H604.239V12.9ZM616.584 12.9V14.85H613.614V24.27H611.334V14.85H608.304V12.9H616.584ZM618.375 12.9H620.655V24.27H618.375V12.9ZM628.117 22.41C630.262 22.41 631.597 20.94 631.597 18.585C631.597 16.23 630.262 14.76 628.117 14.76C625.972 14.76 624.637 16.23 624.637 18.585C624.637 20.94 625.972 22.41 628.117 22.41ZM622.357 18.585C622.357 15.18 624.742 12.78 628.117 12.78C631.492 12.78 633.877 15.18 633.877 18.585C633.877 21.99 631.492 24.39 628.117 24.39C624.742 24.39 622.357 21.99 622.357 18.585ZM645.202 24.27H642.622L637.807 16.695V24.27H635.527V12.9H638.107L642.922 20.49V12.9H645.202V24.27ZM656.52 15.3615L655.5 13L654.48 15.3615L652.267 14.0504L652.83 16.5603L650.269 16.8004L652.2 18.5L650.269 20.1996L652.83 20.4397L652.267 22.9496L654.48 21.6385L655.5 24L656.52 21.6385L658.733 22.9496L658.17 20.4397L660.731 20.1996L658.8 18.5L660.731 16.8004L658.17 16.5603L658.733 14.0504L656.52 15.3615Z" fill="black"/>
</g>
</svg>
