<svg width="30" height="30" viewBox="0 0 30 30" fill="none" xmlns="http://www.w3.org/2000/svg">
<path d="M13.8287 13.8281L3.39844 13.8281C3.11914 13.8281 2.89062 14.0566 2.89062 14.3359V15.3516C2.89062 15.6309 3.11914 15.8594 3.39844 15.8594L13.8287 15.8594C14.6133 15.8594 15.0957 16.7074 14.7021 17.3879C14.1816 18.2842 13.8516 19.3074 13.7703 20.3941C13.7475 20.6887 13.9836 20.9375 14.2781 20.9375H15.2734C15.5527 20.9375 15.7812 20.709 15.7812 20.4297C16.0199 18.0303 17.9496 16.098 20.3516 15.8594C20.6309 15.8594 20.8594 15.6309 20.8594 15.3516V14.3359C20.8594 14.0566 20.6309 13.8281 20.3516 13.8281C17.9496 13.5895 16.0199 11.6572 15.7812 9.25781C15.7812 8.97852 15.5527 8.75 15.2734 8.75H14.2781C13.9836 8.75 13.7475 8.99883 13.7703 9.29336C13.8541 10.3826 14.1816 11.4033 14.7021 12.2996C15.0957 12.9775 14.6133 13.8281 13.8287 13.8281Z" fill="#1C1C1B"/>
<path d="M11.75 5.75342H21.25C22.9075 5.75342 24.25 7.09822 24.25 8.75856V21.2414C24.25 22.9018 22.9075 24.2466 21.25 24.2466H11.75C11.475 24.2466 11.25 24.472 11.25 24.7474V25.7491C11.25 26.0246 11.475 26.25 11.75 26.25H25.75C26.025 26.25 26.25 26.0246 26.25 25.7491V4.25085C26.25 3.97538 26.025 3.75 25.75 3.75H11.75C11.475 3.75 11.25 3.97538 11.25 4.25085V5.25257C11.25 5.52804 11.475 5.75342 11.75 5.75342Z" fill="#1C1C1B"/>
</svg>
