<svg width="30" height="30" viewBox="0 0 30 30" fill="none" xmlns="http://www.w3.org/2000/svg">
    <path d="M3.06818 8.75C2.75438 8.75 2.5 9.02982 2.5 9.375V10.625C2.5 10.9702 2.75438 11.25 3.06818 11.25H26.9318C27.2456 11.25 27.5 10.9702 27.5 10.625V9.375C27.5 9.02982 27.2456 8.75 26.9318 8.75H3.06818Z" fill="#1C1C1B"/>
    <path d="M3.06818 18.75C2.75438 18.75 2.5 19.0298 2.5 19.375V20.625C2.5 20.9702 2.75438 21.25 3.06818 21.25H22.3864C22.7002 21.25 22.9545 20.9702 22.9545 20.625V19.375C22.9545 19.0298 22.7002 18.75 22.3864 18.75H3.06818Z" fill="#1C1C1B"/>
</svg>
