<svg width="30" height="30" viewBox="0 0 30 30" fill="none" xmlns="http://www.w3.org/2000/svg">
    <path d="M24.8406 24.5487L21.1355 20.8436C20.1738 19.8819 19.9286 18.4326 20.4708 17.1848C21.0729 15.7982 21.3099 14.2562 21.1273 12.6761C20.9448 11.096 20.3128 9.56494 19.3129 8.31448C17.395 5.91163 14.4718 4.70476 11.4151 5.06164C9.83767 5.2469 8.32838 5.87077 7.08336 6.85969C4.66687 8.77761 3.45453 11.709 3.81142 14.7738C3.99395 16.3294 4.60421 17.8196 5.56862 19.0537C7.26589 21.2223 9.77229 22.4373 12.4667 22.4373C13.7062 22.4373 14.9022 22.1812 16.0029 21.6909C17.2206 21.1487 18.6509 21.4429 19.5935 22.3856L23.2986 26.0906C23.5111 26.3031 23.8571 26.3031 24.0696 26.0906L24.8406 25.3196C25.0531 25.1071 25.0531 24.7612 24.8406 24.5487ZM12.4694 20.2551C10.7231 20.2551 9.0803 19.5741 7.84617 18.34C6.61205 17.1058 5.93096 15.4631 5.93096 13.7168C5.93096 11.9705 6.61205 10.3277 7.84617 9.09363C9.0803 7.85952 10.7231 7.17844 12.4694 7.17844C14.2157 7.17844 15.8585 7.85952 17.0926 9.09363C18.3267 10.3277 19.0078 11.9705 19.0078 13.7168C19.0078 15.4631 18.3267 17.1058 17.0926 18.34C15.8585 19.5741 14.2157 20.2551 12.4694 20.2551Z" fill="#1C1C1B"/>
</svg>
