<svg width="30" height="30" viewBox="0 0 30 30" fill="none" xmlns="http://www.w3.org/2000/svg">
<path d="M25.8011 10.8352C25.009 10.0431 23.6889 8.76251 22.5403 7.64036C21.3785 6.505 20.3752 5.51487 20.2036 5.35645C20.0584 5.19803 19.8603 5.07921 19.6227 5.0264C19.5435 5.0132 19.4511 5 19.3719 5H3.59575C3.01487 5 2.5 5.51487 2.5 6.09575V21.7523C2.5 22.3332 3.01487 22.8481 3.59575 22.8481H5.66843C6.07768 24.4719 7.52988 25.6865 9.27251 25.6865C11.0151 25.6865 12.4805 24.4719 12.8766 22.8481H15.9526C16.3619 24.4719 17.8141 25.6865 19.5567 25.6865C21.2993 25.6865 22.7647 24.4719 23.1608 22.8481H25.1278C25.7087 22.8481 26.25 22.3068 26.25 21.7259V11.9177C26.25 11.4953 26.0916 11.1124 25.8011 10.822V10.8352ZM10.5795 22.8613C10.289 23.2837 9.82699 23.5874 9.27251 23.5874C8.71804 23.5874 8.25598 23.2969 7.96554 22.8613C7.79391 22.5972 7.6619 22.3068 7.6619 21.9636C7.6619 21.4751 7.89953 21.0394 8.24277 20.749C8.52001 20.5114 8.87646 20.3529 9.27251 20.3529C9.66857 20.3529 10.025 20.5114 10.3023 20.749C10.6587 21.0394 10.8831 21.4751 10.8831 21.9636C10.8831 22.3068 10.7511 22.5972 10.5795 22.8613ZM16.0582 20.749H12.771C12.2693 19.2968 10.8963 18.2406 9.27251 18.2406C7.64869 18.2406 6.34172 19.244 5.81365 20.6566C5.11395 20.4057 4.61228 19.7457 4.61228 18.9667V8.92093C4.61228 7.91759 5.41759 7.11228 6.42093 7.11228H17.7217C18.5402 7.11228 19.3191 7.42913 19.9131 8.01001C20.23 8.32685 20.6128 8.6965 21.0749 9.14536C21.8274 9.88466 22.6327 10.6768 23.3324 11.3633C23.8605 11.8781 24.1509 12.5778 24.1509 13.3171V17.541V18.9667C24.1509 19.7192 23.6889 20.3661 23.0288 20.6434C22.4875 19.2572 21.1541 18.2539 19.5831 18.2539C18.0121 18.2539 16.5863 19.31 16.0846 20.7622L16.0582 20.749ZM20.8637 22.8613C20.5732 23.2837 20.1112 23.5874 19.5567 23.5874C19.0022 23.5874 18.5402 23.2969 18.2497 22.8613C18.0781 22.5972 17.9461 22.3068 17.9461 21.9636C17.9461 21.4751 18.1837 21.0394 18.527 20.749C18.8042 20.5114 19.1606 20.3529 19.5567 20.3529C19.9528 20.3529 20.3092 20.5114 20.5864 20.749C20.9429 21.0394 21.1673 21.4751 21.1673 21.9636C21.1673 22.3068 21.0353 22.5972 20.8637 22.8613Z" fill="#1C1C1B"/>
</svg>
