<svg width="30" height="30" viewBox="0 0 30 30" fill="none" xmlns="http://www.w3.org/2000/svg">
    <path d="M21.4457 7.61364C20.8632 7.61364 20.3316 7.26832 20.1083 6.73224C19.3777 4.98153 17.6421 3.75 15.6226 3.75C13.603 3.75 11.8675 4.98395 11.1368 6.73224C10.9135 7.26832 10.3819 7.61364 9.79937 7.61364H5.48599C5.19714 7.61364 4.97139 7.86477 5.00295 8.14972L6.83802 24.5702C6.86472 24.8141 7.07347 25 7.32106 25H23.9289C24.1765 25 24.3853 24.8141 24.412 24.5702L26.247 8.14972C26.2786 7.86477 26.0528 7.61364 25.764 7.61364H21.4506H21.4457ZM15.6226 5.68182C16.5717 5.68182 17.4164 6.1358 17.9455 6.83849C18.1858 7.15724 17.9577 7.61364 17.5572 7.61364H13.688C13.2875 7.61364 13.0569 7.15724 13.2996 6.83849C13.8312 6.1358 14.6735 5.68182 15.6226 5.68182ZM20.016 23.0682H11.2291C9.74597 23.0682 8.49832 21.9574 8.33326 20.4916L7.2895 11.1561C7.19484 10.2989 7.86964 9.54787 8.7362 9.54787H9.30905C10.1125 9.54787 10.7655 10.1974 10.7655 10.9967V11.4797C10.7655 12.0134 11.1999 12.4456 11.7364 12.4456C12.2728 12.4456 12.7073 12.0134 12.7073 11.4797V10.9967C12.7073 10.1974 13.3603 9.54787 14.1637 9.54787H17.0765C17.88 9.54787 18.5329 10.1974 18.5329 10.9967V11.4797C18.5329 12.0134 18.9674 12.4456 19.5039 12.4456C20.0403 12.4456 20.4748 12.0134 20.4748 11.4797V10.9967C20.4748 10.1974 21.1278 9.54787 21.9312 9.54787H22.5041C23.3731 9.54787 24.0479 10.2989 23.9508 11.1561L22.907 20.4916C22.7419 21.9598 21.4967 23.0682 20.0112 23.0682H20.016Z" fill="#1C1C1B"/>
</svg>
