<svg width="128" height="14" viewBox="0 0 128 14" fill="none" xmlns="http://www.w3.org/2000/svg">
<g clip-path="url(#clip0_125_8680)">
<path d="M7.30821 0.236813L8.2006 3.23878C8.5389 4.37579 9.54794 5.14417 10.6838 5.13017L13.6745 5.08973C13.9895 5.08506 14.1207 5.50969 13.8641 5.70101L11.4188 7.52552C10.4957 8.21457 10.1122 9.4558 10.4739 10.5819L11.4319 13.5543C11.5325 13.867 11.1898 14.1283 10.9361 13.9323L8.53015 12.0596C7.62172 11.3519 6.37791 11.3519 5.46948 12.0596L3.06353 13.9323C2.81126 14.1283 2.46714 13.867 2.56775 13.5543L3.52576 10.5819C3.88884 9.4558 3.50535 8.21301 2.58088 7.52552L0.135551 5.70101C-0.121084 5.50969 0.0116076 5.08662 0.325111 5.08973L3.31579 5.13017C4.45169 5.14572 5.46073 4.37579 5.79902 3.23878L6.69141 0.236813C6.78474 -0.0789377 7.21052 -0.0789377 7.30384 0.236813H7.30821Z" fill="#F74927"/>
</g>
<path d="M48.1046 1C46.456 1 45.6252 2.09993 45.2493 2.82002C45.0712 3.1616 44.9077 3.13918 44.7468 2.82002C44.3802 2.09729 43.5427 1 41.8902 1C39.7576 1 38.5996 2.54174 38.5996 4.53321C38.5996 6.6513 39.9488 7.8264 40.7322 8.56628C41.5156 9.30615 42.4731 10.0249 43.54 11.1987C44.2707 12.0019 44.6835 12.6033 44.8734 12.9C44.9631 13.0398 45.0422 13.0266 45.1227 12.9C45.3113 12.6033 45.7254 12.0019 46.456 11.1987C47.523 10.0249 48.4805 9.30615 49.2639 8.56628C50.0473 7.8264 51.3965 6.6513 51.3965 4.53321C51.3965 2.54174 50.2385 1 48.1059 1H48.1046Z" fill="#FFACD4"/>
<g clip-path="url(#clip1_125_8680)">
<path d="M83.3082 0.236813L84.2006 3.23878C84.5389 4.37579 85.5479 5.14417 86.6838 5.13017L89.6745 5.08973C89.9895 5.08506 90.1207 5.50969 89.8641 5.70101L87.4188 7.52552C86.4957 8.21457 86.1122 9.4558 86.4739 10.5819L87.4319 13.5543C87.5325 13.867 87.1898 14.1283 86.9361 13.9323L84.5301 12.0596C83.6217 11.3519 82.3779 11.3519 81.4695 12.0596L79.0635 13.9323C78.8113 14.1283 78.4671 13.867 78.5678 13.5543L79.5258 10.5819C79.8888 9.4558 79.5053 8.21301 78.5809 7.52552L76.1356 5.70101C75.8789 5.50969 76.0116 5.08662 76.3251 5.08973L79.3158 5.13017C80.4517 5.14572 81.4607 4.37579 81.799 3.23878L82.6914 0.236813C82.7847 -0.0789377 83.2105 -0.0789377 83.3038 0.236813H83.3082Z" fill="white"/>
</g>
<path d="M124.105 1C122.456 1 121.625 2.09993 121.249 2.82002C121.071 3.1616 120.908 3.13918 120.747 2.82002C120.38 2.09729 119.543 1 117.89 1C115.758 1 114.6 2.54174 114.6 4.53321C114.6 6.6513 115.949 7.8264 116.732 8.56628C117.516 9.30615 118.473 10.0249 119.54 11.1987C120.271 12.0019 120.683 12.6033 120.873 12.9C120.963 13.0398 121.042 13.0266 121.123 12.9C121.311 12.6033 121.725 12.0019 122.456 11.1987C123.523 10.0249 124.48 9.30615 125.264 8.56628C126.047 7.8264 127.396 6.6513 127.396 4.53321C127.396 2.54174 126.239 1 124.106 1H124.105Z" fill="white"/>
<defs>
<clipPath id="clip0_125_8680">
<rect width="14" height="14" fill="white"/>
</clipPath>
<clipPath id="clip1_125_8680">
<rect width="14" height="14" fill="white" transform="translate(76)"/>
</clipPath>
</defs>
</svg>
