<svg width="337" height="320" viewBox="0 0 337 320" fill="none" xmlns="http://www.w3.org/2000/svg">
<g clip-path="url(#clip0_1_987)">
<path d="M148.462 1.1289L1.89019 119.534C0.409946 120.732 -0.280833 122.664 0.113897 124.539L40.4892 315.969C40.9826 318.324 43.055 320.001 45.4657 320.001H291.214C293.61 320.001 295.697 318.324 296.19 315.969L336.495 124.877C336.932 122.833 336.058 120.732 334.324 119.591L154.468 0.84695C152.621 -0.379536 150.196 -0.252658 148.476 1.1289H148.462Z" fill="#1C1C1B"/>
<path d="M131.2 220.815C131.214 220.293 131.03 220.081 130.509 220.081H77.757C77.348 220.067 77.0095 220.406 77.0095 220.815L77.1082 238.488L77.5032 246.232C77.5173 246.556 77.7853 246.81 78.1097 246.824L130.255 247.148C130.621 247.148 130.918 246.852 130.903 246.5V235.357L131.186 220.829L131.2 220.815ZM119.888 237.839L115.29 237.529C113.541 237.473 112.934 238.008 113.117 239.447L113.47 243.509C113.484 243.721 113.188 243.834 113.033 243.664L110.043 240.561C108.957 239.377 108.11 239.433 106.968 240.561L103.964 243.664C103.808 243.82 103.512 243.721 103.526 243.509L103.879 239.447C104.006 237.797 103.301 237.416 101.707 237.529L97.1087 237.839C96.8689 237.853 96.7419 237.585 96.9253 237.458L100.423 234.807C101.848 233.834 101.594 233.015 100.423 232.085L96.9253 229.433C96.7419 229.292 96.8689 229.038 97.1087 229.052L101.707 229.362C103.385 229.461 104.02 228.855 103.879 227.444L103.526 223.382C103.512 223.17 103.808 223.058 103.964 223.227L106.954 226.33C107.983 227.402 108.957 227.501 110.029 226.33L113.033 223.227C113.188 223.072 113.484 223.17 113.47 223.382L113.117 227.444C112.991 228.925 113.555 229.503 115.29 229.362L119.888 229.052C120.128 229.038 120.254 229.306 120.071 229.433L116.573 232.085C115.205 233.128 115.318 233.791 116.573 234.807L120.071 237.458C120.254 237.599 120.128 237.853 119.888 237.839Z" fill="#F8F7F1"/>
<path d="M237.902 130.432L239.862 207.909C239.862 208.29 240.172 208.586 240.553 208.586H260.935C261.471 208.586 261.767 208.445 261.781 207.923L262.317 181.463C262.317 180.165 262.825 179.502 264.094 179.446L275.194 179.375C275.561 179.375 275.871 179.079 275.885 178.698L276.619 160.235C276.633 159.812 276.295 159.46 275.871 159.46L264.108 159.544C262.627 159.516 261.908 159.065 261.823 157.443L260.102 131.222C260.074 130.658 259.75 130.488 259.312 130.488L238.522 129.826C238.17 129.811 237.873 130.094 237.887 130.446L237.902 130.432Z" fill="#F8F7F1"/>
<path d="M202.555 153.028L202.668 184.707C202.626 189.728 203.881 191.378 209.17 191.294L231.949 191.463C232.316 191.463 232.612 191.759 232.626 192.126L233.05 207.698C233.05 208.078 232.753 208.403 232.373 208.403L178.041 208.516C177.548 208.516 177.139 208.121 177.139 207.627L176.194 163.07L176.038 131.462C176.038 130.841 176.292 130.503 176.913 130.503L230.468 130.531C231.004 130.531 231.301 130.728 231.272 131.278L231.117 145.595C231.103 146.032 230.736 146.37 230.299 146.37L208.832 146.258C203.655 146.328 202.442 147.936 202.583 153.042L202.555 153.028Z" fill="#F8F7F1"/>
<path d="M139.084 231.492L170.185 231.45C173.612 231.478 174.219 232.508 174.021 235.949L173.683 241.083L173.415 246.655C173.401 247.05 173.584 247.219 173.979 247.219L189.057 247.247C189.353 247.247 189.607 247.007 189.607 246.697L189.706 239.236L190.651 221.224C190.679 220.815 190.341 220.462 189.932 220.462L139.07 220.364C138.774 220.364 138.548 220.603 138.534 220.885L138.492 230.9C138.492 231.224 138.76 231.492 139.084 231.492Z" fill="#F8F7F1"/>
<path d="M137.265 249.969H192.372C192.654 249.969 192.879 250.195 192.879 250.477L193.049 260.788C193.049 261.098 192.809 261.366 192.484 261.366C189.678 261.422 178.041 261.69 173.57 261.775C172.54 261.789 172.019 262.24 172.033 263.566L172.075 278.207C172.075 278.503 171.835 278.743 171.539 278.743L157.561 278.701C157.265 278.701 157.011 278.461 157.011 278.15L156.927 263.383C156.955 262.198 156.447 261.69 155.333 261.718L137.236 261.972C136.968 261.972 136.743 261.761 136.743 261.479L136.785 250.449C136.785 250.181 136.997 249.969 137.265 249.969Z" fill="#F8F7F1"/>
<path d="M209.579 236.316L196.504 246.556C196.307 246.739 196.279 247.035 196.448 247.247L202.64 255.23C202.795 255.428 203.091 255.456 203.275 255.287L214.516 246.514C216.745 244.638 218.395 244.68 220.821 246.556L231.949 255.273C232.161 255.442 232.471 255.4 232.641 255.174L238.903 247.148C239.03 246.965 239.002 246.711 238.818 246.584L225.757 236.386C223.444 234.609 222.767 233.114 223.599 231.831C224.107 231.055 225.165 230.9 226.434 230.9L235.673 230.773C235.913 230.773 236.096 230.575 236.096 230.35L235.997 220.914C235.997 220.674 235.8 220.49 235.574 220.49L199.523 220.406C199.269 220.406 199.071 220.603 199.071 220.857L198.973 230.561C198.973 230.745 199.128 230.9 199.311 230.9L208.155 230.843C210.073 230.843 211.074 231.055 211.653 231.831C212.118 232.451 212.471 233.819 209.608 236.316H209.579Z" fill="#F8F7F1"/>
<path d="M238.847 230.378L245.25 230.462C246.209 230.462 246.477 229.997 246.463 229.165V220.674C246.463 220.392 246.675 220.166 246.957 220.166L261.202 220.307C261.513 220.307 261.767 220.561 261.767 220.871V254.257C261.767 254.581 261.499 254.864 261.174 254.864L247.281 254.962C246.971 254.962 246.703 254.708 246.703 254.398L246.661 244.059C246.689 243.171 246.294 242.691 245.278 242.719L238.748 242.846C238.452 242.846 238.212 242.621 238.212 242.325V230.984C238.212 230.646 238.494 230.378 238.832 230.378H238.847Z" fill="#F8F7F1"/>
<path d="M201.117 258.7L201.314 277.967C201.314 278.291 201.582 278.559 201.921 278.559L261.202 278.757C261.555 278.757 261.837 278.475 261.837 278.136L262.021 265.611L262.232 258.728C262.232 258.376 261.964 258.094 261.612 258.094H201.737C201.399 258.094 201.131 258.362 201.131 258.7H201.117ZM228.748 270.252C227.563 270.252 226.618 269.349 226.618 268.122C226.618 267.657 226.618 266.458 226.618 266.458C226.618 265.132 227.506 264.328 228.748 264.328L244.531 264.271C245.786 264.271 246.646 265.033 246.646 266.401V268.122C246.646 269.391 245.885 270.252 244.531 270.252H228.748Z" fill="#F8F7F1"/>
<path d="M76.5017 249.349L131.2 249.278C131.552 249.278 131.848 249.56 131.848 249.927L131.919 259.25C131.919 259.532 131.693 259.758 131.411 259.758L115.008 259.899C114.302 259.899 114.02 260.308 114.006 260.999L113.766 266.246C113.766 266.528 113.527 266.74 113.244 266.754L98.4486 267.106C98.1524 267.106 97.9126 266.881 97.8985 266.585L97.8703 261.126C97.9126 260.421 97.5177 260.054 96.9394 260.054L76.403 259.998C76.1068 259.998 75.867 259.758 75.867 259.462V249.983C75.867 249.631 76.1491 249.349 76.5017 249.349Z" fill="#F8F7F1"/>
<path d="M77.08 263.256L77.2211 277.995C77.2211 278.362 77.5314 278.658 77.8981 278.658H130.353C130.819 278.63 130.932 278.517 130.974 278.108L130.819 269.744C130.819 269.335 130.523 269.095 130.114 269.123L93.5966 269.603C92.3554 269.561 92.0451 269.039 92.0028 267.91L91.8194 262.988C91.8194 262.734 91.5937 262.522 91.3399 262.522L77.6301 262.663C77.3198 262.663 77.0659 262.917 77.0659 263.242L77.08 263.256Z" fill="#F8F7F1"/>
<path d="M103.808 175.271L129.493 175.031C130.071 175.031 130.551 174.552 130.551 173.973L130.706 160.179C130.706 159.671 130.297 159.262 129.789 159.262L103.893 159.516C101.058 159.516 99.4359 157.795 99.4359 155.313L99.3936 149.064C99.2949 145.905 100.931 144.889 103.822 144.875L130.65 144.974C131.256 144.974 131.75 144.494 131.75 143.888L131.891 131.166C131.891 130.644 131.468 130.221 130.946 130.221L75.994 130.545C75.4862 130.545 75.0771 130.968 75.0771 131.476L76.4594 208.219C76.4594 208.685 76.8543 209.066 77.3198 209.066L132.878 208.741C133.386 208.741 133.795 208.332 133.795 207.81V192.718C133.795 192.225 133.386 191.816 132.892 191.802L103.794 191.703C100.903 191.703 99.3795 190.278 99.3513 187.5V179.446C99.3231 176.498 100.917 175.271 103.78 175.257L103.808 175.271Z" fill="#F8F7F1"/>
<path d="M165.968 132.534V130.94C165.968 130.404 165.53 129.967 164.994 129.953L142.935 129.882C142.356 129.882 141.877 130.347 141.877 130.926C141.82 137.95 141.538 178.078 141.538 178.317C141.538 178.557 141.595 202.225 141.595 207.669C141.595 208.29 142.088 208.769 142.709 208.769H164.642C165.234 208.769 165.714 208.304 165.714 207.712C165.756 199.418 166.066 144.819 165.968 132.52V132.534Z" fill="#F8F7F1"/>
<path d="M168.831 104.635C166.475 102.505 166.292 101.08 168.831 98.894L175.376 93.2944C175.714 92.9982 175.488 92.4482 175.037 92.4764L166.447 93.1534C163.203 93.4355 162.145 92.2084 162.385 89.0912L163.048 80.5015C163.076 80.0502 162.526 79.8245 162.23 80.163L156.63 86.7076C154.628 89.19 152.822 88.9784 150.89 86.7076L145.29 80.163C144.994 79.8245 144.444 80.0502 144.472 80.5015L145.149 89.0912C145.417 92.0814 144.232 93.365 141.087 93.1534L132.497 92.4905C132.046 92.4623 131.82 93.0124 132.159 93.3086L138.703 98.9081C140.89 100.869 141.369 102.604 138.703 104.649L132.159 110.248C131.82 110.544 132.046 111.095 132.497 111.066L141.087 110.389C144.077 110.164 145.389 110.968 145.149 114.451L144.486 123.041C144.458 123.493 145.008 123.718 145.304 123.38L150.904 116.835C153.034 114.437 154.613 114.339 156.645 116.835L162.244 123.38C162.54 123.718 163.09 123.493 163.062 123.041L162.385 114.451C162.047 111.405 163.175 110.262 166.447 110.389L175.037 111.052C175.488 111.08 175.714 110.53 175.376 110.234L168.831 104.635Z" fill="#F8F7F1"/>
</g>
<defs>
<clipPath id="clip0_1_987">
<rect width="337" height="320" fill="white"/>
</clipPath>
</defs>
</svg>
