<svg xmlns="http://www.w3.org/2000/svg" xmlns:xlink="http://www.w3.org/1999/xlink" viewBox="0 0 1809 312" width="1809" height="312" preserveAspectRatio="xMidYMid meet" style="width: 100%; height: 100%; transform: translate3d(0px, 0px, 0px); content-visibility: visible;"><defs><clipPath id="__lottie_element_179"><rect width="1809" height="312" x="0" y="0"></rect></clipPath></defs><g clip-path="url(#__lottie_element_179)"><g transform="matrix(1,0,0,1,0,0)" opacity="1" style="display: block;"><g opacity="1" transform="matrix(1,0,0,1,904.635009765625,156.35499572753906)"><path fill="rgb(0,0,0)" fill-opacity="1" d=" M-902.5189819335938,148.64500427246094 C-902.5189819335938,148.64500427246094 -904.2550048828125,146.90899658203125 -904.2550048828125,146.90899658203125 C-904.2550048828125,146.90899658203125 -904.2550048828125,-153.41900634765625 -904.2550048828125,-153.41900634765625 C-904.2550048828125,-153.41900634765625 -902.5189819335938,-155.15499877929688 -902.5189819335938,-155.15499877929688 C-902.5189819335938,-155.15499877929688 -696.3690185546875,-155.15499877929688 -696.3690185546875,-155.15499877929688 C-696.3690185546875,-155.15499877929688 -694.6329956054688,-153.41900634765625 -694.6329956054688,-153.41900634765625 C-694.6329956054688,-153.41900634765625 -694.6329956054688,-103.07499694824219 -694.6329956054688,-103.07499694824219 C-694.6329956054688,-103.07499694824219 -696.3690185546875,-101.33899688720703 -696.3690185546875,-101.33899688720703 C-696.3690185546875,-101.33899688720703 -820.927001953125,-101.33899688720703 -820.927001953125,-101.33899688720703 C-839.155029296875,-101.33899688720703 -848.7030029296875,-91.79100036621094 -848.7030029296875,-74.43099975585938 C-848.7030029296875,-74.43099975585938 -848.7030029296875,-64.4489974975586 -848.7030029296875,-64.4489974975586 C-848.7030029296875,-47.0890007019043 -839.155029296875,-37.106998443603516 -820.927001953125,-37.106998443603516 C-820.927001953125,-37.106998443603516 -715.031005859375,-37.106998443603516 -715.031005859375,-37.106998443603516 C-715.031005859375,-37.106998443603516 -713.2949829101562,-35.37099838256836 -713.2949829101562,-35.37099838256836 C-713.2949829101562,-35.37099838256836 -713.2949829101562,14.972999572753906 -713.2949829101562,14.972999572753906 C-713.2949829101562,14.972999572753906 -715.031005859375,16.708999633789062 -715.031005859375,16.708999633789062 C-715.031005859375,16.708999633789062 -820.927001953125,16.708999633789062 -820.927001953125,16.708999633789062 C-839.155029296875,16.708999633789062 -848.7030029296875,26.69099998474121 -848.7030029296875,44.48500061035156 C-848.7030029296875,44.48500061035156 -848.7030029296875,67.0530014038086 -848.7030029296875,67.0530014038086 C-848.7030029296875,84.84700012207031 -839.155029296875,94.8290023803711 -820.927001953125,94.8290023803711 C-820.927001953125,94.8290023803711 -696.3690185546875,94.8290023803711 -696.3690185546875,94.8290023803711 C-696.3690185546875,94.8290023803711 -694.6329956054688,96.56500244140625 -694.6329956054688,96.56500244140625 C-694.6329956054688,96.56500244140625 -694.6329956054688,146.90899658203125 -694.6329956054688,146.90899658203125 C-694.6329956054688,146.90899658203125 -696.3690185546875,148.64500427246094 -696.3690185546875,148.64500427246094 C-696.3690185546875,148.64500427246094 -902.5189819335938,148.64500427246094 -902.5189819335938,148.64500427246094z M-673.4749755859375,148.64500427246094 C-673.4749755859375,148.64500427246094 -675.2109985351562,146.90899658203125 -675.2109985351562,146.90899658203125 C-675.2109985351562,146.90899658203125 -631.3770141601562,59.24100112915039 -631.3770141601562,59.24100112915039 C-621.8289794921875,41.446998596191406 -621.39501953125,27.55900001525879 -631.8109741210938,9.765000343322754 C-631.8109741210938,9.765000343322754 -675.2109985351562,-75.29900360107422 -675.2109985351562,-75.29900360107422 C-675.2109985351562,-75.29900360107422 -673.4749755859375,-77.03500366210938 -673.4749755859375,-77.03500366210938 C-673.4749755859375,-77.03500366210938 -616.18701171875,-77.03500366210938 -616.18701171875,-77.03500366210938 C-616.18701171875,-77.03500366210938 -614.4509887695312,-75.29900360107422 -614.4509887695312,-75.29900360107422 C-614.4509887695312,-75.29900360107422 -586.6749877929688,-21.048999786376953 -586.6749877929688,-21.048999786376953 C-581.9010009765625,-10.633000373840332 -577.5609741210938,-5.425000190734863 -568.8809814453125,-5.425000190734863 C-560.2009887695312,-5.425000190734863 -555.427001953125,-10.633000373840332 -550.6530151367188,-21.048999786376953 C-550.6530151367188,-21.048999786376953 -522.8770141601562,-75.29900360107422 -522.8770141601562,-75.29900360107422 C-522.8770141601562,-75.29900360107422 -521.1409912109375,-77.03500366210938 -521.1409912109375,-77.03500366210938 C-521.1409912109375,-77.03500366210938 -463.8529968261719,-77.03500366210938 -463.8529968261719,-77.03500366210938 C-463.8529968261719,-77.03500366210938 -462.11700439453125,-75.29900360107422 -462.11700439453125,-75.29900360107422 C-462.11700439453125,-75.29900360107422 -507.25299072265625,9.765000343322754 -507.25299072265625,9.765000343322754 C-517.2349853515625,27.993000030517578 -517.2349853515625,41.01300048828125 -507.25299072265625,59.24100112915039 C-507.25299072265625,59.24100112915039 -462.11700439453125,146.90899658203125 -462.11700439453125,146.90899658203125 C-462.11700439453125,146.90899658203125 -463.8529968261719,148.64500427246094 -463.8529968261719,148.64500427246094 C-463.8529968261719,148.64500427246094 -521.5750122070312,148.64500427246094 -521.5750122070312,148.64500427246094 C-521.5750122070312,148.64500427246094 -523.3109741210938,146.90899658203125 -523.3109741210938,146.90899658203125 C-523.3109741210938,146.90899658203125 -550.218994140625,90.05500030517578 -550.218994140625,90.05500030517578 C-554.9929809570312,79.63899993896484 -560.2009887695312,74.86499786376953 -568.8809814453125,74.86499786376953 C-577.5609741210938,74.86499786376953 -582.3350219726562,79.63899993896484 -587.1090087890625,90.05500030517578 C-587.1090087890625,90.05500030517578 -614.4509887695312,146.90899658203125 -614.4509887695312,146.90899658203125 C-614.4509887695312,146.90899658203125 -616.18701171875,148.64500427246094 -616.18701171875,148.64500427246094 C-616.18701171875,148.64500427246094 -673.4749755859375,148.64500427246094 -673.4749755859375,148.64500427246094z M-338.6510009765625,155.15499877929688 C-406.3550109863281,155.15499877929688 -453.22698974609375,105.67900085449219 -453.22698974609375,35.80500030517578 C-453.22698974609375,-34.069000244140625 -406.3550109863281,-83.54499816894531 -338.6510009765625,-83.54499816894531 C-277.02301025390625,-83.54499816894531 -232.3209991455078,-42.314998626708984 -225.3769989013672,17.57699966430664 C-225.3769989013672,17.57699966430664 -227.11300659179688,19.312999725341797 -227.11300659179688,19.312999725341797 C-227.11300659179688,19.312999725341797 -282.2309875488281,19.312999725341797 -282.2309875488281,19.312999725341797 C-282.2309875488281,19.312999725341797 -283.9670104980469,17.57699966430664 -283.9670104980469,17.57699966430664 C-290.47698974609375,-11.067000389099121 -313.47900390625,-26.256999969482422 -338.6510009765625,-26.256999969482422 C-368.59698486328125,-26.256999969482422 -395.5050048828125,-4.557000160217285 -395.5050048828125,35.80500030517578 C-395.5050048828125,76.16699981689453 -368.59698486328125,97.86699676513672 -338.6510009765625,97.86699676513672 C-313.47900390625,97.86699676513672 -290.47698974609375,82.677001953125 -283.9670104980469,54.03300094604492 C-283.9670104980469,54.03300094604492 -282.2309875488281,52.297000885009766 -282.2309875488281,52.297000885009766 C-282.2309875488281,52.297000885009766 -227.11300659179688,52.297000885009766 -227.11300659179688,52.297000885009766 C-227.11300659179688,52.297000885009766 -225.3769989013672,54.03300094604492 -225.3769989013672,54.03300094604492 C-232.7550048828125,113.92500305175781 -277.02301025390625,155.15499877929688 -338.6510009765625,155.15499877929688z M-190.30099487304688,148.64500427246094 C-190.30099487304688,148.64500427246094 -192.03700256347656,146.90899658203125 -192.03700256347656,146.90899658203125 C-192.03700256347656,146.90899658203125 -192.03700256347656,-153.85299682617188 -192.03700256347656,-153.85299682617188 C-192.03700256347656,-153.85299682617188 -190.30099487304688,-155.58900451660156 -190.30099487304688,-155.58900451660156 C-190.30099487304688,-155.58900451660156 -138.2209930419922,-155.58900451660156 -138.2209930419922,-155.58900451660156 C-138.2209930419922,-155.58900451660156 -136.48500061035156,-153.85299682617188 -136.48500061035156,-153.85299682617188 C-136.48500061035156,-153.85299682617188 -136.48500061035156,70.95899963378906 -136.48500061035156,70.95899963378906 C-136.48500061035156,88.75299835205078 -126.50299835205078,98.73500061035156 -108.70899963378906,98.73500061035156 C-108.70899963378906,98.73500061035156 -101.33100128173828,98.73500061035156 -101.33100128173828,98.73500061035156 C-101.33100128173828,98.73500061035156 -99.59500122070312,100.47100067138672 -99.59500122070312,100.47100067138672 C-99.59500122070312,100.47100067138672 -99.59500122070312,146.90899658203125 -99.59500122070312,146.90899658203125 C-99.59500122070312,146.90899658203125 -101.33100128173828,148.64500427246094 -101.33100128173828,148.64500427246094 C-101.33100128173828,148.64500427246094 -190.30099487304688,148.64500427246094 -190.30099487304688,148.64500427246094z M-69.75399780273438,-77.03500366210938 C-69.75399780273438,-77.03500366210938 -17.673999786376953,-77.03500366210938 -17.673999786376953,-77.03500366210938 C-17.673999786376953,-77.03500366210938 -15.937999725341797,-75.29900360107422 -15.937999725341797,-75.29900360107422 C-15.937999725341797,-75.29900360107422 -15.937999725341797,64.01499938964844 -15.937999725341797,64.01499938964844 C-15.937999725341797,85.71499633789062 -3.7860000133514404,97.86699676513672 17.913999557495117,97.86699676513672 C17.913999557495117,97.86699676513672 36.57600021362305,97.86699676513672 36.57600021362305,97.86699676513672 C58.709999084472656,97.86699676513672 70.86199951171875,85.71499633789062 70.86199951171875,64.01499938964844 C70.86199951171875,64.01499938964844 70.86199951171875,-75.29900360107422 70.86199951171875,-75.29900360107422 C70.86199951171875,-75.29900360107422 72.5979995727539,-77.03500366210938 72.5979995727539,-77.03500366210938 C72.5979995727539,-77.03500366210938 124.67500305175781,-77.03500366210938 124.67500305175781,-77.03500366210938 C124.67500305175781,-77.03500366210938 126.41500091552734,-75.29900360107422 126.41500091552734,-75.29900360107422 C126.41500091552734,-75.29900360107422 126.41500091552734,146.90899658203125 126.41500091552734,146.90899658203125 C126.41500091552734,146.90899658203125 124.67500305175781,148.64500427246094 124.67500305175781,148.64500427246094 C124.67500305175781,148.64500427246094 -69.75399780273438,148.64500427246094 -69.75399780273438,148.64500427246094 C-69.75399780273438,148.64500427246094 -71.48999786376953,146.90899658203125 -71.48999786376953,146.90899658203125 C-71.48999786376953,146.90899658203125 -71.48999786376953,-75.29900360107422 -71.48999786376953,-75.29900360107422 C-71.48999786376953,-75.29900360107422 -69.75399780273438,-77.03500366210938 -69.75399780273438,-77.03500366210938z M248.875,155.58900451660156 C190.72500610351562,155.58900451660156 159.90499877929688,118.6989974975586 156.0050048828125,79.20500183105469 C156.0050048828125,79.20500183105469 157.73500061035156,77.46900177001953 157.73500061035156,77.46900177001953 C157.73500061035156,77.46900177001953 210.2550048828125,77.46900177001953 210.2550048828125,77.46900177001953 C210.2550048828125,77.46900177001953 211.98500061035156,79.20500183105469 211.98500061035156,79.20500183105469 C213.28500366210938,97.86699676513672 228.9149932861328,111.32099914550781 250.61500549316406,111.32099914550781 C268.8450012207031,111.32099914550781 281.864990234375,103.50900268554688 281.864990234375,87.88500213623047 C281.864990234375,52.73099899291992 161.64500427246094,65.31700134277344 161.64500427246094,-13.237000465393066 C161.64500427246094,-52.73099899291992 194.625,-83.97899627685547 247.5749969482422,-83.97899627685547 C291.8450012207031,-83.97899627685547 331.7749938964844,-59.67499923706055 337.4150085449219,-11.9350004196167 C337.4150085449219,-11.9350004196167 335.67498779296875,-10.199000358581543 335.67498779296875,-10.199000358581543 C335.67498779296875,-10.199000358581543 282.7250061035156,-10.199000358581543 282.7250061035156,-10.199000358581543 C282.7250061035156,-10.199000358581543 280.9949951171875,-11.9350004196167 280.9949951171875,-11.9350004196167 C279.69500732421875,-29.295000076293945 264.93499755859375,-40.14500045776367 245.40499877929688,-40.14500045776367 C228.0449981689453,-40.14500045776367 215.02499389648438,-33.20100021362305 215.02499389648438,-17.14299964904785 C215.02499389648438,19.312999725341797 335.67498779296875,7.160999774932861 335.67498779296875,84.84700012207031 C335.67498779296875,123.03900146484375 304.42498779296875,155.58900451660156 248.875,155.58900451660156z M369.3550109863281,148.64500427246094 C369.3550109863281,148.64500427246094 367.625,146.90899658203125 367.625,146.90899658203125 C367.625,146.90899658203125 367.625,-75.29900360107422 367.625,-75.29900360107422 C367.625,-75.29900360107422 369.3550109863281,-77.03500366210938 369.3550109863281,-77.03500366210938 C369.3550109863281,-77.03500366210938 421.875,-77.03500366210938 421.875,-77.03500366210938 C421.875,-77.03500366210938 423.6050109863281,-75.29900360107422 423.6050109863281,-75.29900360107422 C423.6050109863281,-75.29900360107422 423.6050109863281,146.90899658203125 423.6050109863281,146.90899658203125 C423.6050109863281,146.90899658203125 421.875,148.64500427246094 421.875,148.64500427246094 C421.875,148.64500427246094 369.3550109863281,148.64500427246094 369.3550109863281,148.64500427246094z M367.18499755859375,-102.64099884033203 C367.18499755859375,-102.64099884033203 367.18499755859375,-153.41900634765625 367.18499755859375,-153.41900634765625 C367.18499755859375,-153.41900634765625 368.92498779296875,-155.15499877929688 368.92498779296875,-155.15499877929688 C368.92498779296875,-155.15499877929688 422.30499267578125,-155.15499877929688 422.30499267578125,-155.15499877929688 C422.30499267578125,-155.15499877929688 424.0450134277344,-153.41900634765625 424.0450134277344,-153.41900634765625 C424.0450134277344,-153.41900634765625 424.0450134277344,-102.64099884033203 424.0450134277344,-102.64099884033203 C424.0450134277344,-102.64099884033203 422.30499267578125,-100.90499877929688 422.30499267578125,-100.90499877929688 C422.30499267578125,-100.90499877929688 368.92498779296875,-100.90499877929688 368.92498779296875,-100.90499877929688 C368.92498779296875,-100.90499877929688 367.18499755859375,-102.64099884033203 367.18499755859375,-102.64099884033203z M516.9249877929688,148.64500427246094 C516.9249877929688,148.64500427246094 515.1950073242188,146.90899658203125 515.1950073242188,146.90899658203125 C515.1950073242188,146.90899658203125 448.3550109863281,-75.29900360107422 448.3550109863281,-75.29900360107422 C448.3550109863281,-75.29900360107422 450.0950012207031,-77.03500366210938 450.0950012207031,-77.03500366210938 C450.0950012207031,-77.03500366210938 505.2149963378906,-77.03500366210938 505.2149963378906,-77.03500366210938 C505.2149963378906,-77.03500366210938 506.94500732421875,-75.29900360107422 506.94500732421875,-75.29900360107422 C506.94500732421875,-75.29900360107422 545.5750122070312,64.01499938964844 545.5750122070312,64.01499938964844 C549.4749755859375,77.90299987792969 555.5549926757812,85.28099822998047 566.405029296875,85.28099822998047 C577.6849975585938,85.28099822998047 583.7650146484375,78.33699798583984 587.6749877929688,64.01499938964844 C587.6749877929688,64.01499938964844 625.4249877929688,-75.29900360107422 625.4249877929688,-75.29900360107422 C625.4249877929688,-75.29900360107422 627.1649780273438,-77.03500366210938 627.1649780273438,-77.03500366210938 C627.1649780273438,-77.03500366210938 680.114990234375,-77.03500366210938 680.114990234375,-77.03500366210938 C680.114990234375,-77.03500366210938 681.844970703125,-75.29900360107422 681.844970703125,-75.29900360107422 C681.844970703125,-75.29900360107422 615.0150146484375,146.90899658203125 615.0150146484375,146.90899658203125 C615.0150146484375,146.90899658203125 613.2750244140625,148.64500427246094 613.2750244140625,148.64500427246094 C613.2750244140625,148.64500427246094 516.9249877929688,148.64500427246094 516.9249877929688,148.64500427246094z M801.8250122070312,155.15499877929688 C731.9550170898438,155.15499877929688 691.155029296875,101.77300262451172 691.155029296875,32.33300018310547 C691.155029296875,-40.57899856567383 737.594970703125,-83.54499816894531 798.35498046875,-83.54499816894531 C858.6849975585938,-83.54499816894531 901.64501953125,-41.88100051879883 901.64501953125,18.878999710083008 C901.64501953125,18.878999710083008 901.64501953125,48.82500076293945 901.64501953125,48.82500076293945 C901.64501953125,48.82500076293945 899.9149780273438,50.56100082397461 899.9149780273438,50.56100082397461 C899.9149780273438,50.56100082397461 777.9550170898438,50.56100082397461 777.9550170898438,50.56100082397461 C762.7650146484375,50.56100082397461 753.2249755859375,56.637001037597656 753.2249755859375,69.65699768066406 C753.2249755859375,87.45099639892578 769.7150268554688,107.41500091552734 800.5250244140625,107.41500091552734 C825.6950073242188,107.41500091552734 844.7949829101562,93.5270004272461 848.7050170898438,70.95899963378906 C848.7050170898438,70.95899963378906 850.4349975585938,69.2229995727539 850.4349975585938,69.2229995727539 C850.4349975585938,69.2229995727539 902.5150146484375,69.2229995727539 902.5150146484375,69.2229995727539 C902.5150146484375,69.2229995727539 904.2550048828125,70.95899963378906 904.2550048828125,70.95899963378906 C895.5750122070312,122.6050033569336 856.0750122070312,155.15499877929688 801.8250122070312,155.15499877929688z M753.2249755859375,-7.160999774932861 C753.2249755859375,5.859000205993652 761.905029296875,11.9350004196167 771.885009765625,11.9350004196167 C771.885009765625,11.9350004196167 821.35498046875,11.9350004196167 821.35498046875,11.9350004196167 C831.344970703125,11.9350004196167 840.0250244140625,5.859000205993652 840.0250244140625,-7.160999774932861 C840.0250244140625,-24.086999893188477 824.8350219726562,-41.446998596191406 797.4849853515625,-41.446998596191406 C769.2750244140625,-41.446998596191406 753.2249755859375,-24.086999893188477 753.2249755859375,-7.160999774932861z"></path></g></g></g></svg>