<svg xmlns="http://www.w3.org/2000/svg" xmlns:xlink="http://www.w3.org/1999/xlink" viewBox="0 0 1103 305" width="1103" height="305" preserveAspectRatio="xMidYMid meet" style="width: 100%; height: 100%; transform: translate3d(0px, 0px, 0px); content-visibility: visible;"><defs><clipPath id="__lottie_element_132"><rect width="1103" height="305" x="0" y="0"></rect></clipPath><clipPath id="__lottie_element_134"><path d="M0,0 L194,0 L194,194 L0,194z"></path></clipPath></defs><g clip-path="url(#__lottie_element_132)"><g transform="matrix(1,0,0,1,0,0)" opacity="1" style="display: block;"><g opacity="1" transform="matrix(1,0,0,1,551.4089965820312,152.31700134277344)"><path fill="rgb(0,0,0)" fill-opacity="1" d=" M-549.2550048828125,151.68299865722656 C-549.2550048828125,151.68299865722656 -550.9910278320312,149.94700622558594 -550.9910278320312,149.94700622558594 C-550.9910278320312,149.94700622558594 -550.9910278320312,-150.38099670410156 -550.9910278320312,-150.38099670410156 C-550.9910278320312,-150.38099670410156 -549.2550048828125,-152.11700439453125 -549.2550048828125,-152.11700439453125 C-549.2550048828125,-152.11700439453125 -418.18701171875,-152.11700439453125 -418.18701171875,-152.11700439453125 C-352.65301513671875,-152.11700439453125 -323.57501220703125,-109.58499908447266 -323.57501220703125,-64.01499938964844 C-323.57501220703125,-64.01499938964844 -323.57501220703125,67.0530014038086 -323.57501220703125,67.0530014038086 C-323.57501220703125,113.05699920654297 -352.65301513671875,151.68299865722656 -418.18701171875,151.68299865722656 C-418.18701171875,151.68299865722656 -549.2550048828125,151.68299865722656 -549.2550048828125,151.68299865722656z M-495.4389953613281,67.0530014038086 C-495.4389953613281,83.97899627685547 -485.4570007324219,97.43299865722656 -461.5870056152344,97.43299865722656 C-461.5870056152344,97.43299865722656 -424.26300048828125,97.43299865722656 -424.26300048828125,97.43299865722656 C-390.4110107421875,97.43299865722656 -380.4289855957031,78.33699798583984 -380.4289855957031,59.67499923706055 C-380.4289855957031,40.57899856567383 -390.4110107421875,21.482999801635742 -424.26300048828125,21.482999801635742 C-424.26300048828125,21.482999801635742 -461.5870056152344,21.482999801635742 -461.5870056152344,21.482999801635742 C-485.4570007324219,21.482999801635742 -495.4389953613281,34.9370002746582 -495.4389953613281,51.862998962402344 C-495.4389953613281,51.862998962402344 -495.4389953613281,67.0530014038086 -495.4389953613281,67.0530014038086z M-495.4389953613281,-54.03300094604492 C-495.4389953613281,-37.106998443603516 -485.4570007324219,-23.2189998626709 -461.5870056152344,-23.2189998626709 C-461.5870056152344,-23.2189998626709 -424.26300048828125,-23.2189998626709 -424.26300048828125,-23.2189998626709 C-390.4110107421875,-23.2189998626709 -380.4289855957031,-41.88100051879883 -380.4289855957031,-60.97700119018555 C-380.4289855957031,-80.072998046875 -390.4110107421875,-98.3010025024414 -424.26300048828125,-98.3010025024414 C-424.26300048828125,-98.3010025024414 -461.5870056152344,-98.3010025024414 -461.5870056152344,-98.3010025024414 C-485.4570007324219,-98.3010025024414 -495.4389953613281,-84.84700012207031 -495.4389953613281,-68.3550033569336 C-495.4389953613281,-68.3550033569336 -495.4389953613281,-54.03300094604492 -495.4389953613281,-54.03300094604492z M-274.9809875488281,152.11700439453125 C-274.9809875488281,152.11700439453125 -276.7170104980469,150.38099670410156 -276.7170104980469,150.38099670410156 C-276.7170104980469,150.38099670410156 -276.7170104980469,-72.26100158691406 -276.7170104980469,-72.26100158691406 C-276.7170104980469,-72.26100158691406 -274.9809875488281,-73.99700164794922 -274.9809875488281,-73.99700164794922 C-274.9809875488281,-73.99700164794922 -149.98899841308594,-73.99700164794922 -149.98899841308594,-73.99700164794922 C-149.98899841308594,-73.99700164794922 -148.2530059814453,-72.26100158691406 -148.2530059814453,-72.26100158691406 C-148.2530059814453,-72.26100158691406 -148.2530059814453,-24.954999923706055 -148.2530059814453,-24.954999923706055 C-148.2530059814453,-24.954999923706055 -149.98899841308594,-23.2189998626709 -149.98899841308594,-23.2189998626709 C-149.98899841308594,-23.2189998626709 -187.31300354003906,-23.2189998626709 -187.31300354003906,-23.2189998626709 C-209.01300048828125,-23.2189998626709 -221.1649932861328,-11.067000389099121 -221.1649932861328,10.633000373840332 C-221.1649932861328,10.633000373840332 -221.1649932861328,150.38099670410156 -221.1649932861328,150.38099670410156 C-221.1649932861328,150.38099670410156 -222.9010009765625,152.11700439453125 -222.9010009765625,152.11700439453125 C-222.9010009765625,152.11700439453125 -274.9809875488281,152.11700439453125 -274.9809875488281,152.11700439453125z M-55.39699935913086,151.68299865722656 C-95.32499694824219,151.68299865722656 -127.44100189208984,126.0770034790039 -127.44100189208984,84.41300201416016 C-127.44100189208984,43.18299865722656 -95.32499694824219,18.01099967956543 -55.39699935913086,18.01099967956543 C-55.39699935913086,18.01099967956543 -11.996999740600586,18.01099967956543 -11.996999740600586,18.01099967956543 C-11.996999740600586,18.01099967956543 -10.26099967956543,16.274999618530273 -10.26099967956543,16.274999618530273 C-10.26099967956543,16.274999618530273 -10.26099967956543,-4.123000144958496 -10.26099967956543,-4.123000144958496 C-10.26099967956543,-22.78499984741211 -24.14900016784668,-31.89900016784668 -43.67900085449219,-31.89900016784668 C-65.37899780273438,-31.89900016784668 -76.66300201416016,-20.180999755859375 -77.53099822998047,-5.859000205993652 C-77.53099822998047,-5.859000205993652 -79.26699829101562,-4.123000144958496 -79.26699829101562,-4.123000144958496 C-79.26699829101562,-4.123000144958496 -131.781005859375,-4.123000144958496 -131.781005859375,-4.123000144958496 C-131.781005859375,-4.123000144958496 -133.51699829101562,-5.859000205993652 -133.51699829101562,-5.859000205993652 C-133.51699829101562,-45.7869987487793 -101.83499908447266,-80.50700378417969 -41.50899887084961,-80.50700378417969 C4.494999885559082,-80.50700378417969 45.29100036621094,-60.97700119018555 45.29100036621094,-10.633000373840332 C45.29100036621094,-10.633000373840332 45.29100036621094,71.39299774169922 45.29100036621094,71.39299774169922 C45.29100036621094,89.18699645996094 54.8390007019043,99.16899871826172 73.06700134277344,99.16899871826172 C73.06700134277344,99.16899871826172 74.36900329589844,99.16899871826172 74.36900329589844,99.16899871826172 C74.36900329589844,99.16899871826172 76.1050033569336,100.90499877929688 76.1050033569336,100.90499877929688 C76.1050033569336,100.90499877929688 76.1050033569336,149.94700622558594 76.1050033569336,149.94700622558594 C76.1050033569336,149.94700622558594 74.36900329589844,151.68299865722656 74.36900329589844,151.68299865722656 C74.36900329589844,151.68299865722656 -55.39699935913086,151.68299865722656 -55.39699935913086,151.68299865722656z M-73.19100189208984,84.41300201416016 C-73.19100189208984,102.64099884033203 -58.000999450683594,112.62300109863281 -42.81100082397461,112.62300109863281 C-42.81100082397461,112.62300109863281 -38.0369987487793,112.62300109863281 -38.0369987487793,112.62300109863281 C-22.413000106811523,112.62300109863281 -7.2230000495910645,102.64099884033203 -7.2230000495910645,84.41300201416016 C-7.2230000495910645,66.61900329589844 -22.413000106811523,56.637001037597656 -38.0369987487793,56.637001037597656 C-38.0369987487793,56.637001037597656 -42.81100082397461,56.637001037597656 -42.81100082397461,56.637001037597656 C-58.000999450683594,56.637001037597656 -73.19100189208984,66.61900329589844 -73.19100189208984,84.41300201416016z M105.20999908447266,151.68299865722656 C105.20999908447266,151.68299865722656 103.4739990234375,149.94700622558594 103.4739990234375,149.94700622558594 C103.4739990234375,149.94700622558594 103.4739990234375,-72.26100158691406 103.4739990234375,-72.26100158691406 C103.4739990234375,-72.26100158691406 105.20999908447266,-73.99700164794922 105.20999908447266,-73.99700164794922 C105.20999908447266,-73.99700164794922 299.6419982910156,-73.99700164794922 299.6419982910156,-73.99700164794922 C299.6419982910156,-73.99700164794922 301.37799072265625,-72.26100158691406 301.37799072265625,-72.26100158691406 C301.37799072265625,-72.26100158691406 301.37799072265625,149.94700622558594 301.37799072265625,149.94700622558594 C301.37799072265625,149.94700622558594 299.6419982910156,151.68299865722656 299.6419982910156,151.68299865722656 C299.6419982910156,151.68299865722656 247.56199645996094,151.68299865722656 247.56199645996094,151.68299865722656 C247.56199645996094,151.68299865722656 245.8260040283203,149.94700622558594 245.8260040283203,149.94700622558594 C245.8260040283203,149.94700622558594 245.8260040283203,10.633000373840332 245.8260040283203,10.633000373840332 C245.8260040283203,-11.067000389099121 233.6739959716797,-23.2189998626709 211.5399932861328,-23.2189998626709 C211.5399932861328,-23.2189998626709 192.8780059814453,-23.2189998626709 192.8780059814453,-23.2189998626709 C171.17799377441406,-23.2189998626709 159.0260009765625,-11.067000389099121 159.0260009765625,10.633000373840332 C159.0260009765625,10.633000373840332 159.0260009765625,149.94700622558594 159.0260009765625,149.94700622558594 C159.0260009765625,149.94700622558594 157.2899932861328,151.68299865722656 157.2899932861328,151.68299865722656 C157.2899932861328,151.68299865722656 105.20999908447266,151.68299865722656 105.20999908447266,151.68299865722656z M443.3609924316406,151.24899291992188 C372.6189880371094,151.24899291992188 333.5589904785156,102.20700073242188 333.5589904785156,38.409000396728516 C333.5589904785156,-25.388999938964844 372.6189880371094,-74.43099975585938 443.3609924316406,-74.43099975585938 C443.3609924316406,-74.43099975585938 493.70098876953125,-74.43099975585938 493.70098876953125,-74.43099975585938 C493.70098876953125,-74.43099975585938 495.4410095214844,-76.16699981689453 495.4410095214844,-76.16699981689453 C495.4410095214844,-76.16699981689453 495.4410095214844,-150.38099670410156 495.4410095214844,-150.38099670410156 C495.4410095214844,-150.38099670410156 497.1809997558594,-152.11700439453125 497.1809997558594,-152.11700439453125 C497.1809997558594,-152.11700439453125 549.260986328125,-152.11700439453125 549.260986328125,-152.11700439453125 C549.260986328125,-152.11700439453125 550.9910278320312,-150.38099670410156 550.9910278320312,-150.38099670410156 C550.9910278320312,-150.38099670410156 550.9910278320312,149.51300048828125 550.9910278320312,149.51300048828125 C550.9910278320312,149.51300048828125 549.260986328125,151.24899291992188 549.260986328125,151.24899291992188 C549.260986328125,151.24899291992188 443.3609924316406,151.24899291992188 443.3609924316406,151.24899291992188z M391.281005859375,38.409000396728516 C391.281005859375,74.43099975585938 413.8489990234375,96.56500244140625 443.3609924316406,96.56500244140625 C472.8710021972656,96.56500244140625 495.4410095214844,74.43099975585938 495.4410095214844,38.409000396728516 C495.4410095214844,2.821000099182129 472.8710021972656,-19.312999725341797 443.3609924316406,-19.312999725341797 C413.8489990234375,-19.312999725341797 391.281005859375,2.821000099182129 391.281005859375,38.409000396728516z"></path></g></g><g clip-path="url(#__lottie_element_134)" transform="matrix(0.8999999761581421,0,0,0.8999999761581421,912.7000122070312,104.70000457763672)" opacity="1" style="display: block;"><g transform="matrix(1.8700000047683716,0,0,1.8700000047683716,97,97)" opacity="1" style="display: block;"><path fill="rgb(0,0,0)" fill-opacity="1" d=" M50,-13 C50,-13 50,13 50,13 C50,33.4202995300293 33.4202995300293,50 13,50 C13,50 -13,50 -13,50 C-33.4202995300293,50 -50,33.4202995300293 -50,13 C-50,13 -50,-13 -50,-13 C-50,-33.4202995300293 -33.4202995300293,-50 -13,-50 C-13,-50 13,-50 13,-50 C33.4202995300293,-50 50,-33.4202995300293 50,-13z"></path></g><g transform="matrix(0.800000011920929,0,0,0.800000011920929,19.400001525878906,18.199996948242188)" opacity="1" style="display: none;"><g opacity="1" transform="matrix(1,0,0,1,97,98.4260025024414)"><path fill="rgb(255,255,255)" fill-opacity="1" d=" M67.09100341796875,12.496999740600586 C56.61399841308594,2.931999921798706 55.76100158691406,-3.4579999446868896 67.09100341796875,-13.336999893188477 C67.09100341796875,-13.336999893188477 96.27100372314453,-38.54399871826172 96.27100372314453,-38.54399871826172 C97.78500366210938,-39.83700180053711 96.7760009765625,-42.3849983215332 94.75800323486328,-42.22800064086914 C94.75800323486328,-42.22800064086914 56.49800109863281,-39.209999084472656 56.49800109863281,-39.209999084472656 C42.02399826049805,-37.95600128173828 37.32899856567383,-43.444000244140625 38.415000915527344,-57.47800064086914 C38.415000915527344,-57.47800064086914 41.40299987792969,-96.16999816894531 41.40299987792969,-96.16999816894531 C41.55799865722656,-98.16899871826172 39.07500076293945,-99.22699737548828 37.75600051879883,-97.6989974975586 C37.75600051879883,-97.6989974975586 12.805000305175781,-68.21900177001953 12.805000305175781,-68.21900177001953 C3.880000114440918,-57.08599853515625 -4.1519999504089355,-57.98699951171875 -12.765999794006348,-68.21900177001953 C-12.765999794006348,-68.21900177001953 -37.71699905395508,-97.62000274658203 -37.71699905395508,-97.62000274658203 C-39.0359992980957,-99.14900207519531 -41.52000045776367,-98.12999725341797 -41.3650016784668,-96.09100341796875 C-41.3650016784668,-96.09100341796875 -38.37699890136719,-57.43899917602539 -38.37699890136719,-57.43899917602539 C-37.17399978637695,-43.99300003051758 -42.45100021362305,-38.191001892089844 -56.45899963378906,-39.17100143432617 C-56.45899963378906,-39.17100143432617 -94.75800323486328,-42.18899917602539 -94.75800323486328,-42.18899917602539 C-96.73699951171875,-42.34600067138672 -97.78500366210938,-39.83700180053711 -96.27100372314453,-38.50400161743164 C-96.27100372314453,-38.50400161743164 -67.09100341796875,-13.29800033569336 -67.09100341796875,-13.29800033569336 C-57.35200119018555,-4.478000164031982 -55.25600051879883,3.3239998817443848 -67.09100341796875,12.53600025177002 C-67.09100341796875,12.53600025177002 -96.27100372314453,37.742000579833984 -96.27100372314453,37.742000579833984 C-97.78500366210938,39.0359992980957 -96.7760009765625,41.58399963378906 -94.75800323486328,41.426998138427734 C-94.75800323486328,41.426998138427734 -56.49800109863281,38.409000396728516 -56.49800109863281,38.409000396728516 C-43.1879997253418,37.38999938964844 -37.32899856567383,41.03499984741211 -38.415000915527344,56.676998138427734 C-38.415000915527344,56.676998138427734 -41.40299987792969,95.36799621582031 -41.40299987792969,95.36799621582031 C-41.558998107910156,97.36799621582031 -39.07500076293945,98.4260025024414 -37.75600051879883,96.89700317382812 C-37.75600051879883,96.89700317382812 -12.805000305175781,67.41799926757812 -12.805000305175781,67.41799926757812 C-3.3369998931884766,56.676998138427734 3.7249999046325684,56.20600128173828 12.765999794006348,67.41799926757812 C12.765999794006348,67.41799926757812 37.71699905395508,96.89700317382812 37.71699905395508,96.89700317382812 C39.0359992980957,98.4260025024414 41.52000045776367,97.40699768066406 41.36399841308594,95.36799621582031 C41.36399841308594,95.36799621582031 38.37699890136719,56.715999603271484 38.37699890136719,56.715999603271484 C36.902000427246094,42.994998931884766 41.90800094604492,37.89899826049805 56.45899963378906,38.448001861572266 C56.45899963378906,38.448001861572266 94.75800323486328,41.465999603271484 94.75800323486328,41.465999603271484 C96.73699951171875,41.62300109863281 97.78500366210938,39.11399841308594 96.27100372314453,37.78200149536133 C96.27100372314453,37.78200149536133 67.09100341796875,12.574999809265137 67.09100341796875,12.574999809265137 C67.09100341796875,12.574999809265137 67.09100341796875,12.496999740600586 67.09100341796875,12.496999740600586z"></path></g></g><g transform="matrix(0.7364038825035095,0.31258490681648254,-0.31258490681648254,0.7364038825035095,56.35844039916992,-5.8565216064453125)" opacity="1" style="display: none;"><g opacity="1" transform="matrix(1,0,0,1,97,98.4260025024414)"><path fill="rgb(255,255,255)" fill-opacity="1" d=" M67.09100341796875,12.496999740600586 C56.61399841308594,2.931999921798706 55.76100158691406,-3.4579999446868896 67.09100341796875,-13.336999893188477 C67.09100341796875,-13.336999893188477 96.27100372314453,-38.54399871826172 96.27100372314453,-38.54399871826172 C97.78500366210938,-39.83700180053711 96.7760009765625,-42.3849983215332 94.75800323486328,-42.22800064086914 C94.75800323486328,-42.22800064086914 56.49800109863281,-39.209999084472656 56.49800109863281,-39.209999084472656 C42.02399826049805,-37.95600128173828 37.32899856567383,-43.444000244140625 38.415000915527344,-57.47800064086914 C38.415000915527344,-57.47800064086914 41.40299987792969,-96.16999816894531 41.40299987792969,-96.16999816894531 C41.55799865722656,-98.16899871826172 39.07500076293945,-99.22699737548828 37.75600051879883,-97.6989974975586 C37.75600051879883,-97.6989974975586 12.805000305175781,-68.21900177001953 12.805000305175781,-68.21900177001953 C3.880000114440918,-57.08599853515625 -4.1519999504089355,-57.98699951171875 -12.765999794006348,-68.21900177001953 C-12.765999794006348,-68.21900177001953 -37.71699905395508,-97.62000274658203 -37.71699905395508,-97.62000274658203 C-39.0359992980957,-99.14900207519531 -41.52000045776367,-98.12999725341797 -41.3650016784668,-96.09100341796875 C-41.3650016784668,-96.09100341796875 -38.37699890136719,-57.43899917602539 -38.37699890136719,-57.43899917602539 C-37.17399978637695,-43.99300003051758 -42.45100021362305,-38.191001892089844 -56.45899963378906,-39.17100143432617 C-56.45899963378906,-39.17100143432617 -94.75800323486328,-42.18899917602539 -94.75800323486328,-42.18899917602539 C-96.73699951171875,-42.34600067138672 -97.78500366210938,-39.83700180053711 -96.27100372314453,-38.50400161743164 C-96.27100372314453,-38.50400161743164 -67.09100341796875,-13.29800033569336 -67.09100341796875,-13.29800033569336 C-57.35200119018555,-4.478000164031982 -55.25600051879883,3.3239998817443848 -67.09100341796875,12.53600025177002 C-67.09100341796875,12.53600025177002 -96.27100372314453,37.742000579833984 -96.27100372314453,37.742000579833984 C-97.78500366210938,39.0359992980957 -96.7760009765625,41.58399963378906 -94.75800323486328,41.426998138427734 C-94.75800323486328,41.426998138427734 -56.49800109863281,38.409000396728516 -56.49800109863281,38.409000396728516 C-43.1879997253418,37.38999938964844 -37.32899856567383,41.03499984741211 -38.415000915527344,56.676998138427734 C-38.415000915527344,56.676998138427734 -41.40299987792969,95.36799621582031 -41.40299987792969,95.36799621582031 C-41.558998107910156,97.36799621582031 -39.07500076293945,98.4260025024414 -37.75600051879883,96.89700317382812 C-37.75600051879883,96.89700317382812 -12.805000305175781,67.41799926757812 -12.805000305175781,67.41799926757812 C-3.3369998931884766,56.676998138427734 3.7249999046325684,56.20600128173828 12.765999794006348,67.41799926757812 C12.765999794006348,67.41799926757812 37.71699905395508,96.89700317382812 37.71699905395508,96.89700317382812 C39.0359992980957,98.4260025024414 41.52000045776367,97.40699768066406 41.36399841308594,95.36799621582031 C41.36399841308594,95.36799621582031 38.37699890136719,56.715999603271484 38.37699890136719,56.715999603271484 C36.902000427246094,42.994998931884766 41.90800094604492,37.89899826049805 56.45899963378906,38.448001861572266 C56.45899963378906,38.448001861572266 94.75800323486328,41.465999603271484 94.75800323486328,41.465999603271484 C96.73699951171875,41.62300109863281 97.78500366210938,39.11399841308594 96.27100372314453,37.78200149536133 C96.27100372314453,37.78200149536133 67.09100341796875,12.574999809265137 67.09100341796875,12.574999809265137 C67.09100341796875,12.574999809265137 67.09100341796875,12.496999740600586 67.09100341796875,12.496999740600586z"></path></g></g><g transform="matrix(0.800000011920929,0,0,0.800000011920929,19.400001525878906,18.199996948242188)" opacity="1" style="display: none;"><g opacity="1" transform="matrix(1,0,0,1,97,98.4260025024414)"><path fill="rgb(255,255,255)" fill-opacity="1" d=" M67.09100341796875,12.496999740600586 C56.61399841308594,2.931999921798706 55.76100158691406,-3.4579999446868896 67.09100341796875,-13.336999893188477 C67.09100341796875,-13.336999893188477 96.27100372314453,-38.54399871826172 96.27100372314453,-38.54399871826172 C97.78500366210938,-39.83700180053711 96.7760009765625,-42.3849983215332 94.75800323486328,-42.22800064086914 C94.75800323486328,-42.22800064086914 56.49800109863281,-39.209999084472656 56.49800109863281,-39.209999084472656 C42.02399826049805,-37.95600128173828 37.32899856567383,-43.444000244140625 38.415000915527344,-57.47800064086914 C38.415000915527344,-57.47800064086914 41.40299987792969,-96.16999816894531 41.40299987792969,-96.16999816894531 C41.55799865722656,-98.16899871826172 39.07500076293945,-99.22699737548828 37.75600051879883,-97.6989974975586 C37.75600051879883,-97.6989974975586 12.805000305175781,-68.21900177001953 12.805000305175781,-68.21900177001953 C3.880000114440918,-57.08599853515625 -4.1519999504089355,-57.98699951171875 -12.765999794006348,-68.21900177001953 C-12.765999794006348,-68.21900177001953 -37.71699905395508,-97.62000274658203 -37.71699905395508,-97.62000274658203 C-39.0359992980957,-99.14900207519531 -41.52000045776367,-98.12999725341797 -41.3650016784668,-96.09100341796875 C-41.3650016784668,-96.09100341796875 -38.37699890136719,-57.43899917602539 -38.37699890136719,-57.43899917602539 C-37.17399978637695,-43.99300003051758 -42.45100021362305,-38.191001892089844 -56.45899963378906,-39.17100143432617 C-56.45899963378906,-39.17100143432617 -94.75800323486328,-42.18899917602539 -94.75800323486328,-42.18899917602539 C-96.73699951171875,-42.34600067138672 -97.78500366210938,-39.83700180053711 -96.27100372314453,-38.50400161743164 C-96.27100372314453,-38.50400161743164 -67.09100341796875,-13.29800033569336 -67.09100341796875,-13.29800033569336 C-57.35200119018555,-4.478000164031982 -55.25600051879883,3.3239998817443848 -67.09100341796875,12.53600025177002 C-67.09100341796875,12.53600025177002 -96.27100372314453,37.742000579833984 -96.27100372314453,37.742000579833984 C-97.78500366210938,39.0359992980957 -96.7760009765625,41.58399963378906 -94.75800323486328,41.426998138427734 C-94.75800323486328,41.426998138427734 -56.49800109863281,38.409000396728516 -56.49800109863281,38.409000396728516 C-43.1879997253418,37.38999938964844 -37.32899856567383,41.03499984741211 -38.415000915527344,56.676998138427734 C-38.415000915527344,56.676998138427734 -41.40299987792969,95.36799621582031 -41.40299987792969,95.36799621582031 C-41.558998107910156,97.36799621582031 -39.07500076293945,98.4260025024414 -37.75600051879883,96.89700317382812 C-37.75600051879883,96.89700317382812 -12.805000305175781,67.41799926757812 -12.805000305175781,67.41799926757812 C-3.3369998931884766,56.676998138427734 3.7249999046325684,56.20600128173828 12.765999794006348,67.41799926757812 C12.765999794006348,67.41799926757812 37.71699905395508,96.89700317382812 37.71699905395508,96.89700317382812 C39.0359992980957,98.4260025024414 41.52000045776367,97.40699768066406 41.36399841308594,95.36799621582031 C41.36399841308594,95.36799621582031 38.37699890136719,56.715999603271484 38.37699890136719,56.715999603271484 C36.902000427246094,42.994998931884766 41.90800094604492,37.89899826049805 56.45899963378906,38.448001861572266 C56.45899963378906,38.448001861572266 94.75800323486328,41.465999603271484 94.75800323486328,41.465999603271484 C96.73699951171875,41.62300109863281 97.78500366210938,39.11399841308594 96.27100372314453,37.78200149536133 C96.27100372314453,37.78200149536133 67.09100341796875,12.574999809265137 67.09100341796875,12.574999809265137 C67.09100341796875,12.574999809265137 67.09100341796875,12.496999740600586 67.09100341796875,12.496999740600586z"></path></g></g><g transform="matrix(0.7364038825035095,0.31258490681648254,-0.31258490681648254,0.7364038825035095,56.35844039916992,-5.8565216064453125)" opacity="1" style="display: none;"><g opacity="1" transform="matrix(1,0,0,1,97,98.4260025024414)"><path fill="rgb(255,255,255)" fill-opacity="1" d=" M67.09100341796875,12.496999740600586 C56.61399841308594,2.931999921798706 55.76100158691406,-3.4579999446868896 67.09100341796875,-13.336999893188477 C67.09100341796875,-13.336999893188477 96.27100372314453,-38.54399871826172 96.27100372314453,-38.54399871826172 C97.78500366210938,-39.83700180053711 96.7760009765625,-42.3849983215332 94.75800323486328,-42.22800064086914 C94.75800323486328,-42.22800064086914 56.49800109863281,-39.209999084472656 56.49800109863281,-39.209999084472656 C42.02399826049805,-37.95600128173828 37.32899856567383,-43.444000244140625 38.415000915527344,-57.47800064086914 C38.415000915527344,-57.47800064086914 41.40299987792969,-96.16999816894531 41.40299987792969,-96.16999816894531 C41.55799865722656,-98.16899871826172 39.07500076293945,-99.22699737548828 37.75600051879883,-97.6989974975586 C37.75600051879883,-97.6989974975586 12.805000305175781,-68.21900177001953 12.805000305175781,-68.21900177001953 C3.880000114440918,-57.08599853515625 -4.1519999504089355,-57.98699951171875 -12.765999794006348,-68.21900177001953 C-12.765999794006348,-68.21900177001953 -37.71699905395508,-97.62000274658203 -37.71699905395508,-97.62000274658203 C-39.0359992980957,-99.14900207519531 -41.52000045776367,-98.12999725341797 -41.3650016784668,-96.09100341796875 C-41.3650016784668,-96.09100341796875 -38.37699890136719,-57.43899917602539 -38.37699890136719,-57.43899917602539 C-37.17399978637695,-43.99300003051758 -42.45100021362305,-38.191001892089844 -56.45899963378906,-39.17100143432617 C-56.45899963378906,-39.17100143432617 -94.75800323486328,-42.18899917602539 -94.75800323486328,-42.18899917602539 C-96.73699951171875,-42.34600067138672 -97.78500366210938,-39.83700180053711 -96.27100372314453,-38.50400161743164 C-96.27100372314453,-38.50400161743164 -67.09100341796875,-13.29800033569336 -67.09100341796875,-13.29800033569336 C-57.35200119018555,-4.478000164031982 -55.25600051879883,3.3239998817443848 -67.09100341796875,12.53600025177002 C-67.09100341796875,12.53600025177002 -96.27100372314453,37.742000579833984 -96.27100372314453,37.742000579833984 C-97.78500366210938,39.0359992980957 -96.7760009765625,41.58399963378906 -94.75800323486328,41.426998138427734 C-94.75800323486328,41.426998138427734 -56.49800109863281,38.409000396728516 -56.49800109863281,38.409000396728516 C-43.1879997253418,37.38999938964844 -37.32899856567383,41.03499984741211 -38.415000915527344,56.676998138427734 C-38.415000915527344,56.676998138427734 -41.40299987792969,95.36799621582031 -41.40299987792969,95.36799621582031 C-41.558998107910156,97.36799621582031 -39.07500076293945,98.4260025024414 -37.75600051879883,96.89700317382812 C-37.75600051879883,96.89700317382812 -12.805000305175781,67.41799926757812 -12.805000305175781,67.41799926757812 C-3.3369998931884766,56.676998138427734 3.7249999046325684,56.20600128173828 12.765999794006348,67.41799926757812 C12.765999794006348,67.41799926757812 37.71699905395508,96.89700317382812 37.71699905395508,96.89700317382812 C39.0359992980957,98.4260025024414 41.52000045776367,97.40699768066406 41.36399841308594,95.36799621582031 C41.36399841308594,95.36799621582031 38.37699890136719,56.715999603271484 38.37699890136719,56.715999603271484 C36.902000427246094,42.994998931884766 41.90800094604492,37.89899826049805 56.45899963378906,38.448001861572266 C56.45899963378906,38.448001861572266 94.75800323486328,41.465999603271484 94.75800323486328,41.465999603271484 C96.73699951171875,41.62300109863281 97.78500366210938,39.11399841308594 96.27100372314453,37.78200149536133 C96.27100372314453,37.78200149536133 67.09100341796875,12.574999809265137 67.09100341796875,12.574999809265137 C67.09100341796875,12.574999809265137 67.09100341796875,12.496999740600586 67.09100341796875,12.496999740600586z"></path></g></g><g transform="matrix(0.800000011920929,0,0,0.800000011920929,19.400001525878906,18.199996948242188)" opacity="1" style="display: none;"><g opacity="1" transform="matrix(1,0,0,1,97,98.4260025024414)"><path fill="rgb(255,255,255)" fill-opacity="1" d=" M67.09100341796875,12.496999740600586 C56.61399841308594,2.931999921798706 55.76100158691406,-3.4579999446868896 67.09100341796875,-13.336999893188477 C67.09100341796875,-13.336999893188477 96.27100372314453,-38.54399871826172 96.27100372314453,-38.54399871826172 C97.78500366210938,-39.83700180053711 96.7760009765625,-42.3849983215332 94.75800323486328,-42.22800064086914 C94.75800323486328,-42.22800064086914 56.49800109863281,-39.209999084472656 56.49800109863281,-39.209999084472656 C42.02399826049805,-37.95600128173828 37.32899856567383,-43.444000244140625 38.415000915527344,-57.47800064086914 C38.415000915527344,-57.47800064086914 41.40299987792969,-96.16999816894531 41.40299987792969,-96.16999816894531 C41.55799865722656,-98.16899871826172 39.07500076293945,-99.22699737548828 37.75600051879883,-97.6989974975586 C37.75600051879883,-97.6989974975586 12.805000305175781,-68.21900177001953 12.805000305175781,-68.21900177001953 C3.880000114440918,-57.08599853515625 -4.1519999504089355,-57.98699951171875 -12.765999794006348,-68.21900177001953 C-12.765999794006348,-68.21900177001953 -37.71699905395508,-97.62000274658203 -37.71699905395508,-97.62000274658203 C-39.0359992980957,-99.14900207519531 -41.52000045776367,-98.12999725341797 -41.3650016784668,-96.09100341796875 C-41.3650016784668,-96.09100341796875 -38.37699890136719,-57.43899917602539 -38.37699890136719,-57.43899917602539 C-37.17399978637695,-43.99300003051758 -42.45100021362305,-38.191001892089844 -56.45899963378906,-39.17100143432617 C-56.45899963378906,-39.17100143432617 -94.75800323486328,-42.18899917602539 -94.75800323486328,-42.18899917602539 C-96.73699951171875,-42.34600067138672 -97.78500366210938,-39.83700180053711 -96.27100372314453,-38.50400161743164 C-96.27100372314453,-38.50400161743164 -67.09100341796875,-13.29800033569336 -67.09100341796875,-13.29800033569336 C-57.35200119018555,-4.478000164031982 -55.25600051879883,3.3239998817443848 -67.09100341796875,12.53600025177002 C-67.09100341796875,12.53600025177002 -96.27100372314453,37.742000579833984 -96.27100372314453,37.742000579833984 C-97.78500366210938,39.0359992980957 -96.7760009765625,41.58399963378906 -94.75800323486328,41.426998138427734 C-94.75800323486328,41.426998138427734 -56.49800109863281,38.409000396728516 -56.49800109863281,38.409000396728516 C-43.1879997253418,37.38999938964844 -37.32899856567383,41.03499984741211 -38.415000915527344,56.676998138427734 C-38.415000915527344,56.676998138427734 -41.40299987792969,95.36799621582031 -41.40299987792969,95.36799621582031 C-41.558998107910156,97.36799621582031 -39.07500076293945,98.4260025024414 -37.75600051879883,96.89700317382812 C-37.75600051879883,96.89700317382812 -12.805000305175781,67.41799926757812 -12.805000305175781,67.41799926757812 C-3.3369998931884766,56.676998138427734 3.7249999046325684,56.20600128173828 12.765999794006348,67.41799926757812 C12.765999794006348,67.41799926757812 37.71699905395508,96.89700317382812 37.71699905395508,96.89700317382812 C39.0359992980957,98.4260025024414 41.52000045776367,97.40699768066406 41.36399841308594,95.36799621582031 C41.36399841308594,95.36799621582031 38.37699890136719,56.715999603271484 38.37699890136719,56.715999603271484 C36.902000427246094,42.994998931884766 41.90800094604492,37.89899826049805 56.45899963378906,38.448001861572266 C56.45899963378906,38.448001861572266 94.75800323486328,41.465999603271484 94.75800323486328,41.465999603271484 C96.73699951171875,41.62300109863281 97.78500366210938,39.11399841308594 96.27100372314453,37.78200149536133 C96.27100372314453,37.78200149536133 67.09100341796875,12.574999809265137 67.09100341796875,12.574999809265137 C67.09100341796875,12.574999809265137 67.09100341796875,12.496999740600586 67.09100341796875,12.496999740600586z"></path></g></g><g transform="matrix(0.7364038825035095,0.31258490681648254,-0.31258490681648254,0.7364038825035095,56.35844039916992,-5.8565216064453125)" opacity="1" style="display: block;"><g opacity="1" transform="matrix(1,0,0,1,97,98.4260025024414)"><path fill="rgb(255,255,255)" fill-opacity="1" d=" M67.09100341796875,12.496999740600586 C56.61399841308594,2.931999921798706 55.76100158691406,-3.4579999446868896 67.09100341796875,-13.336999893188477 C67.09100341796875,-13.336999893188477 96.27100372314453,-38.54399871826172 96.27100372314453,-38.54399871826172 C97.78500366210938,-39.83700180053711 96.7760009765625,-42.3849983215332 94.75800323486328,-42.22800064086914 C94.75800323486328,-42.22800064086914 56.49800109863281,-39.209999084472656 56.49800109863281,-39.209999084472656 C42.02399826049805,-37.95600128173828 37.32899856567383,-43.444000244140625 38.415000915527344,-57.47800064086914 C38.415000915527344,-57.47800064086914 41.40299987792969,-96.16999816894531 41.40299987792969,-96.16999816894531 C41.55799865722656,-98.16899871826172 39.07500076293945,-99.22699737548828 37.75600051879883,-97.6989974975586 C37.75600051879883,-97.6989974975586 12.805000305175781,-68.21900177001953 12.805000305175781,-68.21900177001953 C3.880000114440918,-57.08599853515625 -4.1519999504089355,-57.98699951171875 -12.765999794006348,-68.21900177001953 C-12.765999794006348,-68.21900177001953 -37.71699905395508,-97.62000274658203 -37.71699905395508,-97.62000274658203 C-39.0359992980957,-99.14900207519531 -41.52000045776367,-98.12999725341797 -41.3650016784668,-96.09100341796875 C-41.3650016784668,-96.09100341796875 -38.37699890136719,-57.43899917602539 -38.37699890136719,-57.43899917602539 C-37.17399978637695,-43.99300003051758 -42.45100021362305,-38.191001892089844 -56.45899963378906,-39.17100143432617 C-56.45899963378906,-39.17100143432617 -94.75800323486328,-42.18899917602539 -94.75800323486328,-42.18899917602539 C-96.73699951171875,-42.34600067138672 -97.78500366210938,-39.83700180053711 -96.27100372314453,-38.50400161743164 C-96.27100372314453,-38.50400161743164 -67.09100341796875,-13.29800033569336 -67.09100341796875,-13.29800033569336 C-57.35200119018555,-4.478000164031982 -55.25600051879883,3.3239998817443848 -67.09100341796875,12.53600025177002 C-67.09100341796875,12.53600025177002 -96.27100372314453,37.742000579833984 -96.27100372314453,37.742000579833984 C-97.78500366210938,39.0359992980957 -96.7760009765625,41.58399963378906 -94.75800323486328,41.426998138427734 C-94.75800323486328,41.426998138427734 -56.49800109863281,38.409000396728516 -56.49800109863281,38.409000396728516 C-43.1879997253418,37.38999938964844 -37.32899856567383,41.03499984741211 -38.415000915527344,56.676998138427734 C-38.415000915527344,56.676998138427734 -41.40299987792969,95.36799621582031 -41.40299987792969,95.36799621582031 C-41.558998107910156,97.36799621582031 -39.07500076293945,98.4260025024414 -37.75600051879883,96.89700317382812 C-37.75600051879883,96.89700317382812 -12.805000305175781,67.41799926757812 -12.805000305175781,67.41799926757812 C-3.3369998931884766,56.676998138427734 3.7249999046325684,56.20600128173828 12.765999794006348,67.41799926757812 C12.765999794006348,67.41799926757812 37.71699905395508,96.89700317382812 37.71699905395508,96.89700317382812 C39.0359992980957,98.4260025024414 41.52000045776367,97.40699768066406 41.36399841308594,95.36799621582031 C41.36399841308594,95.36799621582031 38.37699890136719,56.715999603271484 38.37699890136719,56.715999603271484 C36.902000427246094,42.994998931884766 41.90800094604492,37.89899826049805 56.45899963378906,38.448001861572266 C56.45899963378906,38.448001861572266 94.75800323486328,41.465999603271484 94.75800323486328,41.465999603271484 C96.73699951171875,41.62300109863281 97.78500366210938,39.11399841308594 96.27100372314453,37.78200149536133 C96.27100372314453,37.78200149536133 67.09100341796875,12.574999809265137 67.09100341796875,12.574999809265137 C67.09100341796875,12.574999809265137 67.09100341796875,12.496999740600586 67.09100341796875,12.496999740600586z"></path></g></g><g transform="matrix(0.800000011920929,0,0,0.800000011920929,19.400001525878906,18.199996948242188)" opacity="1" style="display: none;"><g opacity="1" transform="matrix(1,0,0,1,97,98.4260025024414)"><path fill="rgb(255,255,255)" fill-opacity="1" d=" M67.09100341796875,12.496999740600586 C56.61399841308594,2.931999921798706 55.76100158691406,-3.4579999446868896 67.09100341796875,-13.336999893188477 C67.09100341796875,-13.336999893188477 96.27100372314453,-38.54399871826172 96.27100372314453,-38.54399871826172 C97.78500366210938,-39.83700180053711 96.7760009765625,-42.3849983215332 94.75800323486328,-42.22800064086914 C94.75800323486328,-42.22800064086914 56.49800109863281,-39.209999084472656 56.49800109863281,-39.209999084472656 C42.02399826049805,-37.95600128173828 37.32899856567383,-43.444000244140625 38.415000915527344,-57.47800064086914 C38.415000915527344,-57.47800064086914 41.40299987792969,-96.16999816894531 41.40299987792969,-96.16999816894531 C41.55799865722656,-98.16899871826172 39.07500076293945,-99.22699737548828 37.75600051879883,-97.6989974975586 C37.75600051879883,-97.6989974975586 12.805000305175781,-68.21900177001953 12.805000305175781,-68.21900177001953 C3.880000114440918,-57.08599853515625 -4.1519999504089355,-57.98699951171875 -12.765999794006348,-68.21900177001953 C-12.765999794006348,-68.21900177001953 -37.71699905395508,-97.62000274658203 -37.71699905395508,-97.62000274658203 C-39.0359992980957,-99.14900207519531 -41.52000045776367,-98.12999725341797 -41.3650016784668,-96.09100341796875 C-41.3650016784668,-96.09100341796875 -38.37699890136719,-57.43899917602539 -38.37699890136719,-57.43899917602539 C-37.17399978637695,-43.99300003051758 -42.45100021362305,-38.191001892089844 -56.45899963378906,-39.17100143432617 C-56.45899963378906,-39.17100143432617 -94.75800323486328,-42.18899917602539 -94.75800323486328,-42.18899917602539 C-96.73699951171875,-42.34600067138672 -97.78500366210938,-39.83700180053711 -96.27100372314453,-38.50400161743164 C-96.27100372314453,-38.50400161743164 -67.09100341796875,-13.29800033569336 -67.09100341796875,-13.29800033569336 C-57.35200119018555,-4.478000164031982 -55.25600051879883,3.3239998817443848 -67.09100341796875,12.53600025177002 C-67.09100341796875,12.53600025177002 -96.27100372314453,37.742000579833984 -96.27100372314453,37.742000579833984 C-97.78500366210938,39.0359992980957 -96.7760009765625,41.58399963378906 -94.75800323486328,41.426998138427734 C-94.75800323486328,41.426998138427734 -56.49800109863281,38.409000396728516 -56.49800109863281,38.409000396728516 C-43.1879997253418,37.38999938964844 -37.32899856567383,41.03499984741211 -38.415000915527344,56.676998138427734 C-38.415000915527344,56.676998138427734 -41.40299987792969,95.36799621582031 -41.40299987792969,95.36799621582031 C-41.558998107910156,97.36799621582031 -39.07500076293945,98.4260025024414 -37.75600051879883,96.89700317382812 C-37.75600051879883,96.89700317382812 -12.805000305175781,67.41799926757812 -12.805000305175781,67.41799926757812 C-3.3369998931884766,56.676998138427734 3.7249999046325684,56.20600128173828 12.765999794006348,67.41799926757812 C12.765999794006348,67.41799926757812 37.71699905395508,96.89700317382812 37.71699905395508,96.89700317382812 C39.0359992980957,98.4260025024414 41.52000045776367,97.40699768066406 41.36399841308594,95.36799621582031 C41.36399841308594,95.36799621582031 38.37699890136719,56.715999603271484 38.37699890136719,56.715999603271484 C36.902000427246094,42.994998931884766 41.90800094604492,37.89899826049805 56.45899963378906,38.448001861572266 C56.45899963378906,38.448001861572266 94.75800323486328,41.465999603271484 94.75800323486328,41.465999603271484 C96.73699951171875,41.62300109863281 97.78500366210938,39.11399841308594 96.27100372314453,37.78200149536133 C96.27100372314453,37.78200149536133 67.09100341796875,12.574999809265137 67.09100341796875,12.574999809265137 C67.09100341796875,12.574999809265137 67.09100341796875,12.496999740600586 67.09100341796875,12.496999740600586z"></path></g></g><g transform="matrix(0.7364038825035095,0.31258490681648254,-0.31258490681648254,0.7364038825035095,56.35844039916992,-5.8565216064453125)" opacity="1" style="display: none;"><g opacity="1" transform="matrix(1,0,0,1,97,98.4260025024414)"><path fill="rgb(255,255,255)" fill-opacity="1" d=" M67.09100341796875,12.496999740600586 C56.61399841308594,2.931999921798706 55.76100158691406,-3.4579999446868896 67.09100341796875,-13.336999893188477 C67.09100341796875,-13.336999893188477 96.27100372314453,-38.54399871826172 96.27100372314453,-38.54399871826172 C97.78500366210938,-39.83700180053711 96.7760009765625,-42.3849983215332 94.75800323486328,-42.22800064086914 C94.75800323486328,-42.22800064086914 56.49800109863281,-39.209999084472656 56.49800109863281,-39.209999084472656 C42.02399826049805,-37.95600128173828 37.32899856567383,-43.444000244140625 38.415000915527344,-57.47800064086914 C38.415000915527344,-57.47800064086914 41.40299987792969,-96.16999816894531 41.40299987792969,-96.16999816894531 C41.55799865722656,-98.16899871826172 39.07500076293945,-99.22699737548828 37.75600051879883,-97.6989974975586 C37.75600051879883,-97.6989974975586 12.805000305175781,-68.21900177001953 12.805000305175781,-68.21900177001953 C3.880000114440918,-57.08599853515625 -4.1519999504089355,-57.98699951171875 -12.765999794006348,-68.21900177001953 C-12.765999794006348,-68.21900177001953 -37.71699905395508,-97.62000274658203 -37.71699905395508,-97.62000274658203 C-39.0359992980957,-99.14900207519531 -41.52000045776367,-98.12999725341797 -41.3650016784668,-96.09100341796875 C-41.3650016784668,-96.09100341796875 -38.37699890136719,-57.43899917602539 -38.37699890136719,-57.43899917602539 C-37.17399978637695,-43.99300003051758 -42.45100021362305,-38.191001892089844 -56.45899963378906,-39.17100143432617 C-56.45899963378906,-39.17100143432617 -94.75800323486328,-42.18899917602539 -94.75800323486328,-42.18899917602539 C-96.73699951171875,-42.34600067138672 -97.78500366210938,-39.83700180053711 -96.27100372314453,-38.50400161743164 C-96.27100372314453,-38.50400161743164 -67.09100341796875,-13.29800033569336 -67.09100341796875,-13.29800033569336 C-57.35200119018555,-4.478000164031982 -55.25600051879883,3.3239998817443848 -67.09100341796875,12.53600025177002 C-67.09100341796875,12.53600025177002 -96.27100372314453,37.742000579833984 -96.27100372314453,37.742000579833984 C-97.78500366210938,39.0359992980957 -96.7760009765625,41.58399963378906 -94.75800323486328,41.426998138427734 C-94.75800323486328,41.426998138427734 -56.49800109863281,38.409000396728516 -56.49800109863281,38.409000396728516 C-43.1879997253418,37.38999938964844 -37.32899856567383,41.03499984741211 -38.415000915527344,56.676998138427734 C-38.415000915527344,56.676998138427734 -41.40299987792969,95.36799621582031 -41.40299987792969,95.36799621582031 C-41.558998107910156,97.36799621582031 -39.07500076293945,98.4260025024414 -37.75600051879883,96.89700317382812 C-37.75600051879883,96.89700317382812 -12.805000305175781,67.41799926757812 -12.805000305175781,67.41799926757812 C-3.3369998931884766,56.676998138427734 3.7249999046325684,56.20600128173828 12.765999794006348,67.41799926757812 C12.765999794006348,67.41799926757812 37.71699905395508,96.89700317382812 37.71699905395508,96.89700317382812 C39.0359992980957,98.4260025024414 41.52000045776367,97.40699768066406 41.36399841308594,95.36799621582031 C41.36399841308594,95.36799621582031 38.37699890136719,56.715999603271484 38.37699890136719,56.715999603271484 C36.902000427246094,42.994998931884766 41.90800094604492,37.89899826049805 56.45899963378906,38.448001861572266 C56.45899963378906,38.448001861572266 94.75800323486328,41.465999603271484 94.75800323486328,41.465999603271484 C96.73699951171875,41.62300109863281 97.78500366210938,39.11399841308594 96.27100372314453,37.78200149536133 C96.27100372314453,37.78200149536133 67.09100341796875,12.574999809265137 67.09100341796875,12.574999809265137 C67.09100341796875,12.574999809265137 67.09100341796875,12.496999740600586 67.09100341796875,12.496999740600586z"></path></g></g><g transform="matrix(0.800000011920929,0,0,0.800000011920929,19.400001525878906,18.199996948242188)" opacity="1" style="display: none;"><g opacity="1" transform="matrix(1,0,0,1,97,98.4260025024414)"><path fill="rgb(255,255,255)" fill-opacity="1" d=" M67.09100341796875,12.496999740600586 C56.61399841308594,2.931999921798706 55.76100158691406,-3.4579999446868896 67.09100341796875,-13.336999893188477 C67.09100341796875,-13.336999893188477 96.27100372314453,-38.54399871826172 96.27100372314453,-38.54399871826172 C97.78500366210938,-39.83700180053711 96.7760009765625,-42.3849983215332 94.75800323486328,-42.22800064086914 C94.75800323486328,-42.22800064086914 56.49800109863281,-39.209999084472656 56.49800109863281,-39.209999084472656 C42.02399826049805,-37.95600128173828 37.32899856567383,-43.444000244140625 38.415000915527344,-57.47800064086914 C38.415000915527344,-57.47800064086914 41.40299987792969,-96.16999816894531 41.40299987792969,-96.16999816894531 C41.55799865722656,-98.16899871826172 39.07500076293945,-99.22699737548828 37.75600051879883,-97.6989974975586 C37.75600051879883,-97.6989974975586 12.805000305175781,-68.21900177001953 12.805000305175781,-68.21900177001953 C3.880000114440918,-57.08599853515625 -4.1519999504089355,-57.98699951171875 -12.765999794006348,-68.21900177001953 C-12.765999794006348,-68.21900177001953 -37.71699905395508,-97.62000274658203 -37.71699905395508,-97.62000274658203 C-39.0359992980957,-99.14900207519531 -41.52000045776367,-98.12999725341797 -41.3650016784668,-96.09100341796875 C-41.3650016784668,-96.09100341796875 -38.37699890136719,-57.43899917602539 -38.37699890136719,-57.43899917602539 C-37.17399978637695,-43.99300003051758 -42.45100021362305,-38.191001892089844 -56.45899963378906,-39.17100143432617 C-56.45899963378906,-39.17100143432617 -94.75800323486328,-42.18899917602539 -94.75800323486328,-42.18899917602539 C-96.73699951171875,-42.34600067138672 -97.78500366210938,-39.83700180053711 -96.27100372314453,-38.50400161743164 C-96.27100372314453,-38.50400161743164 -67.09100341796875,-13.29800033569336 -67.09100341796875,-13.29800033569336 C-57.35200119018555,-4.478000164031982 -55.25600051879883,3.3239998817443848 -67.09100341796875,12.53600025177002 C-67.09100341796875,12.53600025177002 -96.27100372314453,37.742000579833984 -96.27100372314453,37.742000579833984 C-97.78500366210938,39.0359992980957 -96.7760009765625,41.58399963378906 -94.75800323486328,41.426998138427734 C-94.75800323486328,41.426998138427734 -56.49800109863281,38.409000396728516 -56.49800109863281,38.409000396728516 C-43.1879997253418,37.38999938964844 -37.32899856567383,41.03499984741211 -38.415000915527344,56.676998138427734 C-38.415000915527344,56.676998138427734 -41.40299987792969,95.36799621582031 -41.40299987792969,95.36799621582031 C-41.558998107910156,97.36799621582031 -39.07500076293945,98.4260025024414 -37.75600051879883,96.89700317382812 C-37.75600051879883,96.89700317382812 -12.805000305175781,67.41799926757812 -12.805000305175781,67.41799926757812 C-3.3369998931884766,56.676998138427734 3.7249999046325684,56.20600128173828 12.765999794006348,67.41799926757812 C12.765999794006348,67.41799926757812 37.71699905395508,96.89700317382812 37.71699905395508,96.89700317382812 C39.0359992980957,98.4260025024414 41.52000045776367,97.40699768066406 41.36399841308594,95.36799621582031 C41.36399841308594,95.36799621582031 38.37699890136719,56.715999603271484 38.37699890136719,56.715999603271484 C36.902000427246094,42.994998931884766 41.90800094604492,37.89899826049805 56.45899963378906,38.448001861572266 C56.45899963378906,38.448001861572266 94.75800323486328,41.465999603271484 94.75800323486328,41.465999603271484 C96.73699951171875,41.62300109863281 97.78500366210938,39.11399841308594 96.27100372314453,37.78200149536133 C96.27100372314453,37.78200149536133 67.09100341796875,12.574999809265137 67.09100341796875,12.574999809265137 C67.09100341796875,12.574999809265137 67.09100341796875,12.496999740600586 67.09100341796875,12.496999740600586z"></path></g></g><g transform="matrix(0.7364038825035095,0.31258490681648254,-0.31258490681648254,0.7364038825035095,56.35844039916992,-5.8565216064453125)" opacity="1" style="display: none;"><g opacity="1" transform="matrix(1,0,0,1,97,98.4260025024414)"><path fill="rgb(255,255,255)" fill-opacity="1" d=" M67.09100341796875,12.496999740600586 C56.61399841308594,2.931999921798706 55.76100158691406,-3.4579999446868896 67.09100341796875,-13.336999893188477 C67.09100341796875,-13.336999893188477 96.27100372314453,-38.54399871826172 96.27100372314453,-38.54399871826172 C97.78500366210938,-39.83700180053711 96.7760009765625,-42.3849983215332 94.75800323486328,-42.22800064086914 C94.75800323486328,-42.22800064086914 56.49800109863281,-39.209999084472656 56.49800109863281,-39.209999084472656 C42.02399826049805,-37.95600128173828 37.32899856567383,-43.444000244140625 38.415000915527344,-57.47800064086914 C38.415000915527344,-57.47800064086914 41.40299987792969,-96.16999816894531 41.40299987792969,-96.16999816894531 C41.55799865722656,-98.16899871826172 39.07500076293945,-99.22699737548828 37.75600051879883,-97.6989974975586 C37.75600051879883,-97.6989974975586 12.805000305175781,-68.21900177001953 12.805000305175781,-68.21900177001953 C3.880000114440918,-57.08599853515625 -4.1519999504089355,-57.98699951171875 -12.765999794006348,-68.21900177001953 C-12.765999794006348,-68.21900177001953 -37.71699905395508,-97.62000274658203 -37.71699905395508,-97.62000274658203 C-39.0359992980957,-99.14900207519531 -41.52000045776367,-98.12999725341797 -41.3650016784668,-96.09100341796875 C-41.3650016784668,-96.09100341796875 -38.37699890136719,-57.43899917602539 -38.37699890136719,-57.43899917602539 C-37.17399978637695,-43.99300003051758 -42.45100021362305,-38.191001892089844 -56.45899963378906,-39.17100143432617 C-56.45899963378906,-39.17100143432617 -94.75800323486328,-42.18899917602539 -94.75800323486328,-42.18899917602539 C-96.73699951171875,-42.34600067138672 -97.78500366210938,-39.83700180053711 -96.27100372314453,-38.50400161743164 C-96.27100372314453,-38.50400161743164 -67.09100341796875,-13.29800033569336 -67.09100341796875,-13.29800033569336 C-57.35200119018555,-4.478000164031982 -55.25600051879883,3.3239998817443848 -67.09100341796875,12.53600025177002 C-67.09100341796875,12.53600025177002 -96.27100372314453,37.742000579833984 -96.27100372314453,37.742000579833984 C-97.78500366210938,39.0359992980957 -96.7760009765625,41.58399963378906 -94.75800323486328,41.426998138427734 C-94.75800323486328,41.426998138427734 -56.49800109863281,38.409000396728516 -56.49800109863281,38.409000396728516 C-43.1879997253418,37.38999938964844 -37.32899856567383,41.03499984741211 -38.415000915527344,56.676998138427734 C-38.415000915527344,56.676998138427734 -41.40299987792969,95.36799621582031 -41.40299987792969,95.36799621582031 C-41.558998107910156,97.36799621582031 -39.07500076293945,98.4260025024414 -37.75600051879883,96.89700317382812 C-37.75600051879883,96.89700317382812 -12.805000305175781,67.41799926757812 -12.805000305175781,67.41799926757812 C-3.3369998931884766,56.676998138427734 3.7249999046325684,56.20600128173828 12.765999794006348,67.41799926757812 C12.765999794006348,67.41799926757812 37.71699905395508,96.89700317382812 37.71699905395508,96.89700317382812 C39.0359992980957,98.4260025024414 41.52000045776367,97.40699768066406 41.36399841308594,95.36799621582031 C41.36399841308594,95.36799621582031 38.37699890136719,56.715999603271484 38.37699890136719,56.715999603271484 C36.902000427246094,42.994998931884766 41.90800094604492,37.89899826049805 56.45899963378906,38.448001861572266 C56.45899963378906,38.448001861572266 94.75800323486328,41.465999603271484 94.75800323486328,41.465999603271484 C96.73699951171875,41.62300109863281 97.78500366210938,39.11399841308594 96.27100372314453,37.78200149536133 C96.27100372314453,37.78200149536133 67.09100341796875,12.574999809265137 67.09100341796875,12.574999809265137 C67.09100341796875,12.574999809265137 67.09100341796875,12.496999740600586 67.09100341796875,12.496999740600586z"></path></g></g><g transform="matrix(0.800000011920929,0,0,0.800000011920929,19.400001525878906,18.199996948242188)" opacity="1" style="display: none;"><g opacity="1" transform="matrix(1,0,0,1,97,98.4260025024414)"><path fill="rgb(255,255,255)" fill-opacity="1" d=" M67.09100341796875,12.496999740600586 C56.61399841308594,2.931999921798706 55.76100158691406,-3.4579999446868896 67.09100341796875,-13.336999893188477 C67.09100341796875,-13.336999893188477 96.27100372314453,-38.54399871826172 96.27100372314453,-38.54399871826172 C97.78500366210938,-39.83700180053711 96.7760009765625,-42.3849983215332 94.75800323486328,-42.22800064086914 C94.75800323486328,-42.22800064086914 56.49800109863281,-39.209999084472656 56.49800109863281,-39.209999084472656 C42.02399826049805,-37.95600128173828 37.32899856567383,-43.444000244140625 38.415000915527344,-57.47800064086914 C38.415000915527344,-57.47800064086914 41.40299987792969,-96.16999816894531 41.40299987792969,-96.16999816894531 C41.55799865722656,-98.16899871826172 39.07500076293945,-99.22699737548828 37.75600051879883,-97.6989974975586 C37.75600051879883,-97.6989974975586 12.805000305175781,-68.21900177001953 12.805000305175781,-68.21900177001953 C3.880000114440918,-57.08599853515625 -4.1519999504089355,-57.98699951171875 -12.765999794006348,-68.21900177001953 C-12.765999794006348,-68.21900177001953 -37.71699905395508,-97.62000274658203 -37.71699905395508,-97.62000274658203 C-39.0359992980957,-99.14900207519531 -41.52000045776367,-98.12999725341797 -41.3650016784668,-96.09100341796875 C-41.3650016784668,-96.09100341796875 -38.37699890136719,-57.43899917602539 -38.37699890136719,-57.43899917602539 C-37.17399978637695,-43.99300003051758 -42.45100021362305,-38.191001892089844 -56.45899963378906,-39.17100143432617 C-56.45899963378906,-39.17100143432617 -94.75800323486328,-42.18899917602539 -94.75800323486328,-42.18899917602539 C-96.73699951171875,-42.34600067138672 -97.78500366210938,-39.83700180053711 -96.27100372314453,-38.50400161743164 C-96.27100372314453,-38.50400161743164 -67.09100341796875,-13.29800033569336 -67.09100341796875,-13.29800033569336 C-57.35200119018555,-4.478000164031982 -55.25600051879883,3.3239998817443848 -67.09100341796875,12.53600025177002 C-67.09100341796875,12.53600025177002 -96.27100372314453,37.742000579833984 -96.27100372314453,37.742000579833984 C-97.78500366210938,39.0359992980957 -96.7760009765625,41.58399963378906 -94.75800323486328,41.426998138427734 C-94.75800323486328,41.426998138427734 -56.49800109863281,38.409000396728516 -56.49800109863281,38.409000396728516 C-43.1879997253418,37.38999938964844 -37.32899856567383,41.03499984741211 -38.415000915527344,56.676998138427734 C-38.415000915527344,56.676998138427734 -41.40299987792969,95.36799621582031 -41.40299987792969,95.36799621582031 C-41.558998107910156,97.36799621582031 -39.07500076293945,98.4260025024414 -37.75600051879883,96.89700317382812 C-37.75600051879883,96.89700317382812 -12.805000305175781,67.41799926757812 -12.805000305175781,67.41799926757812 C-3.3369998931884766,56.676998138427734 3.7249999046325684,56.20600128173828 12.765999794006348,67.41799926757812 C12.765999794006348,67.41799926757812 37.71699905395508,96.89700317382812 37.71699905395508,96.89700317382812 C39.0359992980957,98.4260025024414 41.52000045776367,97.40699768066406 41.36399841308594,95.36799621582031 C41.36399841308594,95.36799621582031 38.37699890136719,56.715999603271484 38.37699890136719,56.715999603271484 C36.902000427246094,42.994998931884766 41.90800094604492,37.89899826049805 56.45899963378906,38.448001861572266 C56.45899963378906,38.448001861572266 94.75800323486328,41.465999603271484 94.75800323486328,41.465999603271484 C96.73699951171875,41.62300109863281 97.78500366210938,39.11399841308594 96.27100372314453,37.78200149536133 C96.27100372314453,37.78200149536133 67.09100341796875,12.574999809265137 67.09100341796875,12.574999809265137 C67.09100341796875,12.574999809265137 67.09100341796875,12.496999740600586 67.09100341796875,12.496999740600586z"></path></g></g><g transform="matrix(0.7364038825035095,0.31258490681648254,-0.31258490681648254,0.7364038825035095,56.35844039916992,-5.8565216064453125)" opacity="1" style="display: none;"><g opacity="1" transform="matrix(1,0,0,1,97,98.4260025024414)"><path fill="rgb(255,255,255)" fill-opacity="1" d=" M67.09100341796875,12.496999740600586 C56.61399841308594,2.931999921798706 55.76100158691406,-3.4579999446868896 67.09100341796875,-13.336999893188477 C67.09100341796875,-13.336999893188477 96.27100372314453,-38.54399871826172 96.27100372314453,-38.54399871826172 C97.78500366210938,-39.83700180053711 96.7760009765625,-42.3849983215332 94.75800323486328,-42.22800064086914 C94.75800323486328,-42.22800064086914 56.49800109863281,-39.209999084472656 56.49800109863281,-39.209999084472656 C42.02399826049805,-37.95600128173828 37.32899856567383,-43.444000244140625 38.415000915527344,-57.47800064086914 C38.415000915527344,-57.47800064086914 41.40299987792969,-96.16999816894531 41.40299987792969,-96.16999816894531 C41.55799865722656,-98.16899871826172 39.07500076293945,-99.22699737548828 37.75600051879883,-97.6989974975586 C37.75600051879883,-97.6989974975586 12.805000305175781,-68.21900177001953 12.805000305175781,-68.21900177001953 C3.880000114440918,-57.08599853515625 -4.1519999504089355,-57.98699951171875 -12.765999794006348,-68.21900177001953 C-12.765999794006348,-68.21900177001953 -37.71699905395508,-97.62000274658203 -37.71699905395508,-97.62000274658203 C-39.0359992980957,-99.14900207519531 -41.52000045776367,-98.12999725341797 -41.3650016784668,-96.09100341796875 C-41.3650016784668,-96.09100341796875 -38.37699890136719,-57.43899917602539 -38.37699890136719,-57.43899917602539 C-37.17399978637695,-43.99300003051758 -42.45100021362305,-38.191001892089844 -56.45899963378906,-39.17100143432617 C-56.45899963378906,-39.17100143432617 -94.75800323486328,-42.18899917602539 -94.75800323486328,-42.18899917602539 C-96.73699951171875,-42.34600067138672 -97.78500366210938,-39.83700180053711 -96.27100372314453,-38.50400161743164 C-96.27100372314453,-38.50400161743164 -67.09100341796875,-13.29800033569336 -67.09100341796875,-13.29800033569336 C-57.35200119018555,-4.478000164031982 -55.25600051879883,3.3239998817443848 -67.09100341796875,12.53600025177002 C-67.09100341796875,12.53600025177002 -96.27100372314453,37.742000579833984 -96.27100372314453,37.742000579833984 C-97.78500366210938,39.0359992980957 -96.7760009765625,41.58399963378906 -94.75800323486328,41.426998138427734 C-94.75800323486328,41.426998138427734 -56.49800109863281,38.409000396728516 -56.49800109863281,38.409000396728516 C-43.1879997253418,37.38999938964844 -37.32899856567383,41.03499984741211 -38.415000915527344,56.676998138427734 C-38.415000915527344,56.676998138427734 -41.40299987792969,95.36799621582031 -41.40299987792969,95.36799621582031 C-41.558998107910156,97.36799621582031 -39.07500076293945,98.4260025024414 -37.75600051879883,96.89700317382812 C-37.75600051879883,96.89700317382812 -12.805000305175781,67.41799926757812 -12.805000305175781,67.41799926757812 C-3.3369998931884766,56.676998138427734 3.7249999046325684,56.20600128173828 12.765999794006348,67.41799926757812 C12.765999794006348,67.41799926757812 37.71699905395508,96.89700317382812 37.71699905395508,96.89700317382812 C39.0359992980957,98.4260025024414 41.52000045776367,97.40699768066406 41.36399841308594,95.36799621582031 C41.36399841308594,95.36799621582031 38.37699890136719,56.715999603271484 38.37699890136719,56.715999603271484 C36.902000427246094,42.994998931884766 41.90800094604492,37.89899826049805 56.45899963378906,38.448001861572266 C56.45899963378906,38.448001861572266 94.75800323486328,41.465999603271484 94.75800323486328,41.465999603271484 C96.73699951171875,41.62300109863281 97.78500366210938,39.11399841308594 96.27100372314453,37.78200149536133 C96.27100372314453,37.78200149536133 67.09100341796875,12.574999809265137 67.09100341796875,12.574999809265137 C67.09100341796875,12.574999809265137 67.09100341796875,12.496999740600586 67.09100341796875,12.496999740600586z"></path></g></g></g></g></svg>