<svg width="9071" height="210" viewBox="0 0 9071 210" fill="none" xmlns="http://www.w3.org/2000/svg">
<path d="M50.4466 158.65L49.5636 157.767V45.6004C49.5636 36.5476 44.7059 31.4692 35.6531 31.4692H1.2082L0.325195 30.586V4.97316L1.2082 4.08996H126.181L127.064 4.97316V30.586L126.181 31.4692H91.957C82.9043 31.4692 77.826 36.5476 77.826 45.6004V157.767L76.9427 158.65H50.4466ZM143.573 158.871L142.69 157.988V4.97316L143.573 4.08996H170.069L170.952 4.97316V42.9508L171.835 43.834H242.491L243.374 44.7172V157.988L242.491 158.871H215.995L215.112 157.988V88.4356C215.112 77.3956 208.93 71.2132 197.669 71.2132H188.174C177.134 71.2132 170.952 77.3956 170.952 88.4356V157.988L170.069 158.871H143.573ZM297.529 158.65C277.216 158.65 260.876 145.623 260.876 124.426C260.876 103.45 277.216 90.6436 297.529 90.6436H319.609L320.492 89.7604V79.3828C320.492 69.8884 313.427 65.2516 303.491 65.2516C292.451 65.2516 286.71 71.2132 286.268 78.4996L285.385 79.3828H258.668L257.785 78.4996C257.785 58.186 273.904 40.522 304.595 40.522C328 40.522 348.755 50.458 348.755 76.0708V117.802C348.755 126.855 353.612 131.933 362.886 131.933H363.548L364.431 132.816V157.767L363.548 158.65H297.529ZM288.476 124.426C288.476 133.7 296.204 138.778 303.932 138.778H306.361C314.31 138.778 322.038 133.7 322.038 124.426C322.038 115.373 314.31 110.295 306.361 110.295H303.932C296.204 110.295 288.476 115.373 288.476 124.426ZM388.256 158.65L387.373 157.767V82.6948C387.373 73.642 382.516 68.5636 373.463 68.5636H360.656L359.773 67.6804V44.7172L360.656 43.834H386.49L387.373 42.9508V11.5972L388.256 10.714H414.973L415.856 11.5972V42.9508L416.74 43.834H443.898L444.781 44.7172V67.6804L443.898 68.5636H429.767C420.714 68.5636 415.856 73.642 415.856 82.6948V120.01C415.856 129.284 420.714 133.479 429.767 133.479H443.898L444.781 134.362V157.767L443.898 158.65H388.256ZM490.691 3.42755C489.366 8.57915 487.673 14.1736 485.612 20.2084C483.552 26.0968 481.344 32.0584 478.988 38.0932C476.633 43.9816 474.204 49.648 471.702 55.0948H448.076C449.107 50.6788 450.137 46.1152 451.167 41.4052C452.198 36.6952 453.155 31.984 454.038 27.274C455.069 22.4164 455.952 17.7796 456.688 13.3636C457.571 8.94755 458.306 4.82556 458.895 0.998761H489.145L490.691 3.42755ZM542.534 162.183C512.947 162.183 497.27 143.415 495.283 123.322L496.166 122.439H522.883L523.766 123.322C524.429 132.816 532.378 139.661 543.418 139.661C552.691 139.661 559.315 135.687 559.315 127.738C559.315 109.853 498.154 116.256 498.154 76.2916C498.154 56.1988 514.934 40.3012 541.872 40.3012C564.393 40.3012 584.707 52.666 587.578 76.954L586.694 77.8372H559.757L558.874 76.954C558.211 68.122 550.704 62.602 540.768 62.602C531.936 62.602 525.312 66.1348 525.312 74.3044C525.312 92.8516 586.694 86.6692 586.694 126.192C586.694 145.623 570.797 162.183 542.534 162.183ZM697.482 161.962C661.933 161.962 640.736 142.752 638.087 109.632L638.97 108.749H665.466L666.349 109.632C667.674 127.517 681.584 137.012 699.248 137.012C714.925 137.012 724.64 129.063 724.64 118.464C724.64 88.8772 643.828 93.2932 643.828 44.4964C643.828 21.0916 662.595 0.777954 697.703 0.777954C734.797 0.777954 751.799 23.2996 752.461 48.0292L751.578 48.9124H724.861L723.978 48.0292C723.316 33.0148 712.276 25.7284 697.924 25.7284C682.688 25.7284 673.856 33.4564 673.856 43.834C673.856 73.642 753.124 69.0052 753.124 116.919C753.124 141.428 731.927 161.962 697.482 161.962ZM823.488 161.962C789.264 161.962 764.314 136.791 764.314 101.242C764.314 65.6932 789.264 40.522 823.488 40.522C857.491 40.522 882.442 65.6932 882.442 101.242C882.442 136.791 857.491 161.962 823.488 161.962ZM793.68 101.242C793.68 120.452 806.486 133.92 823.488 133.92C840.269 133.92 853.296 120.452 853.296 101.242C853.296 82.0324 840.269 68.3428 823.488 68.3428C806.486 68.3428 793.68 82.0324 793.68 101.242ZM1010.66 161.962C965.399 161.962 935.149 126.634 935.149 81.5908C935.149 36.3268 965.399 0.777954 1010.66 0.777954C1048.42 0.777954 1076.46 25.7284 1082.86 62.1604L1081.98 63.0436H1052.61L1051.95 62.1604C1047.09 40.9636 1030.98 29.0404 1010.88 29.0404C984.608 29.0404 965.178 49.1332 965.178 81.37C965.178 113.607 984.608 133.7 1010.88 133.7C1030.98 133.7 1046.87 121.776 1051.73 100.58L1052.61 99.6964H1081.98L1082.86 100.58C1076.46 137.012 1048.42 161.962 1010.66 161.962ZM1154.81 161.962C1120.59 161.962 1095.63 136.791 1095.63 101.242C1095.63 65.6932 1120.59 40.522 1154.81 40.522C1188.81 40.522 1213.77 65.6932 1213.77 101.242C1213.77 136.791 1188.81 161.962 1154.81 161.962ZM1125 101.242C1125 120.452 1137.81 133.92 1154.81 133.92C1171.59 133.92 1184.62 120.452 1184.62 101.242C1184.62 82.0324 1171.59 68.3428 1154.81 68.3428C1137.81 68.3428 1125 82.0324 1125 101.242ZM1284.3 161.962C1250.08 161.962 1225.12 136.791 1225.12 101.242C1225.12 65.6932 1250.08 40.522 1284.3 40.522C1318.3 40.522 1343.25 65.6932 1343.25 101.242C1343.25 136.791 1318.3 161.962 1284.3 161.962ZM1254.49 101.242C1254.49 120.452 1267.3 133.92 1284.3 133.92C1301.08 133.92 1314.11 120.452 1314.11 101.242C1314.11 82.0324 1301.08 68.3428 1284.3 68.3428C1267.3 68.3428 1254.49 82.0324 1254.49 101.242ZM1413.78 161.962C1379.56 161.962 1354.61 136.791 1354.61 101.242C1354.61 65.6932 1379.56 40.522 1413.78 40.522C1447.79 40.522 1472.74 65.6932 1472.74 101.242C1472.74 136.791 1447.79 161.962 1413.78 161.962ZM1383.97 101.242C1383.97 120.452 1396.78 133.92 1413.78 133.92C1430.57 133.92 1443.59 120.452 1443.59 101.242C1443.59 82.0324 1430.57 68.3428 1413.78 68.3428C1396.78 68.3428 1383.97 82.0324 1383.97 101.242ZM1490.53 158.65L1489.65 157.767V4.75236L1490.53 3.86916H1517.03L1517.91 4.75236V119.127C1517.91 128.18 1522.99 133.258 1532.04 133.258H1535.8L1536.67 134.141V157.767L1535.8 158.65H1490.53ZM1553.28 158.65L1552.39 157.767V108.749L1553.28 107.866H1580.67L1581.54 108.749V157.767L1580.67 158.65H1553.28ZM1643.13 158.65L1642.24 157.767V4.97316L1643.13 4.08996H1748.01L1748.88 4.97316V30.586L1748.01 31.4692H1684.63C1675.36 31.4692 1670.5 36.3268 1670.5 45.1588V50.2372C1670.5 59.0692 1675.36 64.1476 1684.63 64.1476H1738.51L1739.39 65.0308V90.6436L1738.51 91.5268H1684.63C1675.36 91.5268 1670.5 96.6052 1670.5 105.658V117.14C1670.5 126.192 1675.36 131.271 1684.63 131.271H1748.01L1748.88 132.154V157.767L1748.01 158.65H1643.13ZM1790.82 158.65L1789.95 157.767L1755.94 44.7172L1756.83 43.834H1784.87L1785.75 44.7172L1805.4 115.594C1807.38 122.66 1810.48 126.413 1816 126.413C1821.73 126.413 1824.83 122.88 1826.82 115.594L1846.02 44.7172L1846.91 43.834H1873.85L1874.73 44.7172L1840.73 157.767L1839.84 158.65H1790.82ZM1935.77 161.962C1900.23 161.962 1879.47 134.804 1879.47 99.4756C1879.47 62.3812 1903.09 40.522 1934.01 40.522C1964.69 40.522 1986.55 61.7188 1986.55 92.6308V107.866L1985.67 108.749H1923.63C1915.9 108.749 1911.04 111.84 1911.04 118.464C1911.04 127.517 1919.43 137.674 1935.11 137.674C1947.91 137.674 1957.63 130.608 1959.61 119.127L1960.5 118.244H1987L1987.87 119.127C1983.46 145.402 1963.37 161.962 1935.77 161.962ZM1911.04 79.3828C1911.04 86.0068 1915.45 89.098 1920.53 89.098H1945.71C1950.78 89.098 1955.2 86.0068 1955.2 79.3828C1955.2 70.7716 1947.47 61.9396 1933.56 61.9396C1919.21 61.9396 1911.04 70.7716 1911.04 79.3828ZM2004.59 158.871L2003.7 157.988V44.7172L2004.59 43.834H2068.18L2069.05 44.7172V68.7844L2068.18 69.6676H2049.18C2038.14 69.6676 2031.96 75.85 2031.96 86.89V157.988L2031.09 158.871H2004.59ZM2089.32 209.434L2088.43 208.551V187.796L2089.32 186.912H2108.75C2120.02 186.912 2125.54 182.276 2127.75 175.431C2130.83 165.716 2125.75 158.65 2116.92 158.65H2110.3L2109.41 157.767L2074.97 44.7172L2075.86 43.834H2103.46L2104.33 44.7172L2124.43 115.594C2126.64 123.101 2129.51 126.413 2135.25 126.413C2140.99 126.413 2143.63 123.322 2145.84 115.594L2165.71 44.7172L2166.6 43.834H2194.2L2195.09 44.7172L2145.63 208.551L2144.74 209.434H2089.32ZM2229.03 158.65L2228.14 157.767V82.6948C2228.14 73.642 2223.28 68.5636 2214.23 68.5636H2201.43L2200.54 67.6804V44.7172L2201.43 43.834H2227.26L2228.14 42.9508V11.5972L2229.03 10.714H2255.74L2256.63 11.5972V42.9508L2257.5 43.834H2284.67L2285.55 44.7172V67.6804L2284.67 68.5636H2270.53C2261.49 68.5636 2256.63 73.642 2256.63 82.6948V120.01C2256.63 129.284 2261.49 133.479 2270.53 133.479H2284.67L2285.55 134.362V157.767L2284.67 158.65H2229.03ZM2301 158.871L2300.11 157.988V4.97316L2301 4.08996H2327.5L2328.37 4.97316V42.9508L2329.26 43.834H2399.92L2400.79 44.7172V157.988L2399.92 158.871H2373.42L2372.53 157.988V88.4356C2372.53 77.3956 2366.35 71.2132 2355.1 71.2132H2345.59C2334.55 71.2132 2328.37 77.3956 2328.37 88.4356V157.988L2327.5 158.871H2301ZM2424.22 158.65L2423.33 157.767V44.7172L2424.22 43.834H2450.93L2451.82 44.7172V157.767L2450.93 158.65H2424.22ZM2423.11 30.8068V4.97316L2423.99 4.08996H2451.16L2452.03 4.97316V30.8068L2451.16 31.69H2423.99L2423.11 30.8068ZM2475.21 158.65L2474.33 157.767V44.7172L2475.21 43.834H2574.12L2575.01 44.7172V157.767L2574.12 158.65H2547.63L2546.75 157.767V86.89C2546.75 75.85 2540.57 69.6676 2529.3 69.6676H2519.81C2508.77 69.6676 2502.59 75.85 2502.59 86.89V157.767L2501.7 158.65H2475.21ZM2633.55 209.434C2610.36 209.434 2595.35 193.757 2595.35 173.002V86.2276C2595.35 57.7444 2611.47 43.834 2641.5 43.834H2700.89L2701.78 44.7172V70.33L2700.89 71.2132H2700.46C2691.63 71.2132 2687.43 75.4084 2687.43 84.2404V89.5396C2687.43 110.295 2670.87 122.66 2645.69 122.66H2627.81C2623.18 122.66 2619.42 125.088 2619.42 129.725C2619.42 134.362 2623.18 136.57 2627.81 136.57H2656.73C2681.46 136.57 2695.37 152.688 2695.37 173.002C2695.37 193.536 2681.46 209.434 2656.73 209.434H2633.55ZM2622.07 83.3572C2622.07 94.1764 2630.68 99.6964 2641.5 99.6964C2652.31 99.6964 2660.71 94.1764 2660.71 83.3572C2660.71 72.538 2652.31 66.7972 2641.5 66.7972C2630.68 66.7972 2622.07 72.538 2622.07 83.3572ZM2622.95 173.223C2622.95 182.055 2630.02 186.25 2638.63 186.25H2651.44C2660.04 186.25 2667.11 181.834 2667.11 173.002C2667.11 164.17 2660.04 159.975 2651.44 159.975H2638.63C2630.02 159.975 2622.95 164.17 2622.95 173.223ZM2800.25 158.65L2799.36 157.767V108.087C2799.36 101.242 2798.04 96.3844 2794.5 90.6436L2745.93 4.97316L2746.81 4.08996H2777.28L2778.39 4.97316L2803.78 51.1204C2809.3 61.0564 2817.47 61.2772 2823.21 51.1204L2848.6 4.97316L2849.7 4.08996H2881.72L2882.61 4.97316L2832.27 90.202C2828.95 96.3844 2827.62 101.021 2827.62 107.645V157.767L2826.75 158.65H2800.25ZM2927.76 161.962C2893.54 161.962 2868.58 136.791 2868.58 101.242C2868.58 65.6932 2893.54 40.522 2927.76 40.522C2961.76 40.522 2986.71 65.6932 2986.71 101.242C2986.71 136.791 2961.76 161.962 2927.76 161.962ZM2897.95 101.242C2897.95 120.452 2910.76 133.92 2927.76 133.92C2944.54 133.92 2957.57 120.452 2957.57 101.242C2957.57 82.0324 2944.54 68.3428 2927.76 68.3428C2910.76 68.3428 2897.95 82.0324 2897.95 101.242ZM3004.05 43.834H3030.54L3031.43 44.7172V115.594C3031.43 126.634 3037.61 132.816 3048.65 132.816H3058.14C3069.41 132.816 3075.59 126.634 3075.59 115.594V44.7172L3076.48 43.834H3102.97L3103.85 44.7172V157.767L3102.97 158.65H3004.05L3003.17 157.767V44.7172L3004.05 43.834ZM3168.17 158.871L3167.28 157.988V4.97316L3168.17 4.08996H3194.67L3195.55 4.97316V42.9508L3196.43 43.834H3267.09L3267.97 44.7172V157.988L3267.09 158.871H3240.59L3239.71 157.988V88.4356C3239.71 77.3956 3233.52 71.2132 3222.27 71.2132H3212.77C3201.73 71.2132 3195.55 77.3956 3195.55 88.4356V157.988L3194.67 158.871H3168.17ZM3322.13 158.65C3301.81 158.65 3285.47 145.623 3285.47 124.426C3285.47 103.45 3301.81 90.6436 3322.13 90.6436H3344.21L3345.09 89.7604V79.3828C3345.09 69.8884 3338.03 65.2516 3328.09 65.2516C3317.05 65.2516 3311.31 71.2132 3310.86 78.4996L3309.99 79.3828H3283.26L3282.39 78.4996C3282.39 58.186 3298.5 40.522 3329.2 40.522C3352.6 40.522 3373.36 50.458 3373.36 76.0708V117.802C3373.36 126.855 3378.21 131.933 3387.48 131.933H3388.14L3389.03 132.816V157.767L3388.14 158.65H3322.13ZM3313.07 124.426C3313.07 133.7 3320.8 138.778 3328.53 138.778H3330.96C3338.91 138.778 3346.63 133.7 3346.63 124.426C3346.63 115.373 3338.91 110.295 3330.96 110.295H3328.53C3320.8 110.295 3313.07 115.373 3313.07 124.426ZM3421.89 158.65L3421 157.767L3386.99 44.7172L3387.88 43.834H3415.92L3416.8 44.7172L3436.45 115.594C3438.45 122.66 3441.53 126.413 3447.05 126.413C3452.8 126.413 3455.88 122.88 3457.87 115.594L3477.09 44.7172L3477.96 43.834H3504.9L3505.79 44.7172L3471.78 157.767L3470.89 158.65H3421.89ZM3566.82 161.962C3531.28 161.962 3510.52 134.804 3510.52 99.4756C3510.52 62.3812 3534.15 40.522 3565.06 40.522C3595.75 40.522 3617.61 61.7188 3617.61 92.6308V107.866L3616.73 108.749H3554.68C3546.95 108.749 3542.1 111.84 3542.1 118.464C3542.1 127.517 3550.49 137.674 3566.16 137.674C3578.97 137.674 3588.69 130.608 3590.68 119.127L3591.55 118.244H3618.05L3618.94 119.127C3614.52 145.402 3594.42 161.962 3566.82 161.962ZM3542.1 79.3828C3542.1 86.0068 3546.52 89.098 3551.59 89.098H3576.76C3581.85 89.098 3586.26 86.0068 3586.26 79.3828C3586.26 70.7716 3578.53 61.9396 3564.61 61.9396C3550.26 61.9396 3542.1 70.7716 3542.1 79.3828ZM3675.87 158.65L3674.98 157.767V44.7172L3675.87 43.834H3702.58L3703.47 44.7172V157.767L3702.58 158.65H3675.87ZM3674.76 30.8068V4.97316L3675.65 4.08996H3702.81L3703.68 4.97316V30.8068L3702.81 31.69H3675.65L3674.76 30.8068ZM3765.95 162.183C3736.36 162.183 3720.69 143.415 3718.69 123.322L3719.58 122.439H3746.29L3747.18 123.322C3747.84 132.816 3755.79 139.661 3766.83 139.661C3776.1 139.661 3782.73 135.687 3782.73 127.738C3782.73 109.853 3721.56 116.256 3721.56 76.2916C3721.56 56.1988 3738.35 40.3012 3765.29 40.3012C3787.8 40.3012 3808.12 52.666 3810.99 76.954L3810.11 77.8372H3783.17L3782.28 76.954C3781.62 68.122 3774.12 62.602 3764.19 62.602C3755.35 62.602 3748.73 66.1348 3748.73 74.3044C3748.73 92.8516 3810.11 86.6692 3810.11 126.192C3810.11 145.623 3794.21 162.183 3765.95 162.183ZM3938.11 161.962C3892.85 161.962 3862.61 126.634 3862.61 81.5908C3862.61 36.3268 3892.85 0.777954 3938.11 0.777954C3975.88 0.777954 4003.92 25.7284 4010.32 62.1604L4009.44 63.0436H3980.07L3979.41 62.1604C3974.55 40.9636 3958.43 29.0404 3938.34 29.0404C3912.06 29.0404 3892.63 49.1332 3892.63 81.37C3892.63 113.607 3912.06 133.7 3938.34 133.7C3958.43 133.7 3974.33 121.776 3979.19 100.58L3980.07 99.6964H4009.44L4010.32 100.58C4003.92 137.012 3975.88 161.962 3938.11 161.962ZM4082.27 161.962C4048.05 161.962 4023.09 136.791 4023.09 101.242C4023.09 65.6932 4048.05 40.522 4082.27 40.522C4116.27 40.522 4141.21 65.6932 4141.21 101.242C4141.21 136.791 4116.27 161.962 4082.27 161.962ZM4052.46 101.242C4052.46 120.452 4065.27 133.92 4082.27 133.92C4099.05 133.92 4112.08 120.452 4112.08 101.242C4112.08 82.0324 4099.05 68.3428 4082.27 68.3428C4065.27 68.3428 4052.46 82.0324 4052.46 101.242ZM4211.75 161.962C4177.53 161.962 4152.58 136.791 4152.58 101.242C4152.58 65.6932 4177.53 40.522 4211.75 40.522C4245.76 40.522 4270.71 65.6932 4270.71 101.242C4270.71 136.791 4245.76 161.962 4211.75 161.962ZM4181.94 101.242C4181.94 120.452 4194.75 133.92 4211.75 133.92C4228.54 133.92 4241.56 120.452 4241.56 101.242C4241.56 82.0324 4228.54 68.3428 4211.75 68.3428C4194.75 68.3428 4181.94 82.0324 4181.94 101.242ZM4341.24 161.962C4307.02 161.962 4282.07 136.791 4282.07 101.242C4282.07 65.6932 4307.02 40.522 4341.24 40.522C4375.24 40.522 4400.2 65.6932 4400.2 101.242C4400.2 136.791 4375.24 161.962 4341.24 161.962ZM4311.43 101.242C4311.43 120.452 4324.24 133.92 4341.24 133.92C4358.02 133.92 4371.05 120.452 4371.05 101.242C4371.05 82.0324 4358.02 68.3428 4341.24 68.3428C4324.24 68.3428 4311.43 82.0324 4311.43 101.242ZM4417.98 158.65L4417.11 157.767V4.75236L4417.98 3.86916H4444.48L4445.37 4.75236V119.127C4445.37 128.18 4450.44 133.258 4459.49 133.258H4463.25L4464.13 134.141V157.767L4463.25 158.65H4417.98ZM4480.73 158.65L4479.85 157.767V108.749L4480.73 107.866H4508.11L4509 108.749V157.767L4508.11 158.65H4480.73ZM4612.09 158.65L4611.21 157.767V45.6004C4611.21 36.5476 4606.35 31.4692 4597.3 31.4692H4562.85L4561.97 30.586V4.97316L4562.85 4.08996H4687.83L4688.7 4.97316V30.586L4687.83 31.4692H4653.6C4644.54 31.4692 4639.47 36.5476 4639.47 45.6004V157.767L4638.59 158.65H4612.09ZM4705.21 158.871L4704.34 157.988V4.97316L4705.21 4.08996H4731.71L4732.6 4.97316V42.9508L4733.47 43.834H4804.13L4805.02 44.7172V157.988L4804.13 158.871H4777.63L4776.76 157.988V88.4356C4776.76 77.3956 4770.58 71.2132 4759.31 71.2132H4749.82C4738.78 71.2132 4732.6 77.3956 4732.6 88.4356V157.988L4731.71 158.871H4705.21ZM4859.17 158.65C4838.86 158.65 4822.51 145.623 4822.51 124.426C4822.51 103.45 4838.86 90.6436 4859.17 90.6436H4881.25L4882.13 89.7604V79.3828C4882.13 69.8884 4875.07 65.2516 4865.14 65.2516C4854.1 65.2516 4848.35 71.2132 4847.91 78.4996L4847.03 79.3828H4820.31L4819.43 78.4996C4819.43 58.186 4835.55 40.522 4866.24 40.522C4889.64 40.522 4910.4 50.458 4910.4 76.0708V117.802C4910.4 126.855 4915.25 131.933 4924.53 131.933H4925.19L4926.07 132.816V157.767L4925.19 158.65H4859.17ZM4850.11 124.426C4850.11 133.7 4857.84 138.778 4865.57 138.778H4868.01C4875.95 138.778 4883.68 133.7 4883.68 124.426C4883.68 115.373 4875.95 110.295 4868.01 110.295H4865.57C4857.84 110.295 4850.11 115.373 4850.11 124.426ZM4949.89 158.65L4949.02 157.767V82.6948C4949.02 73.642 4944.16 68.5636 4935.11 68.5636H4922.29L4921.42 67.6804V44.7172L4922.29 43.834H4948.13L4949.02 42.9508V11.5972L4949.89 10.714H4976.62L4977.49 11.5972V42.9508L4978.38 43.834H5005.54L5006.43 44.7172V67.6804L5005.54 68.5636H4991.41C4982.35 68.5636 4977.49 73.642 4977.49 82.6948V120.01C4977.49 129.284 4982.35 133.479 4991.41 133.479H5005.54L5006.43 134.362V157.767L5005.54 158.65H4949.89ZM5052.34 3.42755C5051.01 8.57915 5049.31 14.1736 5047.25 20.2084C5045.2 26.0968 5042.99 32.0584 5040.63 38.0932C5038.27 43.9816 5035.85 49.648 5033.34 55.0948H5009.71C5010.75 50.6788 5011.78 46.1152 5012.81 41.4052C5013.84 36.6952 5014.8 31.984 5015.68 27.274C5016.71 22.4164 5017.6 17.7796 5018.33 13.3636C5019.22 8.94755 5019.95 4.82556 5020.54 0.998761H5050.79L5052.34 3.42755ZM5104.18 162.183C5074.59 162.183 5058.91 143.415 5056.92 123.322L5057.81 122.439H5084.52L5085.41 123.322C5086.07 132.816 5094.03 139.661 5105.07 139.661C5114.33 139.661 5120.95 135.687 5120.95 127.738C5120.95 109.853 5059.8 116.256 5059.8 76.2916C5059.8 56.1988 5076.58 40.3012 5103.52 40.3012C5126.04 40.3012 5146.35 52.666 5149.23 76.954L5148.34 77.8372H5121.4L5120.52 76.954C5119.85 68.122 5112.35 62.602 5102.41 62.602C5093.58 62.602 5086.96 66.1348 5086.96 74.3044C5086.96 92.8516 5148.34 86.6692 5148.34 126.192C5148.34 145.623 5132.44 162.183 5104.18 162.183ZM5259.12 161.962C5223.58 161.962 5202.37 142.752 5199.73 109.632L5200.61 108.749H5227.11L5227.99 109.632C5229.31 127.517 5243.22 137.012 5260.89 137.012C5276.57 137.012 5286.28 129.063 5286.28 118.464C5286.28 88.8772 5205.47 93.2932 5205.47 44.4964C5205.47 21.0916 5224.24 0.777954 5259.35 0.777954C5296.44 0.777954 5313.45 23.2996 5314.11 48.0292L5313.22 48.9124H5286.51L5285.62 48.0292C5284.96 33.0148 5273.92 25.7284 5259.57 25.7284C5244.33 25.7284 5235.49 33.4564 5235.49 43.834C5235.49 73.642 5314.77 69.0052 5314.77 116.919C5314.77 141.428 5293.57 161.962 5259.12 161.962ZM5385.13 161.962C5350.91 161.962 5325.96 136.791 5325.96 101.242C5325.96 65.6932 5350.91 40.522 5385.13 40.522C5419.13 40.522 5444.09 65.6932 5444.09 101.242C5444.09 136.791 5419.13 161.962 5385.13 161.962ZM5355.33 101.242C5355.33 120.452 5368.13 133.92 5385.13 133.92C5401.91 133.92 5414.94 120.452 5414.94 101.242C5414.94 82.0324 5401.91 68.3428 5385.13 68.3428C5368.13 68.3428 5355.33 82.0324 5355.33 101.242ZM5572.31 161.962C5527.05 161.962 5496.79 126.634 5496.79 81.5908C5496.79 36.3268 5527.05 0.777954 5572.31 0.777954C5610.06 0.777954 5638.11 25.7284 5644.5 62.1604L5643.63 63.0436H5614.26L5613.59 62.1604C5608.74 40.9636 5592.61 29.0404 5572.53 29.0404C5546.25 29.0404 5526.82 49.1332 5526.82 81.37C5526.82 113.607 5546.25 133.7 5572.53 133.7C5592.61 133.7 5608.51 121.776 5613.37 100.58L5614.26 99.6964H5643.63L5644.5 100.58C5638.11 137.012 5610.06 161.962 5572.31 161.962ZM5716.45 161.962C5682.23 161.962 5657.28 136.791 5657.28 101.242C5657.28 65.6932 5682.23 40.522 5716.45 40.522C5750.45 40.522 5775.41 65.6932 5775.41 101.242C5775.41 136.791 5750.45 161.962 5716.45 161.962ZM5686.65 101.242C5686.65 120.452 5699.45 133.92 5716.45 133.92C5733.23 133.92 5746.26 120.452 5746.26 101.242C5746.26 82.0324 5733.23 68.3428 5716.45 68.3428C5699.45 68.3428 5686.65 82.0324 5686.65 101.242ZM5845.93 161.962C5811.71 161.962 5786.76 136.791 5786.76 101.242C5786.76 65.6932 5811.71 40.522 5845.93 40.522C5879.94 40.522 5904.89 65.6932 5904.89 101.242C5904.89 136.791 5879.94 161.962 5845.93 161.962ZM5816.13 101.242C5816.13 120.452 5828.94 133.92 5845.93 133.92C5862.72 133.92 5875.74 120.452 5875.74 101.242C5875.74 82.0324 5862.72 68.3428 5845.93 68.3428C5828.94 68.3428 5816.13 82.0324 5816.13 101.242ZM5975.43 161.962C5941.2 161.962 5916.25 136.791 5916.25 101.242C5916.25 65.6932 5941.2 40.522 5975.43 40.522C6009.43 40.522 6034.38 65.6932 6034.38 101.242C6034.38 136.791 6009.43 161.962 5975.43 161.962ZM5945.62 101.242C5945.62 120.452 5958.42 133.92 5975.43 133.92C5992.2 133.92 6005.23 120.452 6005.23 101.242C6005.23 82.0324 5992.2 68.3428 5975.43 68.3428C5958.42 68.3428 5945.62 82.0324 5945.62 101.242ZM6052.18 158.65L6051.29 157.767V4.75236L6052.18 3.86916H6078.67L6079.55 4.75236V119.127C6079.55 128.18 6084.63 133.258 6093.69 133.258H6097.44L6098.32 134.141V157.767L6097.44 158.65H6052.18ZM6114.93 158.65L6114.04 157.767V108.749L6114.93 107.866H6142.3L6143.19 108.749V157.767L6142.3 158.65H6114.93ZM6204.77 158.65L6203.88 157.767V4.97316L6204.77 4.08996H6309.65L6310.53 4.97316V30.586L6309.65 31.4692H6246.28C6237 31.4692 6232.14 36.3268 6232.14 45.1588V50.2372C6232.14 59.0692 6237 64.1476 6246.28 64.1476H6300.15L6301.03 65.0308V90.6436L6300.15 91.5268H6246.28C6237 91.5268 6232.14 96.6052 6232.14 105.658V117.14C6232.14 126.192 6237 131.271 6246.28 131.271H6309.65L6310.53 132.154V157.767L6309.65 158.65H6204.77ZM6352.47 158.65L6351.59 157.767L6317.58 44.7172L6318.47 43.834H6346.5L6347.39 44.7172L6367.05 115.594C6369.03 122.66 6372.12 126.413 6377.64 126.413C6383.38 126.413 6386.47 122.88 6388.45 115.594L6407.67 44.7172L6408.55 43.834H6435.49L6436.37 44.7172L6402.37 157.767L6401.49 158.65H6352.47ZM6497.41 161.962C6461.86 161.962 6441.11 134.804 6441.11 99.4756C6441.11 62.3812 6464.74 40.522 6495.65 40.522C6526.33 40.522 6548.2 61.7188 6548.2 92.6308V107.866L6547.31 108.749H6485.27C6477.54 108.749 6472.68 111.84 6472.68 118.464C6472.68 127.517 6481.07 137.674 6496.75 137.674C6509.56 137.674 6519.27 130.608 6521.26 119.127L6522.15 118.244H6548.64L6549.52 119.127C6545.1 145.402 6525.01 161.962 6497.41 161.962ZM6472.68 79.3828C6472.68 86.0068 6477.1 89.098 6482.17 89.098H6507.35C6512.43 89.098 6516.84 86.0068 6516.84 79.3828C6516.84 70.7716 6509.11 61.9396 6495.21 61.9396C6480.85 61.9396 6472.68 70.7716 6472.68 79.3828ZM6566.22 158.871L6565.35 157.988V44.7172L6566.22 43.834H6629.82L6630.7 44.7172V68.7844L6629.82 69.6676H6610.83C6599.79 69.6676 6593.61 75.85 6593.61 86.89V157.988L6592.72 158.871H6566.22ZM6650.97 209.434L6650.08 208.551V187.796L6650.97 186.912H6670.39C6681.65 186.912 6687.17 182.276 6689.38 175.431C6692.47 165.716 6687.4 158.65 6678.57 158.65H6671.94L6671.05 157.767L6636.61 44.7172L6637.49 43.834H6665.09L6665.98 44.7172L6686.07 115.594C6688.27 123.101 6691.15 126.413 6696.89 126.413C6702.63 126.413 6705.28 123.322 6707.49 115.594L6727.36 44.7172L6728.25 43.834H6755.85L6756.72 44.7172L6707.27 208.551L6706.38 209.434H6650.97ZM6790.67 158.65L6789.78 157.767V82.6948C6789.78 73.642 6784.92 68.5636 6775.87 68.5636H6763.07L6762.18 67.6804V44.7172L6763.07 43.834H6788.89L6789.78 42.9508V11.5972L6790.67 10.714H6817.38L6818.27 11.5972V42.9508L6819.15 43.834H6846.3L6847.19 44.7172V67.6804L6846.3 68.5636H6832.18C6823.12 68.5636 6818.27 73.642 6818.27 82.6948V120.01C6818.27 129.284 6823.12 133.479 6832.18 133.479H6846.3L6847.19 134.362V157.767L6846.3 158.65H6790.67ZM6862.63 158.871L6861.76 157.988V4.97316L6862.63 4.08996H6889.13L6890.02 4.97316V42.9508L6890.91 43.834H6961.56L6962.44 44.7172V157.988L6961.56 158.871H6935.07L6934.18 157.988V88.4356C6934.18 77.3956 6928 71.2132 6916.73 71.2132H6907.24C6896.2 71.2132 6890.02 77.3956 6890.02 88.4356V157.988L6889.13 158.871H6862.63ZM6985.86 158.65L6984.97 157.767V44.7172L6985.86 43.834H7012.57L7013.46 44.7172V157.767L7012.57 158.65H6985.86ZM6984.76 30.8068V4.97316L6985.63 4.08996H7012.79L7013.68 4.97316V30.8068L7012.79 31.69H6985.63L6984.76 30.8068ZM7036.85 158.65L7035.96 157.767V44.7172L7036.85 43.834H7135.77L7136.65 44.7172V157.767L7135.77 158.65H7109.27L7108.39 157.767V86.89C7108.39 75.85 7102.2 69.6676 7090.95 69.6676H7081.45C7070.41 69.6676 7064.23 75.85 7064.23 86.89V157.767L7063.35 158.65H7036.85ZM7195.19 209.434C7172.01 209.434 7156.99 193.757 7156.99 173.002V86.2276C7156.99 57.7444 7173.11 43.834 7203.15 43.834H7262.53L7263.42 44.7172V70.33L7262.53 71.2132H7262.09C7253.26 71.2132 7249.07 75.4084 7249.07 84.2404V89.5396C7249.07 110.295 7232.51 122.66 7207.33 122.66H7189.45C7184.81 122.66 7181.07 125.088 7181.07 129.725C7181.07 134.362 7184.81 136.57 7189.45 136.57H7218.37C7243.11 136.57 7257.01 152.688 7257.01 173.002C7257.01 193.536 7243.11 209.434 7218.37 209.434H7195.19ZM7183.71 83.3572C7183.71 94.1764 7192.32 99.6964 7203.15 99.6964C7213.96 99.6964 7222.35 94.1764 7222.35 83.3572C7222.35 72.538 7213.96 66.7972 7203.15 66.7972C7192.32 66.7972 7183.71 72.538 7183.71 83.3572ZM7184.59 173.223C7184.59 182.055 7191.66 186.25 7200.27 186.25H7213.08C7221.69 186.25 7228.75 181.834 7228.75 173.002C7228.75 164.17 7221.69 159.975 7213.08 159.975H7200.27C7191.66 159.975 7184.59 164.17 7184.59 173.223ZM7361.88 158.65L7361.01 157.767V108.087C7361.01 101.242 7359.67 96.3844 7356.15 90.6436L7307.57 4.97316L7308.46 4.08996H7338.93L7340.03 4.97316L7365.42 51.1204C7370.94 61.0564 7379.11 61.2772 7384.85 51.1204L7410.24 4.97316L7411.35 4.08996H7443.36L7444.25 4.97316L7393.9 90.202C7390.58 96.3844 7389.27 101.021 7389.27 107.645V157.767L7388.38 158.65H7361.88ZM7489.39 161.962C7455.17 161.962 7430.22 136.791 7430.22 101.242C7430.22 65.6932 7455.17 40.522 7489.39 40.522C7523.4 40.522 7548.35 65.6932 7548.35 101.242C7548.35 136.791 7523.4 161.962 7489.39 161.962ZM7459.59 101.242C7459.59 120.452 7472.4 133.92 7489.39 133.92C7506.18 133.92 7519.2 120.452 7519.2 101.242C7519.2 82.0324 7506.18 68.3428 7489.39 68.3428C7472.4 68.3428 7459.59 82.0324 7459.59 101.242ZM7565.69 43.834H7592.19L7593.07 44.7172V115.594C7593.07 126.634 7599.25 132.816 7610.29 132.816H7619.79C7631.05 132.816 7637.23 126.634 7637.23 115.594V44.7172L7638.11 43.834H7664.61L7665.49 44.7172V157.767L7664.61 158.65H7565.69L7564.81 157.767V44.7172L7565.69 43.834ZM7729.81 158.871L7728.93 157.988V4.97316L7729.81 4.08996H7756.31L7757.19 4.97316V42.9508L7758.07 43.834H7828.73L7829.62 44.7172V157.988L7828.73 158.871H7802.23L7801.35 157.988V88.4356C7801.35 77.3956 7795.17 71.2132 7783.91 71.2132H7774.42C7763.38 71.2132 7757.19 77.3956 7757.19 88.4356V157.988L7756.31 158.871H7729.81ZM7883.77 158.65C7863.46 158.65 7847.11 145.623 7847.11 124.426C7847.11 103.45 7863.46 90.6436 7883.77 90.6436H7905.85L7906.73 89.7604V79.3828C7906.73 69.8884 7899.66 65.2516 7889.73 65.2516C7878.69 65.2516 7872.95 71.2132 7872.51 78.4996L7871.63 79.3828H7844.91L7844.03 78.4996C7844.03 58.186 7860.15 40.522 7890.83 40.522C7914.24 40.522 7934.99 50.458 7934.99 76.0708V117.802C7934.99 126.855 7939.85 131.933 7949.13 131.933H7949.79L7950.67 132.816V157.767L7949.79 158.65H7883.77ZM7874.71 124.426C7874.71 133.7 7882.44 138.778 7890.17 138.778H7892.61C7900.55 138.778 7908.28 133.7 7908.28 124.426C7908.28 115.373 7900.55 110.295 7892.61 110.295H7890.17C7882.44 110.295 7874.71 115.373 7874.71 124.426ZM7983.53 158.65L7982.64 157.767L7948.63 44.7172L7949.52 43.834H7977.57L7978.44 44.7172L7998.1 115.594C8000.09 122.66 8003.17 126.413 8008.69 126.413C8014.44 126.413 8017.53 122.88 8019.52 115.594L8038.73 44.7172L8039.61 43.834H8066.55L8067.43 44.7172L8033.43 157.767L8032.54 158.65H7983.53ZM8128.47 161.962C8092.92 161.962 8072.16 134.804 8072.16 99.4756C8072.16 62.3812 8095.79 40.522 8126.7 40.522C8157.4 40.522 8179.25 61.7188 8179.25 92.6308V107.866L8178.37 108.749H8116.32C8108.59 108.749 8103.73 111.84 8103.73 118.464C8103.73 127.517 8112.13 137.674 8127.81 137.674C8140.61 137.674 8150.33 130.608 8152.31 119.127L8153.2 118.244H8179.69L8180.58 119.127C8176.17 145.402 8156.07 161.962 8128.47 161.962ZM8103.73 79.3828C8103.73 86.0068 8108.15 89.098 8113.24 89.098H8138.4C8143.48 89.098 8147.89 86.0068 8147.89 79.3828C8147.89 70.7716 8140.17 61.9396 8126.26 61.9396C8111.91 61.9396 8103.73 70.7716 8103.73 79.3828ZM8237.51 158.65L8236.62 157.767V44.7172L8237.51 43.834H8264.22L8265.11 44.7172V157.767L8264.22 158.65H8237.51ZM8236.41 30.8068V4.97316L8237.28 4.08996H8264.45L8265.33 4.97316V30.8068L8264.45 31.69H8237.28L8236.41 30.8068ZM8327.59 162.183C8298 162.183 8282.33 143.415 8280.34 123.322L8281.23 122.439H8307.94L8308.83 123.322C8309.49 132.816 8317.43 139.661 8328.47 139.661C8337.75 139.661 8344.37 135.687 8344.37 127.738C8344.37 109.853 8283.21 116.256 8283.21 76.2916C8283.21 56.1988 8299.99 40.3012 8326.92 40.3012C8349.45 40.3012 8369.76 52.666 8372.63 76.954L8371.75 77.8372H8344.81L8343.93 76.954C8343.27 68.122 8335.75 62.602 8325.82 62.602C8316.99 62.602 8310.36 66.1348 8310.36 74.3044C8310.36 92.8516 8371.75 86.6692 8371.75 126.192C8371.75 145.623 8355.85 162.183 8327.59 162.183ZM8499.76 161.962C8454.49 161.962 8424.24 126.634 8424.24 81.5908C8424.24 36.3268 8454.49 0.777954 8499.76 0.777954C8537.52 0.777954 8565.55 25.7284 8571.96 62.1604L8571.07 63.0436H8541.71L8541.05 62.1604C8536.19 40.9636 8520.07 29.0404 8499.99 29.0404C8473.71 29.0404 8454.28 49.1332 8454.28 81.37C8454.28 113.607 8473.71 133.7 8499.99 133.7C8520.07 133.7 8535.97 121.776 8540.83 100.58L8541.71 99.6964H8571.07L8571.96 100.58C8565.55 137.012 8537.52 161.962 8499.76 161.962ZM8643.9 161.962C8609.68 161.962 8584.73 136.791 8584.73 101.242C8584.73 65.6932 8609.68 40.522 8643.9 40.522C8677.91 40.522 8702.86 65.6932 8702.86 101.242C8702.86 136.791 8677.91 161.962 8643.9 161.962ZM8614.09 101.242C8614.09 120.452 8626.91 133.92 8643.9 133.92C8660.69 133.92 8673.71 120.452 8673.71 101.242C8673.71 82.0324 8660.69 68.3428 8643.9 68.3428C8626.91 68.3428 8614.09 82.0324 8614.09 101.242ZM8773.39 161.962C8739.17 161.962 8714.22 136.791 8714.22 101.242C8714.22 65.6932 8739.17 40.522 8773.39 40.522C8807.4 40.522 8832.35 65.6932 8832.35 101.242C8832.35 136.791 8807.4 161.962 8773.39 161.962ZM8743.59 101.242C8743.59 120.452 8756.39 133.92 8773.39 133.92C8790.17 133.92 8803.2 120.452 8803.2 101.242C8803.2 82.0324 8790.17 68.3428 8773.39 68.3428C8756.39 68.3428 8743.59 82.0324 8743.59 101.242ZM8902.87 161.962C8868.65 161.962 8843.7 136.791 8843.7 101.242C8843.7 65.6932 8868.65 40.522 8902.87 40.522C8936.88 40.522 8961.83 65.6932 8961.83 101.242C8961.83 136.791 8936.88 161.962 8902.87 161.962ZM8873.07 101.242C8873.07 120.452 8885.88 133.92 8902.87 133.92C8919.66 133.92 8932.68 120.452 8932.68 101.242C8932.68 82.0324 8919.66 68.3428 8902.87 68.3428C8885.88 68.3428 8873.07 82.0324 8873.07 101.242ZM8979.63 158.65L8978.75 157.767V4.75236L8979.63 3.86916H9006.12L9007.01 4.75236V119.127C9007.01 128.18 9012.09 133.258 9021.13 133.258H9024.89L9025.78 134.141V157.767L9024.89 158.65H8979.63ZM9042.37 158.65L9041.5 157.767V108.749L9042.37 107.866H9069.76L9070.63 108.749V157.767L9069.76 158.65H9042.37Z" fill="black"/>
<mask id="mask0_936_8" style="mask-type:luminance" maskUnits="userSpaceOnUse" x="1106" y="53" width="98" height="98">
<path d="M1106.18 53.9993H1203.18V151H1106.18V53.9993Z" fill="white"/>
</mask>
<g mask="url(#mask0_936_8)">
<path d="M1201.43 90.3445V114.655C1201.43 133.748 1185.93 149.25 1166.83 149.25H1142.52C1123.43 149.25 1107.93 133.748 1107.93 114.655V90.3445C1107.93 71.2514 1123.43 55.7493 1142.52 55.7493H1166.83C1185.93 55.7493 1201.43 71.2514 1201.43 90.3445Z" fill="black"/>
<path d="M1177.44 117.56C1175.08 112.4 1175.76 109.914 1181.48 108.048L1196.16 103.327C1196.92 103.087 1196.95 101.991 1196.18 101.734L1181.62 96.8653C1176.09 95.0649 1175.22 92.3103 1177.82 87.3127L1184.96 73.5331C1185.33 72.8213 1184.58 72.0437 1183.86 72.4001L1170.07 79.3551C1165.04 82.0594 1162.22 80.4723 1160.65 75.3585L1156.06 60.6333C1155.81 59.8641 1154.74 59.8511 1154.48 60.6261L1149.54 75.3249C1147.88 80.4639 1145.03 81.7754 1140.02 79.2252L1126.39 72.1281C1125.69 71.761 1124.91 72.521 1125.26 73.2484L1132.06 87.0901C1134.27 91.8598 1133.82 95.0601 1128.03 96.6023L1113.34 101.323C1112.58 101.562 1112.56 102.658 1113.32 102.916L1127.88 107.784C1132.94 109.49 1134.53 111.747 1131.69 117.337L1124.54 131.116C1124.17 131.828 1124.92 132.606 1125.64 132.249L1139.44 125.295C1144.6 122.82 1147.28 123.75 1148.85 129.291L1153.43 144.045C1153.68 144.814 1154.75 144.827 1155.01 144.052L1159.95 129.354C1161.56 124.071 1164.2 122.977 1169.47 125.453L1183.1 132.55C1183.8 132.918 1184.58 132.157 1184.23 131.43L1177.43 117.588L1177.44 117.56Z" fill="white"/>
</g>
<mask id="mask1_936_8" style="mask-type:luminance" maskUnits="userSpaceOnUse" x="1220" y="38" width="128" height="129">
<path d="M1258.48 38.9042L1347.77 76.8054L1309.87 166.095L1220.58 128.194L1258.48 38.9042Z" fill="white"/>
</mask>
<g mask="url(#mask1_936_8)">
<path d="M1331.96 109.578L1322.46 131.955C1315 149.531 1294.67 157.743 1277.1 150.283L1254.72 140.784C1237.15 133.324 1228.93 112.997 1236.39 95.4216L1245.89 73.044C1253.35 55.4687 1273.68 47.256 1291.26 54.7163L1313.63 64.2151C1331.21 71.6753 1339.42 92.0023 1331.96 109.578Z" fill="black"/>
<path d="M1299.25 125.256C1299.09 119.584 1300.69 117.563 1306.68 118.078L1322.04 119.47C1322.83 119.546 1323.29 118.548 1322.68 118.011L1311.18 107.841C1306.8 104.024 1307.07 101.149 1311.41 97.5615L1323.37 87.6701C1323.99 87.1592 1323.61 86.1508 1322.8 86.1958L1307.39 87.208C1301.7 87.7334 1299.73 85.1719 1300.28 79.8502L1301.81 64.5013C1301.88 63.6969 1300.9 63.2653 1300.35 63.8765L1290.06 75.4763C1286.53 79.5587 1283.39 79.6524 1279.78 75.3495L1270.01 63.4908C1269.5 62.8778 1268.49 63.2734 1268.53 64.0794L1269.38 79.4795C1269.55 84.7325 1267.89 87.5035 1261.95 86.6579L1246.59 85.2655C1245.8 85.1895 1245.34 86.1878 1245.95 86.7248L1257.45 96.8951C1261.44 100.442 1262.02 103.14 1257.22 107.174L1245.25 117.065C1244.63 117.576 1245.02 118.585 1245.83 118.54L1261.24 117.528C1266.96 117.268 1269.06 119.169 1268.35 124.886L1266.8 140.256C1266.72 141.061 1267.71 141.492 1268.25 140.881L1278.54 129.281C1282.08 125.044 1284.94 125.069 1288.82 129.408L1298.6 141.267C1299.1 141.88 1300.12 141.484 1300.08 140.678L1299.22 125.278L1299.25 125.256Z" fill="white"/>
</g>
<mask id="mask2_936_8" style="mask-type:luminance" maskUnits="userSpaceOnUse" x="1365" y="53" width="98" height="98">
<path d="M1365.18 53.9993H1462.18V151H1365.18V53.9993Z" fill="white"/>
</mask>
<g mask="url(#mask2_936_8)">
<path d="M1460.43 90.3445V114.655C1460.43 133.748 1444.93 149.25 1425.83 149.25H1401.52C1382.43 149.25 1366.93 133.748 1366.93 114.655V90.3445C1366.93 71.2514 1382.43 55.7493 1401.52 55.7493H1425.83C1444.93 55.7493 1460.43 71.2514 1460.43 90.3445Z" fill="black"/>
<path d="M1436.44 117.56C1434.08 112.4 1434.76 109.914 1440.48 108.048L1455.16 103.327C1455.92 103.087 1455.95 101.991 1455.18 101.734L1440.62 96.8653C1435.1 95.0649 1434.22 92.3103 1436.82 87.3127L1443.96 73.5331C1444.33 72.8213 1443.59 72.0437 1442.86 72.4001L1429.07 79.3551C1424.04 82.0594 1421.22 80.4723 1419.65 75.3585L1415.06 60.6333C1414.81 59.8641 1413.74 59.8511 1413.48 60.6261L1408.54 75.3249C1406.88 80.4639 1404.03 81.7754 1399.02 79.2252L1385.39 72.1281C1384.69 71.761 1383.91 72.521 1384.26 73.2484L1391.06 87.0901C1393.27 91.8598 1392.82 95.0601 1387.03 96.6023L1372.34 101.323C1371.58 101.562 1371.56 102.658 1372.32 102.916L1386.88 107.784C1391.94 109.49 1393.53 111.747 1390.69 117.337L1383.54 131.116C1383.17 131.828 1383.92 132.606 1384.64 132.249L1398.44 125.295C1403.6 122.82 1406.28 123.75 1407.85 129.291L1412.43 144.045C1412.68 144.814 1413.75 144.827 1414.01 144.052L1418.96 129.354C1420.56 124.071 1423.2 122.977 1428.47 125.453L1442.1 132.55C1442.8 132.918 1443.58 132.157 1443.23 131.43L1436.43 117.588L1436.44 117.56Z" fill="white"/>
</g>
</svg>
